<svg xmlns:xlink="http://www.w3.org/1999/xlink" width="40" xmlns="http://www.w3.org/2000/svg" height="40" id="screenshot-2a15f80e-9592-80b6-8003-6eedf3a4c68b" viewBox="0 0 40 40" style="-webkit-print-color-adjust: exact;" fill="none" version="1.1"><g id="shape-2a15f80e-9592-80b6-8003-6eedf3a4c68b"><defs><clipPath class="frame-clip-def frame-clip" id="frame-clip-2a15f80e-9592-80b6-8003-6eedf3a4c68b-rumext-id-1"><rect rx="0" ry="0" x="0" y="0" width="40" height="40" transform="matrix(1.000000, 0.000000, 0.000000, 1.000000, 0.000000, 0.000000)" style="opacity: 1;"/></clipPath></defs><g clip-path="url(#frame-clip-2a15f80e-9592-80b6-8003-6eedf3a4c68b-rumext-id-1)" fill="none"><clipPath class="frame-clip-def frame-clip" id="frame-clip-2a15f80e-9592-80b6-8003-6eedf3a4c68b-rumext-id-1"><rect rx="0" ry="0" x="0" y="0" width="40" height="40" transform="matrix(1.000000, 0.000000, 0.000000, 1.000000, 0.000000, 0.000000)" style="opacity: 1;"/></clipPath><g class="fills" id="fills-2a15f80e-9592-80b6-8003-6eedf3a4c68b"><rect width="40" height="40" class="frame-background" x="0" transform="matrix(1.000000, 0.000000, 0.000000, 1.000000, 0.000000, 0.000000)" style="opacity: 1;" ry="0" rx="0" y="0"/></g><g class="frame-children" opacity="1"><g id="shape-4ea66b3b-da85-8083-8003-6edad3b2f518"><g class="fills" id="fills-4ea66b3b-da85-8083-8003-6edad3b2f518"><path rx="0" ry="0" d="M3.000,6.500C3.000,5.396,3.896,4.500,5.000,4.500L34.500,4.500C35.604,4.500,36.500,5.396,36.500,6.500L36.500,11.148L36.500,36.000C36.500,37.104,35.604,38.000,34.500,38.000L5.000,38.000C3.896,38.000,3.000,37.104,3.000,36.000L3.000,11.148L3.000,6.500ZM3.000,11.148L36.500,11.148"/></g><g id="strokes-4ea66b3b-da85-8083-8003-6edad3b2f518" class="strokes"><g class="stroke-shape"><path rx="0" ry="0" d="M3.000,6.500C3.000,5.396,3.896,4.500,5.000,4.500L34.500,4.500C35.604,4.500,36.500,5.396,36.500,6.500L36.500,11.148L36.500,36.000C36.500,37.104,35.604,38.000,34.500,38.000L5.000,38.000C3.896,38.000,3.000,37.104,3.000,36.000L3.000,11.148L3.000,6.500ZM3.000,11.148L36.500,11.148" style="fill: none; stroke-width: 3; stroke: rgb(249, 250, 243); stroke-opacity: 1;"/></g></g></g><g id="shape-4ea66b3b-da85-8083-8003-6edcf893de3a" rx="0" ry="0"><g id="shape-4ea66b3b-da85-8083-8003-6edb96f3f054"><g class="fills" id="fills-4ea66b3b-da85-8083-8003-6edb96f3f054"><path rx="0" ry="0" d="M6.500,1.500L6.500,7.000"/></g><g id="strokes-4ea66b3b-da85-8083-8003-6edb96f3f054" class="strokes"><g class="stroke-shape"><path rx="0" ry="0" d="M6.500,1.500L6.500,7.000" style="fill: none; stroke-width: 3; stroke: rgb(249, 250, 243); stroke-opacity: 1; stroke-linecap: round;"/></g></g></g><g id="shape-4ea66b3b-da85-8083-8003-6edc3175529a"><g class="fills" id="fills-4ea66b3b-da85-8083-8003-6edc3175529a"><path rx="0" ry="0" d="M27.568,1.500L27.568,7.000"/></g><g id="strokes-4ea66b3b-da85-8083-8003-6edc3175529a" class="strokes"><g class="stroke-shape"><path rx="0" ry="0" d="M27.568,1.500L27.568,7.000" style="fill: none; stroke-width: 3; stroke: rgb(249, 250, 243); stroke-opacity: 1; stroke-linecap: round;"/></g></g></g><g id="shape-4ea66b3b-da85-8083-8003-6edc3175529d"><g class="fills" id="fills-4ea66b3b-da85-8083-8003-6edc3175529d"><path rx="0" ry="0" d="M32.835,1.500L32.835,7.000"/></g><g id="strokes-4ea66b3b-da85-8083-8003-6edc3175529d" class="strokes"><g class="stroke-shape"><path rx="0" ry="0" d="M32.835,1.500L32.835,7.000" style="fill: none; stroke-width: 3; stroke: rgb(249, 250, 243); stroke-opacity: 1; stroke-linecap: round;"/></g></g></g><g id="shape-4ea66b3b-da85-8083-8003-6edc268190f2"><g class="fills" id="fills-4ea66b3b-da85-8083-8003-6edc268190f2"><path rx="0" ry="0" d="M17.034,1.500L17.034,7.000"/></g><g id="strokes-4ea66b3b-da85-8083-8003-6edc268190f2" class="strokes"><g class="stroke-shape"><path rx="0" ry="0" d="M17.034,1.500L17.034,7.000" style="fill: none; stroke-width: 3; stroke: rgb(249, 250, 243); stroke-opacity: 1; stroke-linecap: round;"/></g></g></g><g id="shape-4ea66b3b-da85-8083-8003-6edc268190f3"><g class="fills" id="fills-4ea66b3b-da85-8083-8003-6edc268190f3"><path rx="0" ry="0" d="M22.301,1.500L22.301,7.000"/></g><g id="strokes-4ea66b3b-da85-8083-8003-6edc268190f3" class="strokes"><g class="stroke-shape"><path rx="0" ry="0" d="M22.301,1.500L22.301,7.000" style="fill: none; stroke-width: 3; stroke: rgb(249, 250, 243); stroke-opacity: 1; stroke-linecap: round;"/></g></g></g><g id="shape-4ea66b3b-da85-8083-8003-6edbb9823e83"><g class="fills" id="fills-4ea66b3b-da85-8083-8003-6edbb9823e83"><path rx="0" ry="0" d="M11.767,1.500L11.767,7.000"/></g><g id="strokes-4ea66b3b-da85-8083-8003-6edbb9823e83" class="strokes"><g class="stroke-shape"><path rx="0" ry="0" d="M11.767,1.500L11.767,7.000" style="fill: none; stroke-width: 3; stroke: rgb(249, 250, 243); stroke-opacity: 1; stroke-linecap: round;"/></g></g></g></g><g id="shape-dbb92ceb-07cc-8049-8003-6f2adbc1accf" rx="0" ry="0"><g id="shape-4ea66b3b-da85-8083-8003-6edde26840a7"><g class="fills" id="fills-4ea66b3b-da85-8083-8003-6edde26840a7"><path rx="0" ry="0" d="M19.709,19.591C22.550,19.591,24.856,21.894,24.856,24.730C24.856,27.567,22.550,29.870,19.709,29.870C16.869,29.870,14.563,27.567,14.563,24.730C14.563,21.894,16.869,19.591,19.709,19.591ZM21.860,32.715C20.907,32.974,20.211,33.721,19.964,34.620C18.937,34.654,17.931,34.516,16.974,34.235C16.879,33.318,16.396,32.419,15.544,31.921C14.702,31.428,13.707,31.447,12.915,31.884C12.246,31.266,11.617,30.469,11.117,29.575C11.767,28.868,12.088,27.848,11.823,26.848C11.562,25.859,10.796,25.144,9.882,24.909C9.843,23.940,9.987,22.918,10.278,21.947C11.161,21.952,12.094,21.467,12.599,20.580C13.082,19.733,13.056,18.728,12.619,17.924C13.304,17.211,14.149,16.562,15.099,16.057C15.802,16.652,16.738,16.916,17.657,16.667C18.554,16.423,19.224,15.747,19.506,14.919C20.513,14.868,21.578,15.013,22.588,15.318C22.634,16.154,23.112,17.007,23.934,17.488C24.746,17.963,25.700,17.962,26.477,17.570C27.184,18.193,27.834,19.003,28.349,19.913C27.751,20.583,27.430,21.603,27.694,22.603C27.954,23.586,28.713,24.299,29.620,24.538C29.649,25.563,29.508,26.589,29.219,27.563C28.248,27.525,27.315,28.010,26.810,28.897C26.305,29.785,26.357,30.846,26.856,31.666C26.171,32.324,25.381,32.934,24.498,33.417C23.807,32.757,22.824,32.453,21.860,32.715Z" style="opacity: 1;"/></g><g id="strokes-4ea66b3b-da85-8083-8003-6edde26840a7" class="strokes"><g class="stroke-shape"><path rx="0" ry="0" d="M19.709,19.591C22.550,19.591,24.856,21.894,24.856,24.730C24.856,27.567,22.550,29.870,19.709,29.870C16.869,29.870,14.563,27.567,14.563,24.730C14.563,21.894,16.869,19.591,19.709,19.591ZM21.860,32.715C20.907,32.974,20.211,33.721,19.964,34.620C18.937,34.654,17.931,34.516,16.974,34.235C16.879,33.318,16.396,32.419,15.544,31.921C14.702,31.428,13.707,31.447,12.915,31.884C12.246,31.266,11.617,30.469,11.117,29.575C11.767,28.868,12.088,27.848,11.823,26.848C11.562,25.859,10.796,25.144,9.882,24.909C9.843,23.940,9.987,22.918,10.278,21.947C11.161,21.952,12.094,21.467,12.599,20.580C13.082,19.733,13.056,18.728,12.619,17.924C13.304,17.211,14.149,16.562,15.099,16.057C15.802,16.652,16.738,16.916,17.657,16.667C18.554,16.423,19.224,15.747,19.506,14.919C20.513,14.868,21.578,15.013,22.588,15.318C22.634,16.154,23.112,17.007,23.934,17.488C24.746,17.963,25.700,17.962,26.477,17.570C27.184,18.193,27.834,19.003,28.349,19.913C27.751,20.583,27.430,21.603,27.694,22.603C27.954,23.586,28.713,24.299,29.620,24.538C29.649,25.563,29.508,26.589,29.219,27.563C28.248,27.525,27.315,28.010,26.810,28.897C26.305,29.785,26.357,30.846,26.856,31.666C26.171,32.324,25.381,32.934,24.498,33.417C23.807,32.757,22.824,32.453,21.860,32.715Z" style="opacity: 1; fill: none; stroke-width: 2; stroke: rgb(249, 250, 243); stroke-opacity: 1;"/></g></g></g><g id="shape-dbb92ceb-07cc-8049-8003-6f273c58f5fa" style="mix-blend-mode: hard-light;"><g class="fills" id="fills-dbb92ceb-07cc-8049-8003-6f273c58f5fa"><path rx="0" ry="0" d="M11.000,26.296L16.211,32.000L29.000,18.000"/></g><g id="strokes-dbb92ceb-07cc-8049-8003-6f273c58f5fa" class="strokes"><g class="stroke-shape"><path rx="0" ry="0" d="M11.000,26.296L16.211,32.000L29.000,18.000" style="fill: none; stroke-width: 3; stroke: rgb(0, 0, 0); stroke-opacity: 1; stroke-linecap: round;"/></g></g></g></g><g id="shape-dbb92ceb-07cc-8049-8003-6f26d6b3f608"><g class="fills" id="fills-dbb92ceb-07cc-8049-8003-6f26d6b3f608"><path rx="0" ry="0" d="M11.000,26.296L16.211,32.000L29.000,18.000"/></g><g id="strokes-dbb92ceb-07cc-8049-8003-6f26d6b3f608" class="strokes"><g class="stroke-shape"><path rx="0" ry="0" d="M11.000,26.296L16.211,32.000L29.000,18.000" style="fill: none; stroke-width: 2; stroke: rgb(249, 250, 243); stroke-opacity: 1; stroke-linecap: round;"/></g></g></g></g></g></g></svg>