<svg xmlns:xlink="http://www.w3.org/1999/xlink" width="40" xmlns="http://www.w3.org/2000/svg" height="40" id="screenshot-4d157af3-8d84-803f-8003-6eef64fc54ac" viewBox="0 0 40 40" style="-webkit-print-color-adjust: exact;" fill="none" version="1.1"><g id="shape-4d157af3-8d84-803f-8003-6eef64fc54ac"><defs><clipPath class="frame-clip-def frame-clip" id="frame-clip-4d157af3-8d84-803f-8003-6eef64fc54ac-rumext-id-1"><rect rx="0" ry="0" x="0" y="0" width="40" height="40" transform="matrix(1.000000, 0.000000, 0.000000, 1.000000, 0.000000, 0.000000)"/></clipPath></defs><g clip-path="url(#frame-clip-4d157af3-8d84-803f-8003-6eef64fc54ac-rumext-id-1)" fill="none"><clipPath class="frame-clip-def frame-clip" id="frame-clip-4d157af3-8d84-803f-8003-6eef64fc54ac-rumext-id-1"><rect rx="0" ry="0" x="0" y="0" width="40" height="40" transform="matrix(1.000000, 0.000000, 0.000000, 1.000000, 0.000000, 0.000000)"/></clipPath><g class="fills" id="fills-4d157af3-8d84-803f-8003-6eef64fc54ac"><rect rx="0" ry="0" x="0" y="0" transform="matrix(1.000000, 0.000000, 0.000000, 1.000000, 0.000000, 0.000000)" width="40" height="40" class="frame-background"/></g><g class="frame-children"><g id="shape-d0471a84-a346-8079-8003-6ed77f239b2f"><g class="fills" id="fills-d0471a84-a346-8079-8003-6ed77f239b2f"><path rx="0" ry="0" d="M2.500,7.500C2.500,4.740,4.740,2.500,7.500,2.500L32.500,2.500C35.260,2.500,37.500,4.740,37.500,7.500L37.500,23.210L37.500,32.500C37.500,35.260,35.260,37.500,32.500,37.500L7.500,37.500C4.740,37.500,2.500,35.260,2.500,32.500L2.500,29.385L2.500,7.500ZM37.500,23.210C35.518,19.495,32.857,16.268,29.735,16.828C24.986,17.681,20.937,30.294,15.282,31.752C9.867,33.148,5.281,31.169,2.500,29.385"/></g><g id="strokes-d0471a84-a346-8079-8003-6ed77f239b2f" class="strokes"><g class="stroke-shape"><path rx="0" ry="0" d="M2.500,7.500C2.500,4.740,4.740,2.500,7.500,2.500L32.500,2.500C35.260,2.500,37.500,4.740,37.500,7.500L37.500,23.210L37.500,32.500C37.500,35.260,35.260,37.500,32.500,37.500L7.500,37.500C4.740,37.500,2.500,35.260,2.500,32.500L2.500,29.385L2.500,7.500ZM37.500,23.210C35.518,19.495,32.857,16.268,29.735,16.828C24.986,17.681,20.937,30.294,15.282,31.752C9.867,33.148,5.281,31.169,2.500,29.385" style="fill: none; stroke-width: 4; stroke: rgb(249, 250, 243); stroke-opacity: 1;"/></g></g></g><g id="shape-d0471a84-a346-8079-8003-6ed7e78dacf9" rx="0" ry="0"><g id="shape-d0471a84-a346-8079-8003-6ed7e78dacfa"><g class="fills" id="fills-d0471a84-a346-8079-8003-6ed7e78dacfa"><ellipse rx="4.823680448237312" ry="4.818603437747669" cx="14.384707947840994" cy="14.416987848339915" transform="matrix(0.967846, -0.251545, 0.251545, 0.967846, -3.163988, 4.081968)"/></g><g id="strokes-d0471a84-a346-8079-8003-6ed7e78dacfa" class="strokes"><g class="inner-stroke-shape" transform="matrix(0.967846, -0.251545, 0.251545, 0.967846, -3.163988, 4.081968)"><defs><clipPath id="inner-stroke-rumext-id-4-d0471a84-a346-8079-8003-6ed7e78dacfa-0"><use href="#stroke-shape-rumext-id-4-d0471a84-a346-8079-8003-6ed7e78dacfa-0"/></clipPath><ellipse rx="4.823680448237312" ry="4.818603437747669" cx="14.384707947840994" cy="14.416987848339915" id="stroke-shape-rumext-id-4-d0471a84-a346-8079-8003-6ed7e78dacfa-0" style="fill: none; stroke-width: 4; stroke: rgb(249, 250, 243); stroke-opacity: 1;"/></defs><use href="#stroke-shape-rumext-id-4-d0471a84-a346-8079-8003-6ed7e78dacfa-0" clip-path="url('#inner-stroke-rumext-id-4-d0471a84-a346-8079-8003-6ed7e78dacfa-0')"/></g></g></g><g id="shape-d0471a84-a346-8079-8003-6ed7e78dacfb"><g class="fills" id="fills-d0471a84-a346-8079-8003-6ed7e78dacfb"><path rx="0" ry="0" d="M22.526,18.915C22.069,19.742,21.483,20.505,20.776,21.170C19.995,20.734,19.031,20.690,18.219,21.155C17.415,21.614,16.960,22.457,16.947,23.330C16.028,23.608,15.028,23.724,14.042,23.682C13.827,22.860,13.182,22.172,12.302,21.923C11.422,21.674,10.524,21.927,9.908,22.509C9.129,22.086,8.389,21.522,7.741,20.846C8.156,20.043,8.206,19.042,7.731,18.197C7.261,17.362,6.397,16.893,5.512,16.896C5.249,16.026,5.138,15.065,5.173,14.115C5.975,13.911,6.707,13.252,6.956,12.327C7.194,11.445,6.934,10.539,6.348,9.913C6.801,9.104,7.415,8.316,8.157,7.634C8.935,8.008,9.847,8.027,10.622,7.584C11.368,7.157,11.814,6.400,11.884,5.593C12.783,5.285,13.738,5.168,14.682,5.194C15.015,5.945,15.650,6.607,16.509,6.849C17.357,7.089,18.222,6.863,18.835,6.324C19.663,6.753,20.421,7.322,21.085,8.009C20.701,8.758,20.650,9.759,21.126,10.604C21.591,11.430,22.440,11.898,23.314,11.906C23.595,12.819,23.709,13.772,23.679,14.714C22.789,14.940,22.057,15.600,21.808,16.524C21.559,17.448,21.857,18.399,22.503,19.025"/></g><g id="strokes-d0471a84-a346-8079-8003-6ed7e78dacfb" class="strokes"><g class="inner-stroke-shape"><defs><clipPath id="inner-stroke-rumext-id-5-d0471a84-a346-8079-8003-6ed7e78dacfb-0"><use href="#stroke-shape-rumext-id-5-d0471a84-a346-8079-8003-6ed7e78dacfb-0"/></clipPath><path rx="0" ry="0" d="M22.526,18.915C22.069,19.742,21.483,20.505,20.776,21.170C19.995,20.734,19.031,20.690,18.219,21.155C17.415,21.614,16.960,22.457,16.947,23.330C16.028,23.608,15.028,23.724,14.042,23.682C13.827,22.860,13.182,22.172,12.302,21.923C11.422,21.674,10.524,21.927,9.908,22.509C9.129,22.086,8.389,21.522,7.741,20.846C8.156,20.043,8.206,19.042,7.731,18.197C7.261,17.362,6.397,16.893,5.512,16.896C5.249,16.026,5.138,15.065,5.173,14.115C5.975,13.911,6.707,13.252,6.956,12.327C7.194,11.445,6.934,10.539,6.348,9.913C6.801,9.104,7.415,8.316,8.157,7.634C8.935,8.008,9.847,8.027,10.622,7.584C11.368,7.157,11.814,6.400,11.884,5.593C12.783,5.285,13.738,5.168,14.682,5.194C15.015,5.945,15.650,6.607,16.509,6.849C17.357,7.089,18.222,6.863,18.835,6.324C19.663,6.753,20.421,7.322,21.085,8.009C20.701,8.758,20.650,9.759,21.126,10.604C21.591,11.430,22.440,11.898,23.314,11.906C23.595,12.819,23.709,13.772,23.679,14.714C22.789,14.940,22.057,15.600,21.808,16.524C21.559,17.448,21.857,18.399,22.503,19.025" id="stroke-shape-rumext-id-5-d0471a84-a346-8079-8003-6ed7e78dacfb-0" style="fill: none; stroke-width: 4; stroke: rgb(249, 250, 243); stroke-opacity: 1;"/></defs><use href="#stroke-shape-rumext-id-5-d0471a84-a346-8079-8003-6ed7e78dacfb-0" clip-path="url('#inner-stroke-rumext-id-5-d0471a84-a346-8079-8003-6ed7e78dacfb-0')"/></g></g></g></g></g></g></g></svg>