<svg xmlns:xlink="http://www.w3.org/1999/xlink" width="30" xmlns="http://www.w3.org/2000/svg" height="30" id="screenshot-4d157af3-8d84-803f-8003-6eef64fc54ac" viewBox="0 0 30 30" style="-webkit-print-color-adjust: exact;" fill="none" version="1.1"><g id="shape-4d157af3-8d84-803f-8003-6eef64fc54ac"><defs><clipPath class="frame-clip-def frame-clip" id="frame-clip-4d157af3-8d84-803f-8003-6eef64fc54ac-rumext-id-1"><rect rx="0" ry="0" x="0" y="0" width="30" height="30" transform="matrix(1.000000, 0.000000, 0.000000, 1.000000, 0.000000, 0.000000)"/></clipPath></defs><g clip-path="url(#frame-clip-4d157af3-8d84-803f-8003-6eef64fc54ac-rumext-id-1)" fill="none"><clipPath class="frame-clip-def frame-clip" id="frame-clip-4d157af3-8d84-803f-8003-6eef64fc54ac-rumext-id-1"><rect rx="0" ry="0" x="0" y="0" width="30" height="30" transform="matrix(1.000000, 0.000000, 0.000000, 1.000000, 0.000000, 0.000000)"/></clipPath><g class="fills" id="fills-4d157af3-8d84-803f-8003-6eef64fc54ac"><rect rx="0" ry="0" x="0" y="0" transform="matrix(1.000000, 0.000000, 0.000000, 1.000000, 0.000000, 0.000000)" width="30" height="30" class="frame-background"/></g><g class="frame-children"><g id="shape-d0471a84-a346-8079-8003-6ed77f239b2f"><g class="fills" id="fills-d0471a84-a346-8079-8003-6ed77f239b2f"><path rx="0" ry="0" d="M1.500,8.000C1.500,6.896,2.396,6.000,3.500,6.000L27.000,6.000C28.104,6.000,29.000,6.896,29.000,8.000L29.000,16.947L29.000,22.500C29.000,23.604,28.104,24.500,27.000,24.500L3.500,24.500C2.396,24.500,1.500,23.604,1.500,22.500L1.500,20.211L1.500,8.000ZM29.000,16.947C27.443,14.983,25.352,13.277,22.899,13.574C19.167,14.024,15.986,20.691,11.543,21.462C7.288,22.200,3.685,21.154,1.500,20.211"/></g><g id="strokes-d0471a84-a346-8079-8003-6ed77f239b2f" class="strokes"><g class="stroke-shape"><path rx="0" ry="0" d="M1.500,8.000C1.500,6.896,2.396,6.000,3.500,6.000L27.000,6.000C28.104,6.000,29.000,6.896,29.000,8.000L29.000,16.947L29.000,22.500C29.000,23.604,28.104,24.500,27.000,24.500L3.500,24.500C2.396,24.500,1.500,23.604,1.500,22.500L1.500,20.211L1.500,8.000ZM29.000,16.947C27.443,14.983,25.352,13.277,22.899,13.574C19.167,14.024,15.986,20.691,11.543,21.462C7.288,22.200,3.685,21.154,1.500,20.211" style="fill: none; stroke-width: 1; stroke: rgb(27, 27, 27); stroke-opacity: 1;"/></g></g></g><g id="shape-d0471a84-a346-8079-8003-6ed7e78dacf9" rx="0" ry="0"><g id="shape-d0471a84-a346-8079-8003-6ed7e78dacfa"><g class="fills" id="fills-d0471a84-a346-8079-8003-6ed7e78dacfa"><ellipse rx="3.0709157136105603" ry="3.066731735077873" cx="9.5190996990423" cy="14.038445887434186" transform="matrix(0.967846, -0.251545, 0.251545, 0.967846, -3.225218, 2.845877)"/></g><g id="strokes-d0471a84-a346-8079-8003-6ed7e78dacfa" class="strokes"><g class="inner-stroke-shape" transform="matrix(0.967846, -0.251545, 0.251545, 0.967846, -3.225218, 2.845877)"><defs><clipPath id="inner-stroke-rumext-id-4-d0471a84-a346-8079-8003-6ed7e78dacfa-0"><use href="#stroke-shape-rumext-id-4-d0471a84-a346-8079-8003-6ed7e78dacfa-0"/></clipPath><ellipse rx="3.0709157136105603" ry="3.066731735077873" cx="9.5190996990423" cy="14.038445887434186" id="stroke-shape-rumext-id-4-d0471a84-a346-8079-8003-6ed7e78dacfa-0" style="fill: none; stroke-width: 2; stroke: rgb(27, 27, 27); stroke-opacity: 1;"/></defs><use href="#stroke-shape-rumext-id-4-d0471a84-a346-8079-8003-6ed7e78dacfa-0" clip-path="url('#inner-stroke-rumext-id-4-d0471a84-a346-8079-8003-6ed7e78dacfa-0')"/></g></g></g><g id="shape-d0471a84-a346-8079-8003-6ed7e78dacfb"><g class="fills" id="fills-d0471a84-a346-8079-8003-6ed7e78dacfb"><path rx="0" ry="0" d="M11.960,18.327C11.454,18.616,11.165,19.143,11.150,19.692C10.604,19.881,9.972,19.958,9.348,19.937C9.163,19.412,8.753,18.974,8.193,18.816C7.633,18.658,7.061,18.818,6.669,19.189C6.209,18.947,5.721,18.579,5.293,18.135C5.553,17.620,5.585,16.983,5.283,16.445C4.984,15.913,4.434,15.615,3.870,15.617C3.703,15.063,3.632,14.451,3.655,13.847C4.166,13.717,4.631,13.297,4.790,12.709C4.942,12.147,4.776,11.571,4.403,11.172C4.692,10.658,5.082,10.156,5.555,9.722C6.050,9.960,6.630,9.972,7.124,9.690C7.605,9.415,7.890,8.924,7.929,8.403C8.467,8.230,9.091,8.151,9.709,8.169C9.941,8.667,10.338,9.071,10.872,9.222C11.405,9.373,11.949,9.234,12.338,8.900C12.841,9.132,13.345,9.505,13.785,9.960C13.540,10.437,13.508,11.074,13.811,11.611C14.107,12.137,14.647,12.435,15.204,12.440C15.375,12.992,15.450,13.581,15.438,14.165C14.869,14.371,14.404,14.791,14.245,15.379C14.086,15.967,14.276,16.572,14.687,16.971C14.404,17.431,14.056,17.885,13.641,18.286C13.119,18.060,12.489,18.024,11.960,18.327Z"/></g><g id="strokes-d0471a84-a346-8079-8003-6ed7e78dacfb" class="strokes"><g class="inner-stroke-shape"><defs><clipPath id="inner-stroke-rumext-id-5-d0471a84-a346-8079-8003-6ed7e78dacfb-0"><use href="#stroke-shape-rumext-id-5-d0471a84-a346-8079-8003-6ed7e78dacfb-0"/></clipPath><path rx="0" ry="0" d="M11.960,18.327C11.454,18.616,11.165,19.143,11.150,19.692C10.604,19.881,9.972,19.958,9.348,19.937C9.163,19.412,8.753,18.974,8.193,18.816C7.633,18.658,7.061,18.818,6.669,19.189C6.209,18.947,5.721,18.579,5.293,18.135C5.553,17.620,5.585,16.983,5.283,16.445C4.984,15.913,4.434,15.615,3.870,15.617C3.703,15.063,3.632,14.451,3.655,13.847C4.166,13.717,4.631,13.297,4.790,12.709C4.942,12.147,4.776,11.571,4.403,11.172C4.692,10.658,5.082,10.156,5.555,9.722C6.050,9.960,6.630,9.972,7.124,9.690C7.605,9.415,7.890,8.924,7.929,8.403C8.467,8.230,9.091,8.151,9.709,8.169C9.941,8.667,10.338,9.071,10.872,9.222C11.405,9.373,11.949,9.234,12.338,8.900C12.841,9.132,13.345,9.505,13.785,9.960C13.540,10.437,13.508,11.074,13.811,11.611C14.107,12.137,14.647,12.435,15.204,12.440C15.375,12.992,15.450,13.581,15.438,14.165C14.869,14.371,14.404,14.791,14.245,15.379C14.086,15.967,14.276,16.572,14.687,16.971C14.404,17.431,14.056,17.885,13.641,18.286C13.119,18.060,12.489,18.024,11.960,18.327Z" id="stroke-shape-rumext-id-5-d0471a84-a346-8079-8003-6ed7e78dacfb-0" style="fill: none; stroke-width: 2; stroke: rgb(27, 27, 27); stroke-opacity: 1;"/></defs><use href="#stroke-shape-rumext-id-5-d0471a84-a346-8079-8003-6ed7e78dacfb-0" clip-path="url('#inner-stroke-rumext-id-5-d0471a84-a346-8079-8003-6ed7e78dacfb-0')"/></g></g></g></g></g></g></g></svg>