<svg viewBox="0 0 1080 1080" xmlns="http://www.w3.org/2000/svg">
  <defs>
    <style>
      /* Base resting state: crisp vector logo is fully visible, all pixel stages hidden */
      .stage-4,
      .stage-8,
      .stage-16,
      .stage-32 {
        opacity: 0;
        shape-rendering: crispEdges;
      }

      .stage-crisp {
        opacity: 1;
        shape-rendering: geometricPrecision;
      }

      /* Step 1: 4x4 Grid (0% to 25%, 0ms to 250ms) */
      @keyframes anim4 {
        0%, 24% { opacity: 1; }
        25%, 100% { opacity: 0; }
      }

      /* Step 2: 8x8 Grid (25% to 50%, 250ms to 500ms) */
      @keyframes anim8 {
        0%, 24% { opacity: 0; }
        25%, 49% { opacity: 1; }
        50%, 100% { opacity: 0; }
      }

      /* Step 3: 16x16 Grid (50% to 75%, 500ms to 750ms) */
      @keyframes anim16 {
        0%, 49% { opacity: 0; }
        50%, 74% { opacity: 1; }
        75%, 100% { opacity: 0; }
      }

      /* Step 4: 32x32 Grid (75% to 90%, 750ms to 900ms) */
      @keyframes anim32 {
        0%, 74% { opacity: 0; }
        75%, 89% { opacity: 1; }
        90%, 100% { opacity: 0; }
      }

      /* Step 5: Perfectly Crisp Official Vector Logo (90% to 100%, 900ms to 1000ms and holds) */
      @keyframes animCrisp {
        0%, 89% { opacity: 0; }
        90%, 100% { opacity: 1; }
      }

      .stage-4 {
        animation: anim4 1s steps(1) 1 forwards;
      }

      .stage-8 {
        animation: anim8 1s steps(1) 1 forwards;
      }

      .stage-16 {
        animation: anim16 1s steps(1) 1 forwards;
      }

      .stage-32 {
        animation: anim32 1s steps(1) 1 forwards;
      }

      .stage-crisp {
        animation: animCrisp 1s steps(1) 1 forwards;
      }

      @media (prefers-reduced-motion: reduce) {
        .stage-4,
        .stage-8,
        .stage-16,
        .stage-32 {
          display: none !important;
          animation: none !important;
        }
        .stage-crisp {
          opacity: 1 !important;
          animation: none !important;
        }
      }
    </style>
  </defs>

  <!-- Step 1: 4x4 Grid (Initial State) -->
  <path class="stage-4" d="M270,0h270v270h-270z M540,0h270v270h-270z M0,270h270v270h-270z M270,270h270v270h-270z M810,270h270v270h-270z M0,540h270v270h-270z M540,540h270v270h-270z M810,540h270v270h-270z M270,810h270v270h-270z M540,810h270v270h-270z" fill="#ffffff" />

  <!-- Step 2: 8x8 Grid -->
  <path class="stage-8" d="M405,0h135v135h-135z M540,0h135v135h-135z M135,135h135v135h-135z M270,135h135v135h-135z M405,135h135v135h-135z M540,135h135v135h-135z M675,135h135v135h-135z M810,135h135v135h-135z M135,270h135v135h-135z M270,270h135v135h-135z M405,270h135v135h-135z M810,270h135v135h-135z M0,405h135v135h-135z M135,405h135v135h-135z M405,405h135v135h-135z M540,405h135v135h-135z M810,405h135v135h-135z M945,405h135v135h-135z M0,540h135v135h-135z M135,540h135v135h-135z M405,540h135v135h-135z M540,540h135v135h-135z M810,540h135v135h-135z M945,540h135v135h-135z M135,675h135v135h-135z M540,675h135v135h-135z M675,675h135v135h-135z M810,675h135v135h-135z M135,810h135v135h-135z M270,810h135v135h-135z M405,810h135v135h-135z M540,810h135v135h-135z M675,810h135v135h-135z M810,810h135v135h-135z M405,945h135v135h-135z M540,945h135v135h-135z" fill="#ffffff" />

  <!-- Step 3: 16x16 Grid -->
  <path class="stage-16" d="M405,0h67.5v67.5h-67.5z M472.5,0h67.5v67.5h-67.5z M540,0h67.5v67.5h-67.5z M607.5,0h67.5v67.5h-67.5z M202.5,67.5h67.5v67.5h-67.5z M337.5,67.5h67.5v67.5h-67.5z M405,67.5h67.5v67.5h-67.5z M472.5,67.5h67.5v67.5h-67.5z M540,67.5h67.5v67.5h-67.5z M607.5,67.5h67.5v67.5h-67.5z M675,67.5h67.5v67.5h-67.5z M810,67.5h67.5v67.5h-67.5z M135,135h67.5v67.5h-67.5z M202.5,135h67.5v67.5h-67.5z M270,135h67.5v67.5h-67.5z M337.5,135h67.5v67.5h-67.5z M405,135h67.5v67.5h-67.5z M472.5,135h67.5v67.5h-67.5z M540,135h67.5v67.5h-67.5z M607.5,135h67.5v67.5h-67.5z M675,135h67.5v67.5h-67.5z M742.5,135h67.5v67.5h-67.5z M810,135h67.5v67.5h-67.5z M877.5,135h67.5v67.5h-67.5z M67.5,202.5h67.5v67.5h-67.5z M135,202.5h67.5v67.5h-67.5z M202.5,202.5h67.5v67.5h-67.5z M607.5,202.5h67.5v67.5h-67.5z M675,202.5h67.5v67.5h-67.5z M742.5,202.5h67.5v67.5h-67.5z M810,202.5h67.5v67.5h-67.5z M877.5,202.5h67.5v67.5h-67.5z M945,202.5h67.5v67.5h-67.5z M135,270h67.5v67.5h-67.5z M202.5,270h67.5v67.5h-67.5z M270,270h67.5v67.5h-67.5z M337.5,270h67.5v67.5h-67.5z M405,270h67.5v67.5h-67.5z M472.5,270h67.5v67.5h-67.5z M742.5,270h67.5v67.5h-67.5z M810,270h67.5v67.5h-67.5z M877.5,270h67.5v67.5h-67.5z M67.5,337.5h67.5v67.5h-67.5z M135,337.5h67.5v67.5h-67.5z M202.5,337.5h67.5v67.5h-67.5z M270,337.5h67.5v67.5h-67.5z M337.5,337.5h67.5v67.5h-67.5z M405,337.5h67.5v67.5h-67.5z M472.5,337.5h67.5v67.5h-67.5z M540,337.5h67.5v67.5h-67.5z M810,337.5h67.5v67.5h-67.5z M877.5,337.5h67.5v67.5h-67.5z M945,337.5h67.5v67.5h-67.5z M0,405h67.5v67.5h-67.5z M67.5,405h67.5v67.5h-67.5z M135,405h67.5v67.5h-67.5z M202.5,405h67.5v67.5h-67.5z M270,405h67.5v67.5h-67.5z M337.5,405h67.5v67.5h-67.5z M405,405h67.5v67.5h-67.5z M472.5,405h67.5v67.5h-67.5z M540,405h67.5v67.5h-67.5z M810,405h67.5v67.5h-67.5z M877.5,405h67.5v67.5h-67.5z M945,405h67.5v67.5h-67.5z M1012.5,405h67.5v67.5h-67.5z M0,472.5h67.5v67.5h-67.5z M67.5,472.5h67.5v67.5h-67.5z M135,472.5h67.5v67.5h-67.5z M405,472.5h67.5v67.5h-67.5z M472.5,472.5h67.5v67.5h-67.5z M540,472.5h67.5v67.5h-67.5z M877.5,472.5h67.5v67.5h-67.5z M945,472.5h67.5v67.5h-67.5z M1012.5,472.5h67.5v67.5h-67.5z M0,540h67.5v67.5h-67.5z M67.5,540h67.5v67.5h-67.5z M135,540h67.5v67.5h-67.5z M472.5,540h67.5v67.5h-67.5z M540,540h67.5v67.5h-67.5z M607.5,540h67.5v67.5h-67.5z M877.5,540h67.5v67.5h-67.5z M945,540h67.5v67.5h-67.5z M1012.5,540h67.5v67.5h-67.5z M0,607.5h67.5v67.5h-67.5z M67.5,607.5h67.5v67.5h-67.5z M135,607.5h67.5v67.5h-67.5z M202.5,607.5h67.5v67.5h-67.5z M472.5,607.5h67.5v67.5h-67.5z M540,607.5h67.5v67.5h-67.5z M607.5,607.5h67.5v67.5h-67.5z M675,607.5h67.5v67.5h-67.5z M742.5,607.5h67.5v67.5h-67.5z M810,607.5h67.5v67.5h-67.5z M877.5,607.5h67.5v67.5h-67.5z M945,607.5h67.5v67.5h-67.5z M1012.5,607.5h67.5v67.5h-67.5z M67.5,675h67.5v67.5h-67.5z M135,675h67.5v67.5h-67.5z M202.5,675h67.5v67.5h-67.5z M472.5,675h67.5v67.5h-67.5z M540,675h67.5v67.5h-67.5z M607.5,675h67.5v67.5h-67.5z M675,675h67.5v67.5h-67.5z M742.5,675h67.5v67.5h-67.5z M810,675h67.5v67.5h-67.5z M877.5,675h67.5v67.5h-67.5z M945,675h67.5v67.5h-67.5z M135,742.5h67.5v67.5h-67.5z M202.5,742.5h67.5v67.5h-67.5z M270,742.5h67.5v67.5h-67.5z M540,742.5h67.5v67.5h-67.5z M607.5,742.5h67.5v67.5h-67.5z M675,742.5h67.5v67.5h-67.5z M742.5,742.5h67.5v67.5h-67.5z M810,742.5h67.5v67.5h-67.5z M877.5,742.5h67.5v67.5h-67.5z M67.5,810h67.5v67.5h-67.5z M135,810h67.5v67.5h-67.5z M202.5,810h67.5v67.5h-67.5z M270,810h67.5v67.5h-67.5z M337.5,810h67.5v67.5h-67.5z M405,810h67.5v67.5h-67.5z M877.5,810h67.5v67.5h-67.5z M945,810h67.5v67.5h-67.5z M135,877.5h67.5v67.5h-67.5z M202.5,877.5h67.5v67.5h-67.5z M270,877.5h67.5v67.5h-67.5z M337.5,877.5h67.5v67.5h-67.5z M405,877.5h67.5v67.5h-67.5z M472.5,877.5h67.5v67.5h-67.5z M540,877.5h67.5v67.5h-67.5z M607.5,877.5h67.5v67.5h-67.5z M675,877.5h67.5v67.5h-67.5z M742.5,877.5h67.5v67.5h-67.5z M810,877.5h67.5v67.5h-67.5z M877.5,877.5h67.5v67.5h-67.5z M202.5,945h67.5v67.5h-67.5z M337.5,945h67.5v67.5h-67.5z M405,945h67.5v67.5h-67.5z M472.5,945h67.5v67.5h-67.5z M540,945h67.5v67.5h-67.5z M607.5,945h67.5v67.5h-67.5z M675,945h67.5v67.5h-67.5z M810,945h67.5v67.5h-67.5z M405,1012.5h67.5v67.5h-67.5z M472.5,1012.5h67.5v67.5h-67.5z M540,1012.5h67.5v67.5h-67.5z M607.5,1012.5h67.5v67.5h-67.5z" fill="#ffffff" />

  <!-- Step 4: 32x32 Grid -->
  <path class="stage-32" d="M438.75,0h33.75v33.75h-33.75z M472.5,0h33.75v33.75h-33.75z M506.25,0h33.75v33.75h-33.75z M540,0h33.75v33.75h-33.75z M573.75,0h33.75v33.75h-33.75z M607.5,0h33.75v33.75h-33.75z M405,33.75h33.75v33.75h-33.75z M438.75,33.75h33.75v33.75h-33.75z M472.5,33.75h33.75v33.75h-33.75z M506.25,33.75h33.75v33.75h-33.75z M540,33.75h33.75v33.75h-33.75z M573.75,33.75h33.75v33.75h-33.75z M607.5,33.75h33.75v33.75h-33.75z M641.25,33.75h33.75v33.75h-33.75z M405,67.5h33.75v33.75h-33.75z M438.75,67.5h33.75v33.75h-33.75z M472.5,67.5h33.75v33.75h-33.75z M506.25,67.5h33.75v33.75h-33.75z M540,67.5h33.75v33.75h-33.75z M573.75,67.5h33.75v33.75h-33.75z M607.5,67.5h33.75v33.75h-33.75z M641.25,67.5h33.75v33.75h-33.75z M202.5,101.25h33.75v33.75h-33.75z M236.25,101.25h33.75v33.75h-33.75z M270,101.25h33.75v33.75h-33.75z M303.75,101.25h33.75v33.75h-33.75z M337.5,101.25h33.75v33.75h-33.75z M371.25,101.25h33.75v33.75h-33.75z M405,101.25h33.75v33.75h-33.75z M438.75,101.25h33.75v33.75h-33.75z M472.5,101.25h33.75v33.75h-33.75z M506.25,101.25h33.75v33.75h-33.75z M540,101.25h33.75v33.75h-33.75z M573.75,101.25h33.75v33.75h-33.75z M607.5,101.25h33.75v33.75h-33.75z M641.25,101.25h33.75v33.75h-33.75z M675,101.25h33.75v33.75h-33.75z M708.75,101.25h33.75v33.75h-33.75z M742.5,101.25h33.75v33.75h-33.75z M776.25,101.25h33.75v33.75h-33.75z M810,101.25h33.75v33.75h-33.75z M843.75,101.25h33.75v33.75h-33.75z M168.75,135h33.75v33.75h-33.75z M202.5,135h33.75v33.75h-33.75z M236.25,135h33.75v33.75h-33.75z M270,135h33.75v33.75h-33.75z M303.75,135h33.75v33.75h-33.75z M337.5,135h33.75v33.75h-33.75z M371.25,135h33.75v33.75h-33.75z M405,135h33.75v33.75h-33.75z M438.75,135h33.75v33.75h-33.75z M472.5,135h33.75v33.75h-33.75z M506.25,135h33.75v33.75h-33.75z M540,135h33.75v33.75h-33.75z M573.75,135h33.75v33.75h-33.75z M607.5,135h33.75v33.75h-33.75z M641.25,135h33.75v33.75h-33.75z M675,135h33.75v33.75h-33.75z M708.75,135h33.75v33.75h-33.75z M742.5,135h33.75v33.75h-33.75z M776.25,135h33.75v33.75h-33.75z M810,135h33.75v33.75h-33.75z M843.75,135h33.75v33.75h-33.75z M877.5,135h33.75v33.75h-33.75z M135,168.75h33.75v33.75h-33.75z M168.75,168.75h33.75v33.75h-33.75z M202.5,168.75h33.75v33.75h-33.75z M236.25,168.75h33.75v33.75h-33.75z M270,168.75h33.75v33.75h-33.75z M303.75,168.75h33.75v33.75h-33.75z M337.5,168.75h33.75v33.75h-33.75z M371.25,168.75h33.75v33.75h-33.75z M405,168.75h33.75v33.75h-33.75z M438.75,168.75h33.75v33.75h-33.75z M472.5,168.75h33.75v33.75h-33.75z M506.25,168.75h33.75v33.75h-33.75z M540,168.75h33.75v33.75h-33.75z M573.75,168.75h33.75v33.75h-33.75z M607.5,168.75h33.75v33.75h-33.75z M641.25,168.75h33.75v33.75h-33.75z M675,168.75h33.75v33.75h-33.75z M708.75,168.75h33.75v33.75h-33.75z M742.5,168.75h33.75v33.75h-33.75z M776.25,168.75h33.75v33.75h-33.75z M810,168.75h33.75v33.75h-33.75z M843.75,168.75h33.75v33.75h-33.75z M877.5,168.75h33.75v33.75h-33.75z M911.25,168.75h33.75v33.75h-33.75z M101.25,202.5h33.75v33.75h-33.75z M135,202.5h33.75v33.75h-33.75z M168.75,202.5h33.75v33.75h-33.75z M202.5,202.5h33.75v33.75h-33.75z M236.25,202.5h33.75v33.75h-33.75z M270,202.5h33.75v33.75h-33.75z M405,202.5h33.75v33.75h-33.75z M438.75,202.5h33.75v33.75h-33.75z M472.5,202.5h33.75v33.75h-33.75z M506.25,202.5h33.75v33.75h-33.75z M540,202.5h33.75v33.75h-33.75z M573.75,202.5h33.75v33.75h-33.75z M607.5,202.5h33.75v33.75h-33.75z M641.25,202.5h33.75v33.75h-33.75z M675,202.5h33.75v33.75h-33.75z M708.75,202.5h33.75v33.75h-33.75z M742.5,202.5h33.75v33.75h-33.75z M776.25,202.5h33.75v33.75h-33.75z M810,202.5h33.75v33.75h-33.75z M843.75,202.5h33.75v33.75h-33.75z M877.5,202.5h33.75v33.75h-33.75z M911.25,202.5h33.75v33.75h-33.75z M945,202.5h33.75v33.75h-33.75z M101.25,236.25h33.75v33.75h-33.75z M135,236.25h33.75v33.75h-33.75z M270,236.25h33.75v33.75h-33.75z M303.75,236.25h33.75v33.75h-33.75z M337.5,236.25h33.75v33.75h-33.75z M371.25,236.25h33.75v33.75h-33.75z M675,236.25h33.75v33.75h-33.75z M708.75,236.25h33.75v33.75h-33.75z M742.5,236.25h33.75v33.75h-33.75z M776.25,236.25h33.75v33.75h-33.75z M810,236.25h33.75v33.75h-33.75z M843.75,236.25h33.75v33.75h-33.75z M877.5,236.25h33.75v33.75h-33.75z M911.25,236.25h33.75v33.75h-33.75z M945,236.25h33.75v33.75h-33.75z M202.5,270h33.75v33.75h-33.75z M236.25,270h33.75v33.75h-33.75z M270,270h33.75v33.75h-33.75z M303.75,270h33.75v33.75h-33.75z M337.5,270h33.75v33.75h-33.75z M371.25,270h33.75v33.75h-33.75z M405,270h33.75v33.75h-33.75z M438.75,270h33.75v33.75h-33.75z M472.5,270h33.75v33.75h-33.75z M742.5,270h33.75v33.75h-33.75z M776.25,270h33.75v33.75h-33.75z M810,270h33.75v33.75h-33.75z M843.75,270h33.75v33.75h-33.75z M877.5,270h33.75v33.75h-33.75z M911.25,270h33.75v33.75h-33.75z M945,270h33.75v33.75h-33.75z M135,303.75h33.75v33.75h-33.75z M168.75,303.75h33.75v33.75h-33.75z M202.5,303.75h33.75v33.75h-33.75z M236.25,303.75h33.75v33.75h-33.75z M270,303.75h33.75v33.75h-33.75z M303.75,303.75h33.75v33.75h-33.75z M337.5,303.75h33.75v33.75h-33.75z M371.25,303.75h33.75v33.75h-33.75z M405,303.75h33.75v33.75h-33.75z M438.75,303.75h33.75v33.75h-33.75z M472.5,303.75h33.75v33.75h-33.75z M506.25,303.75h33.75v33.75h-33.75z M776.25,303.75h33.75v33.75h-33.75z M810,303.75h33.75v33.75h-33.75z M843.75,303.75h33.75v33.75h-33.75z M877.5,303.75h33.75v33.75h-33.75z M911.25,303.75h33.75v33.75h-33.75z M945,303.75h33.75v33.75h-33.75z M101.25,337.5h33.75v33.75h-33.75z M135,337.5h33.75v33.75h-33.75z M168.75,337.5h33.75v33.75h-33.75z M202.5,337.5h33.75v33.75h-33.75z M236.25,337.5h33.75v33.75h-33.75z M270,337.5h33.75v33.75h-33.75z M303.75,337.5h33.75v33.75h-33.75z M337.5,337.5h33.75v33.75h-33.75z M371.25,337.5h33.75v33.75h-33.75z M405,337.5h33.75v33.75h-33.75z M438.75,337.5h33.75v33.75h-33.75z M472.5,337.5h33.75v33.75h-33.75z M506.25,337.5h33.75v33.75h-33.75z M540,337.5h33.75v33.75h-33.75z M810,337.5h33.75v33.75h-33.75z M843.75,337.5h33.75v33.75h-33.75z M877.5,337.5h33.75v33.75h-33.75z M911.25,337.5h33.75v33.75h-33.75z M945,337.5h33.75v33.75h-33.75z M101.25,371.25h33.75v33.75h-33.75z M135,371.25h33.75v33.75h-33.75z M168.75,371.25h33.75v33.75h-33.75z M202.5,371.25h33.75v33.75h-33.75z M236.25,371.25h33.75v33.75h-33.75z M270,371.25h33.75v33.75h-33.75z M303.75,371.25h33.75v33.75h-33.75z M337.5,371.25h33.75v33.75h-33.75z M371.25,371.25h33.75v33.75h-33.75z M405,371.25h33.75v33.75h-33.75z M438.75,371.25h33.75v33.75h-33.75z M472.5,371.25h33.75v33.75h-33.75z M506.25,371.25h33.75v33.75h-33.75z M540,371.25h33.75v33.75h-33.75z M573.75,371.25h33.75v33.75h-33.75z M810,371.25h33.75v33.75h-33.75z M843.75,371.25h33.75v33.75h-33.75z M877.5,371.25h33.75v33.75h-33.75z M911.25,371.25h33.75v33.75h-33.75z M945,371.25h33.75v33.75h-33.75z M33.75,405h33.75v33.75h-33.75z M67.5,405h33.75v33.75h-33.75z M101.25,405h33.75v33.75h-33.75z M135,405h33.75v33.75h-33.75z M168.75,405h33.75v33.75h-33.75z M202.5,405h33.75v33.75h-33.75z M236.25,405h33.75v33.75h-33.75z M270,405h33.75v33.75h-33.75z M303.75,405h33.75v33.75h-33.75z M337.5,405h33.75v33.75h-33.75z M371.25,405h33.75v33.75h-33.75z M405,405h33.75v33.75h-33.75z M438.75,405h33.75v33.75h-33.75z M472.5,405h33.75v33.75h-33.75z M506.25,405h33.75v33.75h-33.75z M540,405h33.75v33.75h-33.75z M573.75,405h33.75v33.75h-33.75z M843.75,405h33.75v33.75h-33.75z M877.5,405h33.75v33.75h-33.75z M911.25,405h33.75v33.75h-33.75z M945,405h33.75v33.75h-33.75z M978.75,405h33.75v33.75h-33.75z M1012.5,405h33.75v33.75h-33.75z M0,438.75h33.75v33.75h-33.75z M33.75,438.75h33.75v33.75h-33.75z M67.5,438.75h33.75v33.75h-33.75z M101.25,438.75h33.75v33.75h-33.75z M135,438.75h33.75v33.75h-33.75z M168.75,438.75h33.75v33.75h-33.75z M202.5,438.75h33.75v33.75h-33.75z M236.25,438.75h33.75v33.75h-33.75z M405,438.75h33.75v33.75h-33.75z M438.75,438.75h33.75v33.75h-33.75z M472.5,438.75h33.75v33.75h-33.75z M506.25,438.75h33.75v33.75h-33.75z M540,438.75h33.75v33.75h-33.75z M573.75,438.75h33.75v33.75h-33.75z M843.75,438.75h33.75v33.75h-33.75z M877.5,438.75h33.75v33.75h-33.75z M911.25,438.75h33.75v33.75h-33.75z M945,438.75h33.75v33.75h-33.75z M978.75,438.75h33.75v33.75h-33.75z M1012.5,438.75h33.75v33.75h-33.75z M1046.25,438.75h33.75v33.75h-33.75z M0,472.5h33.75v33.75h-33.75z M33.75,472.5h33.75v33.75h-33.75z M67.5,472.5h33.75v33.75h-33.75z M101.25,472.5h33.75v33.75h-33.75z M135,472.5h33.75v33.75h-33.75z M168.75,472.5h33.75v33.75h-33.75z M202.5,472.5h33.75v33.75h-33.75z M438.75,472.5h33.75v33.75h-33.75z M472.5,472.5h33.75v33.75h-33.75z M506.25,472.5h33.75v33.75h-33.75z M540,472.5h33.75v33.75h-33.75z M573.75,472.5h33.75v33.75h-33.75z M607.5,472.5h33.75v33.75h-33.75z M843.75,472.5h33.75v33.75h-33.75z M877.5,472.5h33.75v33.75h-33.75z M911.25,472.5h33.75v33.75h-33.75z M945,472.5h33.75v33.75h-33.75z M978.75,472.5h33.75v33.75h-33.75z M1012.5,472.5h33.75v33.75h-33.75z M1046.25,472.5h33.75v33.75h-33.75z M0,506.25h33.75v33.75h-33.75z M33.75,506.25h33.75v33.75h-33.75z M67.5,506.25h33.75v33.75h-33.75z M101.25,506.25h33.75v33.75h-33.75z M135,506.25h33.75v33.75h-33.75z M168.75,506.25h33.75v33.75h-33.75z M202.5,506.25h33.75v33.75h-33.75z M438.75,506.25h33.75v33.75h-33.75z M472.5,506.25h33.75v33.75h-33.75z M506.25,506.25h33.75v33.75h-33.75z M540,506.25h33.75v33.75h-33.75z M573.75,506.25h33.75v33.75h-33.75z M607.5,506.25h33.75v33.75h-33.75z M843.75,506.25h33.75v33.75h-33.75z M877.5,506.25h33.75v33.75h-33.75z M911.25,506.25h33.75v33.75h-33.75z M945,506.25h33.75v33.75h-33.75z M978.75,506.25h33.75v33.75h-33.75z M1012.5,506.25h33.75v33.75h-33.75z M1046.25,506.25h33.75v33.75h-33.75z M0,540h33.75v33.75h-33.75z M33.75,540h33.75v33.75h-33.75z M67.5,540h33.75v33.75h-33.75z M101.25,540h33.75v33.75h-33.75z M135,540h33.75v33.75h-33.75z M168.75,540h33.75v33.75h-33.75z M202.5,540h33.75v33.75h-33.75z M438.75,540h33.75v33.75h-33.75z M472.5,540h33.75v33.75h-33.75z M506.25,540h33.75v33.75h-33.75z M540,540h33.75v33.75h-33.75z M573.75,540h33.75v33.75h-33.75z M607.5,540h33.75v33.75h-33.75z M843.75,540h33.75v33.75h-33.75z M877.5,540h33.75v33.75h-33.75z M911.25,540h33.75v33.75h-33.75z M945,540h33.75v33.75h-33.75z M978.75,540h33.75v33.75h-33.75z M1012.5,540h33.75v33.75h-33.75z M1046.25,540h33.75v33.75h-33.75z M0,573.75h33.75v33.75h-33.75z M33.75,573.75h33.75v33.75h-33.75z M67.5,573.75h33.75v33.75h-33.75z M101.25,573.75h33.75v33.75h-33.75z M135,573.75h33.75v33.75h-33.75z M168.75,573.75h33.75v33.75h-33.75z M202.5,573.75h33.75v33.75h-33.75z M438.75,573.75h33.75v33.75h-33.75z M472.5,573.75h33.75v33.75h-33.75z M506.25,573.75h33.75v33.75h-33.75z M540,573.75h33.75v33.75h-33.75z M573.75,573.75h33.75v33.75h-33.75z M607.5,573.75h33.75v33.75h-33.75z M843.75,573.75h33.75v33.75h-33.75z M877.5,573.75h33.75v33.75h-33.75z M911.25,573.75h33.75v33.75h-33.75z M945,573.75h33.75v33.75h-33.75z M978.75,573.75h33.75v33.75h-33.75z M1012.5,573.75h33.75v33.75h-33.75z M1046.25,573.75h33.75v33.75h-33.75z M0,607.5h33.75v33.75h-33.75z M33.75,607.5h33.75v33.75h-33.75z M67.5,607.5h33.75v33.75h-33.75z M101.25,607.5h33.75v33.75h-33.75z M135,607.5h33.75v33.75h-33.75z M168.75,607.5h33.75v33.75h-33.75z M202.5,607.5h33.75v33.75h-33.75z M472.5,607.5h33.75v33.75h-33.75z M506.25,607.5h33.75v33.75h-33.75z M540,607.5h33.75v33.75h-33.75z M573.75,607.5h33.75v33.75h-33.75z M607.5,607.5h33.75v33.75h-33.75z M641.25,607.5h33.75v33.75h-33.75z M810,607.5h33.75v33.75h-33.75z M843.75,607.5h33.75v33.75h-33.75z M877.5,607.5h33.75v33.75h-33.75z M911.25,607.5h33.75v33.75h-33.75z M945,607.5h33.75v33.75h-33.75z M978.75,607.5h33.75v33.75h-33.75z M1012.5,607.5h33.75v33.75h-33.75z M1046.25,607.5h33.75v33.75h-33.75z M33.75,641.25h33.75v33.75h-33.75z M67.5,641.25h33.75v33.75h-33.75z M101.25,641.25h33.75v33.75h-33.75z M135,641.25h33.75v33.75h-33.75z M168.75,641.25h33.75v33.75h-33.75z M202.5,641.25h33.75v33.75h-33.75z M472.5,641.25h33.75v33.75h-33.75z M506.25,641.25h33.75v33.75h-33.75z M540,641.25h33.75v33.75h-33.75z M573.75,641.25h33.75v33.75h-33.75z M607.5,641.25h33.75v33.75h-33.75z M641.25,641.25h33.75v33.75h-33.75z M675,641.25h33.75v33.75h-33.75z M708.75,641.25h33.75v33.75h-33.75z M742.5,641.25h33.75v33.75h-33.75z M776.25,641.25h33.75v33.75h-33.75z M810,641.25h33.75v33.75h-33.75z M843.75,641.25h33.75v33.75h-33.75z M877.5,641.25h33.75v33.75h-33.75z M911.25,641.25h33.75v33.75h-33.75z M945,641.25h33.75v33.75h-33.75z M978.75,641.25h33.75v33.75h-33.75z M1012.5,641.25h33.75v33.75h-33.75z M101.25,675h33.75v33.75h-33.75z M135,675h33.75v33.75h-33.75z M168.75,675h33.75v33.75h-33.75z M202.5,675h33.75v33.75h-33.75z M236.25,675h33.75v33.75h-33.75z M472.5,675h33.75v33.75h-33.75z M506.25,675h33.75v33.75h-33.75z M540,675h33.75v33.75h-33.75z M573.75,675h33.75v33.75h-33.75z M607.5,675h33.75v33.75h-33.75z M641.25,675h33.75v33.75h-33.75z M675,675h33.75v33.75h-33.75z M708.75,675h33.75v33.75h-33.75z M742.5,675h33.75v33.75h-33.75z M776.25,675h33.75v33.75h-33.75z M810,675h33.75v33.75h-33.75z M843.75,675h33.75v33.75h-33.75z M877.5,675h33.75v33.75h-33.75z M911.25,675h33.75v33.75h-33.75z M945,675h33.75v33.75h-33.75z M101.25,708.75h33.75v33.75h-33.75z M135,708.75h33.75v33.75h-33.75z M168.75,708.75h33.75v33.75h-33.75z M202.5,708.75h33.75v33.75h-33.75z M236.25,708.75h33.75v33.75h-33.75z M506.25,708.75h33.75v33.75h-33.75z M540,708.75h33.75v33.75h-33.75z M573.75,708.75h33.75v33.75h-33.75z M607.5,708.75h33.75v33.75h-33.75z M641.25,708.75h33.75v33.75h-33.75z M675,708.75h33.75v33.75h-33.75z M708.75,708.75h33.75v33.75h-33.75z M742.5,708.75h33.75v33.75h-33.75z M776.25,708.75h33.75v33.75h-33.75z M810,708.75h33.75v33.75h-33.75z M843.75,708.75h33.75v33.75h-33.75z M877.5,708.75h33.75v33.75h-33.75z M911.25,708.75h33.75v33.75h-33.75z M945,708.75h33.75v33.75h-33.75z M101.25,742.5h33.75v33.75h-33.75z M135,742.5h33.75v33.75h-33.75z M168.75,742.5h33.75v33.75h-33.75z M202.5,742.5h33.75v33.75h-33.75z M236.25,742.5h33.75v33.75h-33.75z M270,742.5h33.75v33.75h-33.75z M540,742.5h33.75v33.75h-33.75z M573.75,742.5h33.75v33.75h-33.75z M607.5,742.5h33.75v33.75h-33.75z M641.25,742.5h33.75v33.75h-33.75z M675,742.5h33.75v33.75h-33.75z M708.75,742.5h33.75v33.75h-33.75z M742.5,742.5h33.75v33.75h-33.75z M776.25,742.5h33.75v33.75h-33.75z M810,742.5h33.75v33.75h-33.75z M843.75,742.5h33.75v33.75h-33.75z M877.5,742.5h33.75v33.75h-33.75z M911.25,742.5h33.75v33.75h-33.75z M101.25,776.25h33.75v33.75h-33.75z M135,776.25h33.75v33.75h-33.75z M168.75,776.25h33.75v33.75h-33.75z M202.5,776.25h33.75v33.75h-33.75z M236.25,776.25h33.75v33.75h-33.75z M270,776.25h33.75v33.75h-33.75z M303.75,776.25h33.75v33.75h-33.75z M607.5,776.25h33.75v33.75h-33.75z M641.25,776.25h33.75v33.75h-33.75z M675,776.25h33.75v33.75h-33.75z M708.75,776.25h33.75v33.75h-33.75z M742.5,776.25h33.75v33.75h-33.75z M776.25,776.25h33.75v33.75h-33.75z M810,776.25h33.75v33.75h-33.75z M843.75,776.25h33.75v33.75h-33.75z M877.5,776.25h33.75v33.75h-33.75z M101.25,810h33.75v33.75h-33.75z M135,810h33.75v33.75h-33.75z M168.75,810h33.75v33.75h-33.75z M202.5,810h33.75v33.75h-33.75z M236.25,810h33.75v33.75h-33.75z M270,810h33.75v33.75h-33.75z M303.75,810h33.75v33.75h-33.75z M337.5,810h33.75v33.75h-33.75z M371.25,810h33.75v33.75h-33.75z M675,810h33.75v33.75h-33.75z M708.75,810h33.75v33.75h-33.75z M742.5,810h33.75v33.75h-33.75z M776.25,810h33.75v33.75h-33.75z M877.5,810h33.75v33.75h-33.75z M911.25,810h33.75v33.75h-33.75z M945,810h33.75v33.75h-33.75z M101.25,843.75h33.75v33.75h-33.75z M135,843.75h33.75v33.75h-33.75z M168.75,843.75h33.75v33.75h-33.75z M202.5,843.75h33.75v33.75h-33.75z M236.25,843.75h33.75v33.75h-33.75z M270,843.75h33.75v33.75h-33.75z M303.75,843.75h33.75v33.75h-33.75z M337.5,843.75h33.75v33.75h-33.75z M371.25,843.75h33.75v33.75h-33.75z M405,843.75h33.75v33.75h-33.75z M438.75,843.75h33.75v33.75h-33.75z M472.5,843.75h33.75v33.75h-33.75z M506.25,843.75h33.75v33.75h-33.75z M540,843.75h33.75v33.75h-33.75z M573.75,843.75h33.75v33.75h-33.75z M607.5,843.75h33.75v33.75h-33.75z M641.25,843.75h33.75v33.75h-33.75z M675,843.75h33.75v33.75h-33.75z M776.25,843.75h33.75v33.75h-33.75z M810,843.75h33.75v33.75h-33.75z M843.75,843.75h33.75v33.75h-33.75z M877.5,843.75h33.75v33.75h-33.75z M911.25,843.75h33.75v33.75h-33.75z M945,843.75h33.75v33.75h-33.75z M135,877.5h33.75v33.75h-33.75z M168.75,877.5h33.75v33.75h-33.75z M202.5,877.5h33.75v33.75h-33.75z M236.25,877.5h33.75v33.75h-33.75z M270,877.5h33.75v33.75h-33.75z M303.75,877.5h33.75v33.75h-33.75z M337.5,877.5h33.75v33.75h-33.75z M371.25,877.5h33.75v33.75h-33.75z M405,877.5h33.75v33.75h-33.75z M438.75,877.5h33.75v33.75h-33.75z M472.5,877.5h33.75v33.75h-33.75z M506.25,877.5h33.75v33.75h-33.75z M540,877.5h33.75v33.75h-33.75z M573.75,877.5h33.75v33.75h-33.75z M607.5,877.5h33.75v33.75h-33.75z M641.25,877.5h33.75v33.75h-33.75z M675,877.5h33.75v33.75h-33.75z M708.75,877.5h33.75v33.75h-33.75z M742.5,877.5h33.75v33.75h-33.75z M776.25,877.5h33.75v33.75h-33.75z M810,877.5h33.75v33.75h-33.75z M843.75,877.5h33.75v33.75h-33.75z M877.5,877.5h33.75v33.75h-33.75z M911.25,877.5h33.75v33.75h-33.75z M168.75,911.25h33.75v33.75h-33.75z M202.5,911.25h33.75v33.75h-33.75z M236.25,911.25h33.75v33.75h-33.75z M270,911.25h33.75v33.75h-33.75z M303.75,911.25h33.75v33.75h-33.75z M337.5,911.25h33.75v33.75h-33.75z M371.25,911.25h33.75v33.75h-33.75z M405,911.25h33.75v33.75h-33.75z M438.75,911.25h33.75v33.75h-33.75z M472.5,911.25h33.75v33.75h-33.75z M506.25,911.25h33.75v33.75h-33.75z M540,911.25h33.75v33.75h-33.75z M573.75,911.25h33.75v33.75h-33.75z M607.5,911.25h33.75v33.75h-33.75z M641.25,911.25h33.75v33.75h-33.75z M675,911.25h33.75v33.75h-33.75z M708.75,911.25h33.75v33.75h-33.75z M742.5,911.25h33.75v33.75h-33.75z M776.25,911.25h33.75v33.75h-33.75z M810,911.25h33.75v33.75h-33.75z M843.75,911.25h33.75v33.75h-33.75z M877.5,911.25h33.75v33.75h-33.75z M202.5,945h33.75v33.75h-33.75z M236.25,945h33.75v33.75h-33.75z M270,945h33.75v33.75h-33.75z M303.75,945h33.75v33.75h-33.75z M337.5,945h33.75v33.75h-33.75z M371.25,945h33.75v33.75h-33.75z M405,945h33.75v33.75h-33.75z M438.75,945h33.75v33.75h-33.75z M472.5,945h33.75v33.75h-33.75z M506.25,945h33.75v33.75h-33.75z M540,945h33.75v33.75h-33.75z M573.75,945h33.75v33.75h-33.75z M607.5,945h33.75v33.75h-33.75z M641.25,945h33.75v33.75h-33.75z M675,945h33.75v33.75h-33.75z M708.75,945h33.75v33.75h-33.75z M742.5,945h33.75v33.75h-33.75z M776.25,945h33.75v33.75h-33.75z M810,945h33.75v33.75h-33.75z M843.75,945h33.75v33.75h-33.75z M371.25,978.75h33.75v33.75h-33.75z M405,978.75h33.75v33.75h-33.75z M438.75,978.75h33.75v33.75h-33.75z M472.5,978.75h33.75v33.75h-33.75z M506.25,978.75h33.75v33.75h-33.75z M540,978.75h33.75v33.75h-33.75z M573.75,978.75h33.75v33.75h-33.75z M607.5,978.75h33.75v33.75h-33.75z M641.25,978.75h33.75v33.75h-33.75z M675,978.75h33.75v33.75h-33.75z M405,1012.5h33.75v33.75h-33.75z M438.75,1012.5h33.75v33.75h-33.75z M472.5,1012.5h33.75v33.75h-33.75z M506.25,1012.5h33.75v33.75h-33.75z M540,1012.5h33.75v33.75h-33.75z M573.75,1012.5h33.75v33.75h-33.75z M607.5,1012.5h33.75v33.75h-33.75z M641.25,1012.5h33.75v33.75h-33.75z M438.75,1046.25h33.75v33.75h-33.75z M472.5,1046.25h33.75v33.75h-33.75z M506.25,1046.25h33.75v33.75h-33.75z M540,1046.25h33.75v33.75h-33.75z M573.75,1046.25h33.75v33.75h-33.75z M607.5,1046.25h33.75v33.75h-33.75z" fill="#ffffff" />

  <!-- Step 5: Official Crisp Vector Logo -->
  <path class="stage-crisp" d="m1080 454.34v168.58c0 12.38-8.36 23.2-20.35 26.32l-10.25 2.67c-26.02 6.82-47.25 22.27-62.03 42.3 0 .15-.07.23-.22.3-2.48 3.3-4.72 6.75-6.75 10.27-.98 1.43-1.95 2.77-2.78 4.12-.22.3-.37.53-.6.75-3.3 4.57-6.68 9.07-10.28 13.5-1.72 2.17-3.6 4.35-5.4 6.52-1.88 2.18-3.75 4.28-5.63 6.38s-3.83 4.2-5.85 6.22c-1.95 2.1-3.97 4.12-6 6.07-2.03 2.03-4.05 3.98-6.15 5.85-2.1 1.95-4.2 3.83-6.3 5.7-.3.3-.52.53-.82.75-6.15 5.32-12.6 10.42-19.2 15.22-6.9 5.1-13.95 9.82-21.3 14.18-4.87 2.93-9.83 5.7-14.93 8.4-7.95 4.2-16.12 8.02-24.45 11.4-2.33.98-4.65 1.88-6.98 2.77-2.7 1.05-5.4 2.03-8.17 3-2.55.9-5.1 1.73-7.65 2.55-3.08.98-6.15 1.95-9.3 2.77-2.7.75-5.4 1.5-8.1 2.17-8.7 2.18-17.55 3.98-26.55 5.33-5.7.9-11.48 1.58-17.25 2.1-2.4.22-4.8.45-7.2.6-1.27.08-2.55.15-3.9.23-2.33.15-4.65.23-6.97.3-3 .08-6.08.15-9.07.15h-.15c-4.12 0-8.17-.08-12.22-.3-.67 0-1.35 0-2.03-.08-3.37-.15-6.67-.38-9.97-.6-.68-.08-1.43-.15-2.1-.23-2.63-.22-5.25-.45-7.87-.82-.45 0-.83-.08-1.27-.15-1.5-.15-2.93-.38-4.43-.6-3-.37-5.93-.82-8.85-1.35-.37 0-.75-.08-1.12-.15-2.18-.38-4.35-.75-6.52-1.27-2.25-.38-4.43-.83-6.68-1.35-4.8-1.05-9.53-2.18-14.25-3.53-1.95-.52-3.9-1.05-5.85-1.65-2.85-.82-5.7-1.72-8.55-2.7-3.38-1.13-6.75-2.25-10.05-3.52-.3-.08-.6-.23-.82-.3-2.7-1.05-5.4-2.1-8.03-3.15-3.67-1.5-7.27-3.07-10.87-4.72-3.97-1.88-7.95-3.75-11.85-5.78-.37-.15-.67-.38-.97-.53-3.83-1.95-7.5-3.98-11.18-6.15-3.9-2.25-7.72-4.57-11.55-6.98-3.75-2.4-7.5-4.95-11.1-7.5-3.67-2.62-7.27-5.25-10.8-8.02-3.52-2.77-6.97-5.63-10.43-8.48-3.37-2.93-6.67-5.93-9.97-9-1.8-1.65-3.53-3.38-5.25-5.03-1.88-1.8-3.67-3.67-5.47-5.55-6.08-6.3-11.85-12.83-17.33-19.65-5.47-6.75-10.65-13.8-15.52-21.08-3.23-4.87-6.38-9.82-9.3-14.85v-.08c-3.9-6.67-7.57-13.65-11.02-20.7-3.38-7.05-6.45-14.32-9.3-21.67-2.63-6.98-5.02-14.03-7.2-21.23-1.42-4.8-2.7-9.6-3.9-14.47-.52-2.18-.97-4.28-1.5-6.45-.68-3.22-1.35-6.52-1.95-9.75-1.27-7.43-2.33-14.93-3.15-22.43-.22-2.55-.45-5.02-.67-7.57-.15-2.25-.3-4.5-.45-6.75-.23-5.17-.38-10.43-.38-15.68 0-10.95-1.5-21.52-4.42-31.57-2.85-10.05-7.05-19.57-12.37-28.28-4.8-7.95-10.58-15.22-17.1-21.75-20.85-20.92-49.72-33.82-81.52-33.82s-60.75 12.9-81.6 33.82c-5.25 5.25-9.98 10.95-14.1 17.1-3.08 4.57-5.93 9.45-8.32 14.47-1.8 3.75-3.45 7.65-4.87 11.63-.75 2.03-1.35 4.05-1.95 6.07-3.07 10.27-4.65 21.15-4.65 32.32h-.75c0 12.75.75 25.28 2.17 37.58 7.2 62.48 32.25 119.48 69.98 165.98 52.05 64.65 128.7 108.9 215.85 118.5 11.85 1.35 23.85 1.95 36 1.95 29.08 0 57.21-3.82 84.04-11.04 4.51-1.22 9.19-1.09 13.64.35 32.57 10.59 66.91 16.09 101.9 16.09 73.27 0 141.09-24.02 195.86-64.7 12.75-9.47 29.94-6.26 38.28 7.25l13.64 22.1c4.97 8.06 3.76 18.48-2.94 25.17l-122.66 122.66c-8.8 8.8-22.55 9.72-32.75 2.59-19.97-13.97-42.4-20.42-64.47-20.42-14.25 0-28.35 2.63-41.55 7.65-.22.08-.37.15-.52.23-2.18.75-4.27 1.65-6.38 2.55-.15.08-.22.15-.37.15-32.72 14.92-58.77 44.55-65.83 83.8-2.22 12.31-12.38 21.58-24.9 21.58h-170c-12.51 0-22.68-9.26-24.9-21.58-7.06-39.25-33.11-68.87-65.83-83.8-.15 0-.23-.08-.38-.15-2.1-.9-4.2-1.8-6.38-2.55-.15-.08-.3-.15-.52-.23-13.2-5.02-27.3-7.65-41.55-7.65-22.07 0-44.5 6.45-64.47 20.42-10.19 7.13-23.95 6.21-32.74-2.59l-120.13-120.13c-8.8-8.8-9.72-22.55-2.59-32.74 13.97-19.97 20.42-42.4 20.42-64.47 0-12.45-1.95-24.6-5.85-36.3-.6-1.95-1.35-3.9-2.03-5.85-.15-.3-.3-.6-.37-.98-12.68-32.55-39.75-59.4-76.35-69.38-3.25-.85-6.58-1.58-10-2.18-12.16-2.08-21.37-11.98-21.37-24.31v-168.35c0-12.35 8.31-23.16 20.25-26.34l10.5-2.79c25.2-6.6 45.9-21.3 60.6-40.43.15-.22.3-.45.45-.6.22-.23.3-.45.45-.68 2.85-3.83 5.47-7.8 7.87-12 .15-.23.3-.45.37-.6.68-.9 1.28-1.8 1.95-2.7.22-.3.45-.6.6-.9 3.9-5.4 7.95-10.72 12.22-15.82 1.42-1.8 3-3.6 4.5-5.33 1.57-1.8 3.15-3.6 4.65-5.33 1.65-1.72 3.23-3.45 4.8-5.1 1.65-1.65 3.23-3.3 4.87-4.95 1.65-1.65 3.3-3.3 5.03-4.88 5.02-4.88 10.27-9.53 15.67-13.95 1.8-1.5 3.67-2.93 5.47-4.43 3.75-2.92 7.5-5.77 11.4-8.48 1.88-1.35 3.75-2.62 5.63-3.9 1.95-1.35 3.9-2.63 5.85-3.9 3.98-2.48 7.95-4.95 12.08-7.27 2.03-1.2 4.05-2.33 6.15-3.45 2.03-1.13 4.12-2.25 6.23-3.3 2.1-1.05 4.2-2.1 6.3-3.15 4.27-2.03 8.62-3.98 12.97-5.85 2.18-.98 4.35-1.8 6.6-2.7 2.18-.9 4.43-1.72 6.68-2.55 4.13-1.5 8.32-2.92 12.52-4.28.45-.15.9-.3 1.35-.45 4.5-1.35 9-2.62 13.5-3.75 2.25-.6 4.5-1.12 6.75-1.65 1.8-.45 3.6-.82 5.4-1.2 1.8-.45 3.68-.82 5.55-1.12 9.15-1.8 18.52-3.15 27.97-3.98 2.33-.22 4.65-.45 6.97-.6 1.5-.08 3.08-.15 4.58-.23 2.17-.15 4.27-.22 6.52-.3 3-.08 6-.15 9-.15h.22c4.2 0 8.4.08 12.53.3.6 0 1.27 0 1.88.08 7.12.3 14.25.9 21.22 1.8h.08c1.5.15 3 .38 4.5.6 2.92.37 5.85.82 8.77 1.35.37 0 .75.08 1.12.15 7.65 1.35 15.15 2.93 22.57 4.88 3 .75 6 1.57 9 2.47 3.38.98 6.68 2.03 10.05 3.08 6 2.02 12 4.2 17.85 6.6 4.05 1.65 8.02 3.37 11.92 5.18 3.6 1.57 7.13 3.3 10.65 5.18 1.72.82 3.53 1.72 5.17 2.7 1.72.82 3.38 1.72 5.02 2.77 1.95 1.05 3.9 2.1 5.78 3.3 6.53 3.75 12.83 7.8 18.9 12.15 2.03 1.35 3.98 2.77 5.93 4.28 1.2.82 2.48 1.72 3.68 2.77 1.95 1.43 3.82 2.85 5.7 4.42 1.05.75 2.03 1.58 3 2.48 2.17 1.72 4.35 3.53 6.45 5.4 2.63 2.25 5.25 4.57 7.8 6.97 1.72 1.65 3.45 3.3 5.17 5.02 18.52 18.22 34.65 38.85 47.7 61.43 3.53 6.15 6.9 12.45 10.05 18.83 2.33 4.8 4.58 9.67 6.68 14.7 1.57 3.75 3.08 7.5 4.5 11.25 9.83 26.63 15.9 55.05 17.7 84.68v.08c.3 5.63.45 11.33.45 17.02 0 10.95 1.5 21.53 4.42 31.58 2.85 10.05 7.05 19.5 12.38 28.2 4.8 7.95 10.57 15.22 17.1 21.75 20.85 20.93 49.72 33.83 81.6 33.83s60.68-12.9 81.53-33.83c5.25-5.25 9.98-10.95 14.1-17.1 3.08-4.57 5.93-9.45 8.33-14.47 1.8-3.75 3.45-7.65 4.87-11.63.67-2.03 1.35-4.05 1.95-6.08 3.08-10.27 4.65-21.07 4.65-32.25h.75c0-12.67-.75-25.12-2.18-37.42-7.2-62.55-32.25-119.77-69.98-166.27-52.2-64.65-128.7-108.75-215.85-118.35h-.15c-11.7-1.35-23.7-1.95-35.85-1.95-29.09 0-57.28 3.82-84.11 11.04-4.51 1.22-9.19 1.09-13.63-.35-32.51-10.57-66.84-16.02-101.76-16.02-73.31 0-141.12 24.11-195.88 64.76-12.75 9.46-29.93 6.25-38.27-7.27l-13.71-22.23c-4.97-8.06-3.75-18.47 2.94-25.17l122.66-122.66c8.8-8.8 22.55-9.72 32.74-2.59 19.96 13.97 42.4 20.42 64.47 20.42 14.25 0 28.35-2.62 41.55-7.65.22-.08.37-.15.52-.22 2.55-.9 5.02-1.95 7.5-3.08 32.36-14.97 58.07-44.44 65.08-83.4 2.26-12.29 12.42-21.57 24.95-21.57h169.99c12.52 0 22.69 9.28 24.91 21.6 7.01 38.96 32.72 68.43 65.08 83.4 2.48 1.13 4.95 2.18 7.5 3.08.15.08.3.15.52.22 13.2 5.03 27.3 7.65 41.55 7.65 22.07 0 44.5-6.45 64.47-20.42 10.19-7.13 23.95-6.21 32.75 2.59l119.94 119.94c8.89 8.89 9.82 22.78 2.63 33.1-21.66 31.08-24.93 68.19-14.42 100.6.6 1.95 1.35 3.9 2.02 5.78.3.82.68 1.57.98 2.4 12.97 32.1 39.75 58.35 75.9 68.02 3.25.9 6.58 1.65 9.99 2.25 12.05 2.12 21.21 11.9 21.21 24.13z" fill="#ffffff" />
</svg>
