<?xml version="1.0" encoding="UTF-8" standalone="no"?><svg xmlns="http://www.w3.org/2000/svg" id="forum" width="32" height="32" viewBox="0 0 32 32" preserveAspectRatio="xMidYMid meet" rendering="crispEdges"><rect id="5-3" x="4" y="2" width="1" height="1" shape-rendering="crispEdges" ></rect><rect id="6-3" x="5" y="2" width="1" height="1" shape-rendering="crispEdges" ></rect><rect id="7-3" x="6" y="2" width="1" height="1" shape-rendering="crispEdges" ></rect><rect id="8-3" x="7" y="2" width="1" height="1" shape-rendering="crispEdges" ></rect><rect id="9-3" x="8" y="2" width="1" height="1" shape-rendering="crispEdges" ></rect><rect id="10-3" x="9" y="2" width="1" height="1" shape-rendering="crispEdges" ></rect><rect id="11-3" x="10" y="2" width="1" height="1" shape-rendering="crispEdges" ></rect><rect id="12-3" x="11" y="2" width="1" height="1" shape-rendering="crispEdges" ></rect><rect id="13-3" x="12" y="2" width="1" height="1" shape-rendering="crispEdges" ></rect><rect id="14-3" x="13" y="2" width="1" height="1" shape-rendering="crispEdges" ></rect><rect id="15-3" x="14" y="2" width="1" height="1" shape-rendering="crispEdges" ></rect><rect id="16-3" x="15" y="2" width="1" height="1" shape-rendering="crispEdges" ></rect><rect id="17-3" x="16" y="2" width="1" height="1" shape-rendering="crispEdges" ></rect><rect id="18-3" x="17" y="2" width="1" height="1" shape-rendering="crispEdges" ></rect><rect id="19-3" x="18" y="2" width="1" height="1" shape-rendering="crispEdges" ></rect><rect id="20-3" x="19" y="2" width="1" height="1" shape-rendering="crispEdges" ></rect><rect id="21-3" x="20" y="2" width="1" height="1" shape-rendering="crispEdges" ></rect><rect id="22-3" x="21" y="2" width="1" height="1" shape-rendering="crispEdges" ></rect><rect id="23-3" x="22" y="2" width="1" height="1" shape-rendering="crispEdges" ></rect><rect id="24-3" x="23" y="2" width="1" height="1" shape-rendering="crispEdges" ></rect><rect id="25-3" x="24" y="2" width="1" height="1" shape-rendering="crispEdges" ></rect><rect id="26-3" x="25" y="2" width="1" height="1" shape-rendering="crispEdges" ></rect><rect id="27-3" x="26" y="2" width="1" height="1" shape-rendering="crispEdges" ></rect><rect id="28-3" x="27" y="2" width="1" height="1" shape-rendering="crispEdges" ></rect><rect id="5-4" x="4" y="3" width="1" height="1" shape-rendering="crispEdges" ></rect><rect id="6-4" x="5" y="3" width="1" height="1" shape-rendering="crispEdges" ></rect><rect id="7-4" x="6" y="3" width="1" height="1" shape-rendering="crispEdges" ></rect><rect id="8-4" x="7" y="3" width="1" height="1" shape-rendering="crispEdges" ></rect><rect id="9-4" x="8" y="3" width="1" height="1" shape-rendering="crispEdges" ></rect><rect id="10-4" x="9" y="3" width="1" height="1" shape-rendering="crispEdges" ></rect><rect id="11-4" x="10" y="3" width="1" height="1" shape-rendering="crispEdges" ></rect><rect id="12-4" x="11" y="3" width="1" height="1" shape-rendering="crispEdges" ></rect><rect id="13-4" x="12" y="3" width="1" height="1" shape-rendering="crispEdges" ></rect><rect id="14-4" x="13" y="3" width="1" height="1" shape-rendering="crispEdges" ></rect><rect id="15-4" x="14" y="3" width="1" height="1" shape-rendering="crispEdges" ></rect><rect id="16-4" x="15" y="3" width="1" height="1" shape-rendering="crispEdges" ></rect><rect id="17-4" x="16" y="3" width="1" height="1" shape-rendering="crispEdges" ></rect><rect id="18-4" x="17" y="3" width="1" height="1" shape-rendering="crispEdges" ></rect><rect id="19-4" x="18" y="3" width="1" height="1" shape-rendering="crispEdges" ></rect><rect id="20-4" x="19" y="3" width="1" height="1" shape-rendering="crispEdges" ></rect><rect id="21-4" x="20" y="3" width="1" height="1" shape-rendering="crispEdges" ></rect><rect id="22-4" x="21" y="3" width="1" height="1" shape-rendering="crispEdges" ></rect><rect id="23-4" x="22" y="3" width="1" height="1" shape-rendering="crispEdges" ></rect><rect id="24-4" x="23" y="3" width="1" height="1" shape-rendering="crispEdges" ></rect><rect id="25-4" x="24" y="3" width="1" height="1" shape-rendering="crispEdges" ></rect><rect id="26-4" x="25" y="3" width="1" height="1" shape-rendering="crispEdges" ></rect><rect id="27-4" x="26" y="3" width="1" height="1" shape-rendering="crispEdges" ></rect><rect id="28-4" x="27" y="3" width="1" height="1" shape-rendering="crispEdges" ></rect><rect id="3-5" x="2" y="4" width="1" height="1" shape-rendering="crispEdges" ></rect><rect id="4-5" x="3" y="4" width="1" height="1" shape-rendering="crispEdges" ></rect><rect id="29-5" x="28" y="4" width="1" height="1" shape-rendering="crispEdges" ></rect><rect id="30-5" x="29" y="4" width="1" height="1" shape-rendering="crispEdges" ></rect><rect id="3-6" x="2" y="5" width="1" height="1" shape-rendering="crispEdges" ></rect><rect id="4-6" x="3" y="5" width="1" height="1" shape-rendering="crispEdges" ></rect><rect id="29-6" x="28" y="5" width="1" height="1" shape-rendering="crispEdges" ></rect><rect id="30-6" x="29" y="5" width="1" height="1" shape-rendering="crispEdges" ></rect><rect id="1-7" x="0" y="6" width="1" height="1" shape-rendering="crispEdges" ></rect><rect id="2-7" x="1" y="6" width="1" height="1" shape-rendering="crispEdges" ></rect><rect id="15-7" x="14" y="6" width="1" height="1" shape-rendering="crispEdges" ></rect><rect id="16-7" x="15" y="6" width="1" height="1" shape-rendering="crispEdges" ></rect><rect id="17-7" x="16" y="6" width="1" height="1" shape-rendering="crispEdges" ></rect><rect id="18-7" x="17" y="6" width="1" height="1" shape-rendering="crispEdges" ></rect><rect id="31-7" x="30" y="6" width="1" height="1" shape-rendering="crispEdges" ></rect><rect id="32-7" x="31" y="6" width="1" height="1" shape-rendering="crispEdges" ></rect><rect id="1-8" x="0" y="7" width="1" height="1" shape-rendering="crispEdges" ></rect><rect id="2-8" x="1" y="7" width="1" height="1" shape-rendering="crispEdges" ></rect><rect id="15-8" x="14" y="7" width="1" height="1" shape-rendering="crispEdges" ></rect><rect id="16-8" x="15" y="7" width="1" height="1" shape-rendering="crispEdges" ></rect><rect id="17-8" x="16" y="7" width="1" height="1" shape-rendering="crispEdges" ></rect><rect id="18-8" x="17" y="7" width="1" height="1" shape-rendering="crispEdges" ></rect><rect id="31-8" x="30" y="7" width="1" height="1" shape-rendering="crispEdges" ></rect><rect id="32-8" x="31" y="7" width="1" height="1" shape-rendering="crispEdges" ></rect><rect id="1-9" x="0" y="8" width="1" height="1" shape-rendering="crispEdges" ></rect><rect id="2-9" x="1" y="8" width="1" height="1" shape-rendering="crispEdges" ></rect><rect id="13-9" x="12" y="8" width="1" height="1" shape-rendering="crispEdges" ></rect><rect id="14-9" x="13" y="8" width="1" height="1" shape-rendering="crispEdges" ></rect><rect id="15-9" x="14" y="8" width="1" height="1" shape-rendering="crispEdges" ></rect><rect id="16-9" x="15" y="8" width="1" height="1" shape-rendering="crispEdges" ></rect><rect id="17-9" x="16" y="8" width="1" height="1" shape-rendering="crispEdges" ></rect><rect id="18-9" x="17" y="8" width="1" height="1" shape-rendering="crispEdges" ></rect><rect id="19-9" x="18" y="8" width="1" height="1" shape-rendering="crispEdges" ></rect><rect id="20-9" x="19" y="8" width="1" height="1" shape-rendering="crispEdges" ></rect><rect id="31-9" x="30" y="8" width="1" height="1" shape-rendering="crispEdges" ></rect><rect id="32-9" x="31" y="8" width="1" height="1" shape-rendering="crispEdges" ></rect><rect id="1-10" x="0" y="9" width="1" height="1" shape-rendering="crispEdges" ></rect><rect id="2-10" x="1" y="9" width="1" height="1" shape-rendering="crispEdges" ></rect><rect id="13-10" x="12" y="9" width="1" height="1" shape-rendering="crispEdges" ></rect><rect id="14-10" x="13" y="9" width="1" height="1" shape-rendering="crispEdges" ></rect><rect id="15-10" x="14" y="9" width="1" height="1" shape-rendering="crispEdges" ></rect><rect id="16-10" x="15" y="9" width="1" height="1" shape-rendering="crispEdges" ></rect><rect id="17-10" x="16" y="9" width="1" height="1" shape-rendering="crispEdges" ></rect><rect id="18-10" x="17" y="9" width="1" height="1" shape-rendering="crispEdges" ></rect><rect id="19-10" x="18" y="9" width="1" height="1" shape-rendering="crispEdges" ></rect><rect id="20-10" x="19" y="9" width="1" height="1" shape-rendering="crispEdges" ></rect><rect id="31-10" x="30" y="9" width="1" height="1" shape-rendering="crispEdges" ></rect><rect id="32-10" x="31" y="9" width="1" height="1" shape-rendering="crispEdges" ></rect><rect id="1-11" x="0" y="10" width="1" height="1" shape-rendering="crispEdges" ></rect><rect id="2-11" x="1" y="10" width="1" height="1" shape-rendering="crispEdges" ></rect><rect id="13-11" x="12" y="10" width="1" height="1" shape-rendering="crispEdges" ></rect><rect id="14-11" x="13" y="10" width="1" height="1" shape-rendering="crispEdges" ></rect><rect id="15-11" x="14" y="10" width="1" height="1" shape-rendering="crispEdges" ></rect><rect id="16-11" x="15" y="10" width="1" height="1" shape-rendering="crispEdges" ></rect><rect id="17-11" x="16" y="10" width="1" height="1" shape-rendering="crispEdges" ></rect><rect id="18-11" x="17" y="10" width="1" height="1" shape-rendering="crispEdges" ></rect><rect id="19-11" x="18" y="10" width="1" height="1" shape-rendering="crispEdges" ></rect><rect id="20-11" x="19" y="10" width="1" height="1" shape-rendering="crispEdges" ></rect><rect id="31-11" x="30" y="10" width="1" height="1" shape-rendering="crispEdges" ></rect><rect id="32-11" x="31" y="10" width="1" height="1" shape-rendering="crispEdges" ></rect><rect id="1-12" x="0" y="11" width="1" height="1" shape-rendering="crispEdges" ></rect><rect id="2-12" x="1" y="11" width="1" height="1" shape-rendering="crispEdges" ></rect><rect id="13-12" x="12" y="11" width="1" height="1" shape-rendering="crispEdges" ></rect><rect id="14-12" x="13" y="11" width="1" height="1" shape-rendering="crispEdges" ></rect><rect id="15-12" x="14" y="11" width="1" height="1" shape-rendering="crispEdges" ></rect><rect id="16-12" x="15" y="11" width="1" height="1" shape-rendering="crispEdges" ></rect><rect id="17-12" x="16" y="11" width="1" height="1" shape-rendering="crispEdges" ></rect><rect id="18-12" x="17" y="11" width="1" height="1" shape-rendering="crispEdges" ></rect><rect id="19-12" x="18" y="11" width="1" height="1" shape-rendering="crispEdges" ></rect><rect id="20-12" x="19" y="11" width="1" height="1" shape-rendering="crispEdges" ></rect><rect id="31-12" x="30" y="11" width="1" height="1" shape-rendering="crispEdges" ></rect><rect id="32-12" x="31" y="11" width="1" height="1" shape-rendering="crispEdges" ></rect><rect id="1-13" x="0" y="12" width="1" height="1" shape-rendering="crispEdges" ></rect><rect id="2-13" x="1" y="12" width="1" height="1" shape-rendering="crispEdges" ></rect><rect id="15-13" x="14" y="12" width="1" height="1" shape-rendering="crispEdges" ></rect><rect id="16-13" x="15" y="12" width="1" height="1" shape-rendering="crispEdges" ></rect><rect id="17-13" x="16" y="12" width="1" height="1" shape-rendering="crispEdges" ></rect><rect id="18-13" x="17" y="12" width="1" height="1" shape-rendering="crispEdges" ></rect><rect id="31-13" x="30" y="12" width="1" height="1" shape-rendering="crispEdges" ></rect><rect id="32-13" x="31" y="12" width="1" height="1" shape-rendering="crispEdges" ></rect><rect id="1-14" x="0" y="13" width="1" height="1" shape-rendering="crispEdges" ></rect><rect id="2-14" x="1" y="13" width="1" height="1" shape-rendering="crispEdges" ></rect><rect id="15-14" x="14" y="13" width="1" height="1" shape-rendering="crispEdges" ></rect><rect id="16-14" x="15" y="13" width="1" height="1" shape-rendering="crispEdges" ></rect><rect id="17-14" x="16" y="13" width="1" height="1" shape-rendering="crispEdges" ></rect><rect id="18-14" x="17" y="13" width="1" height="1" shape-rendering="crispEdges" ></rect><rect id="31-14" x="30" y="13" width="1" height="1" shape-rendering="crispEdges" ></rect><rect id="32-14" x="31" y="13" width="1" height="1" shape-rendering="crispEdges" ></rect><rect id="1-15" x="0" y="14" width="1" height="1" shape-rendering="crispEdges" ></rect><rect id="2-15" x="1" y="14" width="1" height="1" shape-rendering="crispEdges" ></rect><rect id="31-15" x="30" y="14" width="1" height="1" shape-rendering="crispEdges" ></rect><rect id="32-15" x="31" y="14" width="1" height="1" shape-rendering="crispEdges" ></rect><rect id="1-16" x="0" y="15" width="1" height="1" shape-rendering="crispEdges" ></rect><rect id="2-16" x="1" y="15" width="1" height="1" shape-rendering="crispEdges" ></rect><rect id="31-16" x="30" y="15" width="1" height="1" shape-rendering="crispEdges" ></rect><rect id="32-16" x="31" y="15" width="1" height="1" shape-rendering="crispEdges" ></rect><rect id="1-17" x="0" y="16" width="1" height="1" shape-rendering="crispEdges" ></rect><rect id="2-17" x="1" y="16" width="1" height="1" shape-rendering="crispEdges" ></rect><rect id="13-17" x="12" y="16" width="1" height="1" shape-rendering="crispEdges" ></rect><rect id="14-17" x="13" y="16" width="1" height="1" shape-rendering="crispEdges" ></rect><rect id="15-17" x="14" y="16" width="1" height="1" shape-rendering="crispEdges" ></rect><rect id="16-17" x="15" y="16" width="1" height="1" shape-rendering="crispEdges" ></rect><rect id="17-17" x="16" y="16" width="1" height="1" shape-rendering="crispEdges" ></rect><rect id="18-17" x="17" y="16" width="1" height="1" shape-rendering="crispEdges" ></rect><rect id="19-17" x="18" y="16" width="1" height="1" shape-rendering="crispEdges" ></rect><rect id="20-17" x="19" y="16" width="1" height="1" shape-rendering="crispEdges" ></rect><rect id="31-17" x="30" y="16" width="1" height="1" shape-rendering="crispEdges" ></rect><rect id="32-17" x="31" y="16" width="1" height="1" shape-rendering="crispEdges" ></rect><rect id="1-18" x="0" y="17" width="1" height="1" shape-rendering="crispEdges" ></rect><rect id="2-18" x="1" y="17" width="1" height="1" shape-rendering="crispEdges" ></rect><rect id="13-18" x="12" y="17" width="1" height="1" shape-rendering="crispEdges" ></rect><rect id="14-18" x="13" y="17" width="1" height="1" shape-rendering="crispEdges" ></rect><rect id="15-18" x="14" y="17" width="1" height="1" shape-rendering="crispEdges" ></rect><rect id="16-18" x="15" y="17" width="1" height="1" shape-rendering="crispEdges" ></rect><rect id="17-18" x="16" y="17" width="1" height="1" shape-rendering="crispEdges" ></rect><rect id="18-18" x="17" y="17" width="1" height="1" shape-rendering="crispEdges" ></rect><rect id="19-18" x="18" y="17" width="1" height="1" shape-rendering="crispEdges" ></rect><rect id="20-18" x="19" y="17" width="1" height="1" shape-rendering="crispEdges" ></rect><rect id="31-18" x="30" y="17" width="1" height="1" shape-rendering="crispEdges" ></rect><rect id="32-18" x="31" y="17" width="1" height="1" shape-rendering="crispEdges" ></rect><rect id="1-19" x="0" y="18" width="1" height="1" shape-rendering="crispEdges" ></rect><rect id="2-19" x="1" y="18" width="1" height="1" shape-rendering="crispEdges" ></rect><rect id="11-19" x="10" y="18" width="1" height="1" shape-rendering="crispEdges" ></rect><rect id="12-19" x="11" y="18" width="1" height="1" shape-rendering="crispEdges" ></rect><rect id="13-19" x="12" y="18" width="1" height="1" shape-rendering="crispEdges" ></rect><rect id="14-19" x="13" y="18" width="1" height="1" shape-rendering="crispEdges" ></rect><rect id="15-19" x="14" y="18" width="1" height="1" shape-rendering="crispEdges" ></rect><rect id="16-19" x="15" y="18" width="1" height="1" shape-rendering="crispEdges" ></rect><rect id="17-19" x="16" y="18" width="1" height="1" shape-rendering="crispEdges" ></rect><rect id="18-19" x="17" y="18" width="1" height="1" shape-rendering="crispEdges" ></rect><rect id="19-19" x="18" y="18" width="1" height="1" shape-rendering="crispEdges" ></rect><rect id="20-19" x="19" y="18" width="1" height="1" shape-rendering="crispEdges" ></rect><rect id="21-19" x="20" y="18" width="1" height="1" shape-rendering="crispEdges" ></rect><rect id="22-19" x="21" y="18" width="1" height="1" shape-rendering="crispEdges" ></rect><rect id="31-19" x="30" y="18" width="1" height="1" shape-rendering="crispEdges" ></rect><rect id="32-19" x="31" y="18" width="1" height="1" shape-rendering="crispEdges" ></rect><rect id="1-20" x="0" y="19" width="1" height="1" shape-rendering="crispEdges" ></rect><rect id="2-20" x="1" y="19" width="1" height="1" shape-rendering="crispEdges" ></rect><rect id="11-20" x="10" y="19" width="1" height="1" shape-rendering="crispEdges" ></rect><rect id="12-20" x="11" y="19" width="1" height="1" shape-rendering="crispEdges" ></rect><rect id="13-20" x="12" y="19" width="1" height="1" shape-rendering="crispEdges" ></rect><rect id="14-20" x="13" y="19" width="1" height="1" shape-rendering="crispEdges" ></rect><rect id="15-20" x="14" y="19" width="1" height="1" shape-rendering="crispEdges" ></rect><rect id="16-20" x="15" y="19" width="1" height="1" shape-rendering="crispEdges" ></rect><rect id="17-20" x="16" y="19" width="1" height="1" shape-rendering="crispEdges" ></rect><rect id="18-20" x="17" y="19" width="1" height="1" shape-rendering="crispEdges" ></rect><rect id="19-20" x="18" y="19" width="1" height="1" shape-rendering="crispEdges" ></rect><rect id="20-20" x="19" y="19" width="1" height="1" shape-rendering="crispEdges" ></rect><rect id="21-20" x="20" y="19" width="1" height="1" shape-rendering="crispEdges" ></rect><rect id="22-20" x="21" y="19" width="1" height="1" shape-rendering="crispEdges" ></rect><rect id="31-20" x="30" y="19" width="1" height="1" shape-rendering="crispEdges" ></rect><rect id="32-20" x="31" y="19" width="1" height="1" shape-rendering="crispEdges" ></rect><rect id="1-21" x="0" y="20" width="1" height="1" shape-rendering="crispEdges" ></rect><rect id="2-21" x="1" y="20" width="1" height="1" shape-rendering="crispEdges" ></rect><rect id="9-21" x="8" y="20" width="1" height="1" shape-rendering="crispEdges" ></rect><rect id="10-21" x="9" y="20" width="1" height="1" shape-rendering="crispEdges" ></rect><rect id="11-21" x="10" y="20" width="1" height="1" shape-rendering="crispEdges" ></rect><rect id="12-21" x="11" y="20" width="1" height="1" shape-rendering="crispEdges" ></rect><rect id="13-21" x="12" y="20" width="1" height="1" shape-rendering="crispEdges" ></rect><rect id="14-21" x="13" y="20" width="1" height="1" shape-rendering="crispEdges" ></rect><rect id="15-21" x="14" y="20" width="1" height="1" shape-rendering="crispEdges" ></rect><rect id="16-21" x="15" y="20" width="1" height="1" shape-rendering="crispEdges" ></rect><rect id="17-21" x="16" y="20" width="1" height="1" shape-rendering="crispEdges" ></rect><rect id="18-21" x="17" y="20" width="1" height="1" shape-rendering="crispEdges" ></rect><rect id="19-21" x="18" y="20" width="1" height="1" shape-rendering="crispEdges" ></rect><rect id="20-21" x="19" y="20" width="1" height="1" shape-rendering="crispEdges" ></rect><rect id="21-21" x="20" y="20" width="1" height="1" shape-rendering="crispEdges" ></rect><rect id="22-21" x="21" y="20" width="1" height="1" shape-rendering="crispEdges" ></rect><rect id="23-21" x="22" y="20" width="1" height="1" shape-rendering="crispEdges" ></rect><rect id="24-21" x="23" y="20" width="1" height="1" shape-rendering="crispEdges" ></rect><rect id="31-21" x="30" y="20" width="1" height="1" shape-rendering="crispEdges" ></rect><rect id="32-21" x="31" y="20" width="1" height="1" shape-rendering="crispEdges" ></rect><rect id="1-22" x="0" y="21" width="1" height="1" shape-rendering="crispEdges" ></rect><rect id="2-22" x="1" y="21" width="1" height="1" shape-rendering="crispEdges" ></rect><rect id="9-22" x="8" y="21" width="1" height="1" shape-rendering="crispEdges" ></rect><rect id="10-22" x="9" y="21" width="1" height="1" shape-rendering="crispEdges" ></rect><rect id="11-22" x="10" y="21" width="1" height="1" shape-rendering="crispEdges" ></rect><rect id="12-22" x="11" y="21" width="1" height="1" shape-rendering="crispEdges" ></rect><rect id="13-22" x="12" y="21" width="1" height="1" shape-rendering="crispEdges" ></rect><rect id="14-22" x="13" y="21" width="1" height="1" shape-rendering="crispEdges" ></rect><rect id="15-22" x="14" y="21" width="1" height="1" shape-rendering="crispEdges" ></rect><rect id="16-22" x="15" y="21" width="1" height="1" shape-rendering="crispEdges" ></rect><rect id="17-22" x="16" y="21" width="1" height="1" shape-rendering="crispEdges" ></rect><rect id="18-22" x="17" y="21" width="1" height="1" shape-rendering="crispEdges" ></rect><rect id="19-22" x="18" y="21" width="1" height="1" shape-rendering="crispEdges" ></rect><rect id="20-22" x="19" y="21" width="1" height="1" shape-rendering="crispEdges" ></rect><rect id="21-22" x="20" y="21" width="1" height="1" shape-rendering="crispEdges" ></rect><rect id="22-22" x="21" y="21" width="1" height="1" shape-rendering="crispEdges" ></rect><rect id="23-22" x="22" y="21" width="1" height="1" shape-rendering="crispEdges" ></rect><rect id="24-22" x="23" y="21" width="1" height="1" shape-rendering="crispEdges" ></rect><rect id="31-22" x="30" y="21" width="1" height="1" shape-rendering="crispEdges" ></rect><rect id="32-22" x="31" y="21" width="1" height="1" shape-rendering="crispEdges" ></rect><rect id="3-23" x="2" y="22" width="1" height="1" shape-rendering="crispEdges" ></rect><rect id="4-23" x="3" y="22" width="1" height="1" shape-rendering="crispEdges" ></rect><rect id="29-23" x="28" y="22" width="1" height="1" shape-rendering="crispEdges" ></rect><rect id="30-23" x="29" y="22" width="1" height="1" shape-rendering="crispEdges" ></rect><rect id="3-24" x="2" y="23" width="1" height="1" shape-rendering="crispEdges" ></rect><rect id="4-24" x="3" y="23" width="1" height="1" shape-rendering="crispEdges" ></rect><rect id="29-24" x="28" y="23" width="1" height="1" shape-rendering="crispEdges" ></rect><rect id="30-24" x="29" y="23" width="1" height="1" shape-rendering="crispEdges" ></rect><rect id="5-25" x="4" y="24" width="1" height="1" shape-rendering="crispEdges" ></rect><rect id="6-25" x="5" y="24" width="1" height="1" shape-rendering="crispEdges" ></rect><rect id="7-25" x="6" y="24" width="1" height="1" shape-rendering="crispEdges" ></rect><rect id="8-25" x="7" y="24" width="1" height="1" shape-rendering="crispEdges" ></rect><rect id="9-25" x="8" y="24" width="1" height="1" shape-rendering="crispEdges" ></rect><rect id="10-25" x="9" y="24" width="1" height="1" shape-rendering="crispEdges" ></rect><rect id="15-25" x="14" y="24" width="1" height="1" shape-rendering="crispEdges" ></rect><rect id="16-25" x="15" y="24" width="1" height="1" shape-rendering="crispEdges" ></rect><rect id="17-25" x="16" y="24" width="1" height="1" shape-rendering="crispEdges" ></rect><rect id="18-25" x="17" y="24" width="1" height="1" shape-rendering="crispEdges" ></rect><rect id="19-25" x="18" y="24" width="1" height="1" shape-rendering="crispEdges" ></rect><rect id="20-25" x="19" y="24" width="1" height="1" shape-rendering="crispEdges" ></rect><rect id="21-25" x="20" y="24" width="1" height="1" shape-rendering="crispEdges" ></rect><rect id="22-25" x="21" y="24" width="1" height="1" shape-rendering="crispEdges" ></rect><rect id="23-25" x="22" y="24" width="1" height="1" shape-rendering="crispEdges" ></rect><rect id="24-25" x="23" y="24" width="1" height="1" shape-rendering="crispEdges" ></rect><rect id="25-25" x="24" y="24" width="1" height="1" shape-rendering="crispEdges" ></rect><rect id="26-25" x="25" y="24" width="1" height="1" shape-rendering="crispEdges" ></rect><rect id="27-25" x="26" y="24" width="1" height="1" shape-rendering="crispEdges" ></rect><rect id="28-25" x="27" y="24" width="1" height="1" shape-rendering="crispEdges" ></rect><rect id="5-26" x="4" y="25" width="1" height="1" shape-rendering="crispEdges" ></rect><rect id="6-26" x="5" y="25" width="1" height="1" shape-rendering="crispEdges" ></rect><rect id="7-26" x="6" y="25" width="1" height="1" shape-rendering="crispEdges" ></rect><rect id="8-26" x="7" y="25" width="1" height="1" shape-rendering="crispEdges" ></rect><rect id="9-26" x="8" y="25" width="1" height="1" shape-rendering="crispEdges" ></rect><rect id="10-26" x="9" y="25" width="1" height="1" shape-rendering="crispEdges" ></rect><rect id="15-26" x="14" y="25" width="1" height="1" shape-rendering="crispEdges" ></rect><rect id="16-26" x="15" y="25" width="1" height="1" shape-rendering="crispEdges" ></rect><rect id="17-26" x="16" y="25" width="1" height="1" shape-rendering="crispEdges" ></rect><rect id="18-26" x="17" y="25" width="1" height="1" shape-rendering="crispEdges" ></rect><rect id="19-26" x="18" y="25" width="1" height="1" shape-rendering="crispEdges" ></rect><rect id="20-26" x="19" y="25" width="1" height="1" shape-rendering="crispEdges" ></rect><rect id="21-26" x="20" y="25" width="1" height="1" shape-rendering="crispEdges" ></rect><rect id="22-26" x="21" y="25" width="1" height="1" shape-rendering="crispEdges" ></rect><rect id="23-26" x="22" y="25" width="1" height="1" shape-rendering="crispEdges" ></rect><rect id="24-26" x="23" y="25" width="1" height="1" shape-rendering="crispEdges" ></rect><rect id="25-26" x="24" y="25" width="1" height="1" shape-rendering="crispEdges" ></rect><rect id="26-26" x="25" y="25" width="1" height="1" shape-rendering="crispEdges" ></rect><rect id="27-26" x="26" y="25" width="1" height="1" shape-rendering="crispEdges" ></rect><rect id="28-26" x="27" y="25" width="1" height="1" shape-rendering="crispEdges" ></rect><rect id="9-27" x="8" y="26" width="1" height="1" shape-rendering="crispEdges" ></rect><rect id="10-27" x="9" y="26" width="1" height="1" shape-rendering="crispEdges" ></rect><rect id="13-27" x="12" y="26" width="1" height="1" shape-rendering="crispEdges" ></rect><rect id="14-27" x="13" y="26" width="1" height="1" shape-rendering="crispEdges" ></rect><rect id="9-28" x="8" y="27" width="1" height="1" shape-rendering="crispEdges" ></rect><rect id="10-28" x="9" y="27" width="1" height="1" shape-rendering="crispEdges" ></rect><rect id="13-28" x="12" y="27" width="1" height="1" shape-rendering="crispEdges" ></rect><rect id="14-28" x="13" y="27" width="1" height="1" shape-rendering="crispEdges" ></rect><rect id="9-29" x="8" y="28" width="1" height="1" shape-rendering="crispEdges" ></rect><rect id="10-29" x="9" y="28" width="1" height="1" shape-rendering="crispEdges" ></rect><rect id="11-29" x="10" y="28" width="1" height="1" shape-rendering="crispEdges" ></rect><rect id="12-29" x="11" y="28" width="1" height="1" shape-rendering="crispEdges" ></rect><rect id="9-30" x="8" y="29" width="1" height="1" shape-rendering="crispEdges" ></rect><rect id="10-30" x="9" y="29" width="1" height="1" shape-rendering="crispEdges" ></rect><rect id="11-30" x="10" y="29" width="1" height="1" shape-rendering="crispEdges" ></rect><rect id="12-30" x="11" y="29" width="1" height="1" shape-rendering="crispEdges" ></rect><rect id="9-31" x="8" y="30" width="1" height="1" shape-rendering="crispEdges" ></rect><rect id="10-31" x="9" y="30" width="1" height="1" shape-rendering="crispEdges" ></rect><rect id="9-32" x="8" y="31" width="1" height="1" shape-rendering="crispEdges" ></rect><rect id="10-32" x="9" y="31" width="1" height="1" shape-rendering="crispEdges" ></rect></svg>