<?xml version="1.0" encoding="UTF-8" standalone="no"?><svg xmlns="http://www.w3.org/2000/svg" id="gallery" width="32" height="32" viewBox="0 0 32 32" preserveAspectRatio="xMidYMid meet" rendering="crispEdges"><rect id="5-5" x="4" y="4" width="1" height="1" shape-rendering="crispEdges" ></rect><rect id="6-5" x="5" y="4" width="1" height="1" shape-rendering="crispEdges" ></rect><rect id="7-5" x="6" y="4" width="1" height="1" shape-rendering="crispEdges" ></rect><rect id="8-5" x="7" y="4" width="1" height="1" shape-rendering="crispEdges" ></rect><rect id="9-5" x="8" y="4" width="1" height="1" shape-rendering="crispEdges" ></rect><rect id="10-5" x="9" y="4" width="1" height="1" shape-rendering="crispEdges" ></rect><rect id="11-5" x="10" y="4" width="1" height="1" shape-rendering="crispEdges" ></rect><rect id="12-5" x="11" y="4" width="1" height="1" shape-rendering="crispEdges" ></rect><rect id="13-5" x="12" y="4" width="1" height="1" shape-rendering="crispEdges" ></rect><rect id="14-5" x="13" y="4" width="1" height="1" shape-rendering="crispEdges" ></rect><rect id="15-5" x="14" y="4" width="1" height="1" shape-rendering="crispEdges" ></rect><rect id="16-5" x="15" y="4" width="1" height="1" shape-rendering="crispEdges" ></rect><rect id="17-5" x="16" y="4" width="1" height="1" shape-rendering="crispEdges" ></rect><rect id="18-5" x="17" y="4" width="1" height="1" shape-rendering="crispEdges" ></rect><rect id="19-5" x="18" y="4" width="1" height="1" shape-rendering="crispEdges" ></rect><rect id="20-5" x="19" y="4" width="1" height="1" shape-rendering="crispEdges" ></rect><rect id="21-5" x="20" y="4" width="1" height="1" shape-rendering="crispEdges" ></rect><rect id="22-5" x="21" y="4" width="1" height="1" shape-rendering="crispEdges" ></rect><rect id="23-5" x="22" y="4" width="1" height="1" shape-rendering="crispEdges" ></rect><rect id="24-5" x="23" y="4" width="1" height="1" shape-rendering="crispEdges" ></rect><rect id="25-5" x="24" y="4" width="1" height="1" shape-rendering="crispEdges" ></rect><rect id="26-5" x="25" y="4" width="1" height="1" shape-rendering="crispEdges" ></rect><rect id="27-5" x="26" y="4" width="1" height="1" shape-rendering="crispEdges" ></rect><rect id="28-5" x="27" y="4" width="1" height="1" shape-rendering="crispEdges" ></rect><rect id="5-6" x="4" y="5" width="1" height="1" shape-rendering="crispEdges" ></rect><rect id="6-6" x="5" y="5" width="1" height="1" shape-rendering="crispEdges" ></rect><rect id="7-6" x="6" y="5" width="1" height="1" shape-rendering="crispEdges" ></rect><rect id="8-6" x="7" y="5" width="1" height="1" shape-rendering="crispEdges" ></rect><rect id="9-6" x="8" y="5" width="1" height="1" shape-rendering="crispEdges" ></rect><rect id="10-6" x="9" y="5" width="1" height="1" shape-rendering="crispEdges" ></rect><rect id="11-6" x="10" y="5" width="1" height="1" shape-rendering="crispEdges" ></rect><rect id="12-6" x="11" y="5" width="1" height="1" shape-rendering="crispEdges" ></rect><rect id="13-6" x="12" y="5" width="1" height="1" shape-rendering="crispEdges" ></rect><rect id="14-6" x="13" y="5" width="1" height="1" shape-rendering="crispEdges" ></rect><rect id="15-6" x="14" y="5" width="1" height="1" shape-rendering="crispEdges" ></rect><rect id="16-6" x="15" y="5" width="1" height="1" shape-rendering="crispEdges" ></rect><rect id="17-6" x="16" y="5" width="1" height="1" shape-rendering="crispEdges" ></rect><rect id="18-6" x="17" y="5" width="1" height="1" shape-rendering="crispEdges" ></rect><rect id="19-6" x="18" y="5" width="1" height="1" shape-rendering="crispEdges" ></rect><rect id="20-6" x="19" y="5" width="1" height="1" shape-rendering="crispEdges" ></rect><rect id="21-6" x="20" y="5" width="1" height="1" shape-rendering="crispEdges" ></rect><rect id="22-6" x="21" y="5" width="1" height="1" shape-rendering="crispEdges" ></rect><rect id="23-6" x="22" y="5" width="1" height="1" shape-rendering="crispEdges" ></rect><rect id="24-6" x="23" y="5" width="1" height="1" shape-rendering="crispEdges" ></rect><rect id="25-6" x="24" y="5" width="1" height="1" shape-rendering="crispEdges" ></rect><rect id="26-6" x="25" y="5" width="1" height="1" shape-rendering="crispEdges" ></rect><rect id="27-6" x="26" y="5" width="1" height="1" shape-rendering="crispEdges" ></rect><rect id="28-6" x="27" y="5" width="1" height="1" shape-rendering="crispEdges" ></rect><rect id="3-7" x="2" y="6" width="1" height="1" shape-rendering="crispEdges" ></rect><rect id="4-7" x="3" y="6" width="1" height="1" shape-rendering="crispEdges" ></rect><rect id="29-7" x="28" y="6" width="1" height="1" shape-rendering="crispEdges" ></rect><rect id="30-7" x="29" y="6" width="1" height="1" shape-rendering="crispEdges" ></rect><rect id="3-8" x="2" y="7" width="1" height="1" shape-rendering="crispEdges" ></rect><rect id="4-8" x="3" y="7" width="1" height="1" shape-rendering="crispEdges" ></rect><rect id="29-8" x="28" y="7" width="1" height="1" shape-rendering="crispEdges" ></rect><rect id="30-8" x="29" y="7" width="1" height="1" shape-rendering="crispEdges" ></rect><rect id="1-9" x="0" y="8" width="1" height="1" shape-rendering="crispEdges" ></rect><rect id="2-9" x="1" y="8" width="1" height="1" shape-rendering="crispEdges" ></rect><rect id="31-9" x="30" y="8" width="1" height="1" shape-rendering="crispEdges" ></rect><rect id="32-9" x="31" y="8" width="1" height="1" shape-rendering="crispEdges" ></rect><rect id="1-10" x="0" y="9" width="1" height="1" shape-rendering="crispEdges" ></rect><rect id="2-10" x="1" y="9" width="1" height="1" shape-rendering="crispEdges" ></rect><rect id="31-10" x="30" y="9" width="1" height="1" shape-rendering="crispEdges" ></rect><rect id="32-10" x="31" y="9" width="1" height="1" shape-rendering="crispEdges" ></rect><rect id="1-11" x="0" y="10" width="1" height="1" shape-rendering="crispEdges" ></rect><rect id="2-11" x="1" y="10" width="1" height="1" shape-rendering="crispEdges" ></rect><rect id="9-11" x="8" y="10" width="1" height="1" shape-rendering="crispEdges" ></rect><rect id="10-11" x="9" y="10" width="1" height="1" shape-rendering="crispEdges" ></rect><rect id="11-11" x="10" y="10" width="1" height="1" shape-rendering="crispEdges" ></rect><rect id="12-11" x="11" y="10" width="1" height="1" shape-rendering="crispEdges" ></rect><rect id="31-11" x="30" y="10" width="1" height="1" shape-rendering="crispEdges" ></rect><rect id="32-11" x="31" y="10" width="1" height="1" shape-rendering="crispEdges" ></rect><rect id="1-12" x="0" y="11" width="1" height="1" shape-rendering="crispEdges" ></rect><rect id="2-12" x="1" y="11" width="1" height="1" shape-rendering="crispEdges" ></rect><rect id="9-12" x="8" y="11" width="1" height="1" shape-rendering="crispEdges" ></rect><rect id="10-12" x="9" y="11" width="1" height="1" shape-rendering="crispEdges" ></rect><rect id="11-12" x="10" y="11" width="1" height="1" shape-rendering="crispEdges" ></rect><rect id="12-12" x="11" y="11" width="1" height="1" shape-rendering="crispEdges" ></rect><rect id="31-12" x="30" y="11" width="1" height="1" shape-rendering="crispEdges" ></rect><rect id="32-12" x="31" y="11" width="1" height="1" shape-rendering="crispEdges" ></rect><rect id="1-13" x="0" y="12" width="1" height="1" shape-rendering="crispEdges" ></rect><rect id="2-13" x="1" y="12" width="1" height="1" shape-rendering="crispEdges" ></rect><rect id="7-13" x="6" y="12" width="1" height="1" shape-rendering="crispEdges" ></rect><rect id="8-13" x="7" y="12" width="1" height="1" shape-rendering="crispEdges" ></rect><rect id="9-13" x="8" y="12" width="1" height="1" shape-rendering="crispEdges" ></rect><rect id="10-13" x="9" y="12" width="1" height="1" shape-rendering="crispEdges" ></rect><rect id="11-13" x="10" y="12" width="1" height="1" shape-rendering="crispEdges" ></rect><rect id="12-13" x="11" y="12" width="1" height="1" shape-rendering="crispEdges" ></rect><rect id="13-13" x="12" y="12" width="1" height="1" shape-rendering="crispEdges" ></rect><rect id="14-13" x="13" y="12" width="1" height="1" shape-rendering="crispEdges" ></rect><rect id="31-13" x="30" y="12" width="1" height="1" shape-rendering="crispEdges" ></rect><rect id="32-13" x="31" y="12" width="1" height="1" shape-rendering="crispEdges" ></rect><rect id="1-14" x="0" y="13" width="1" height="1" shape-rendering="crispEdges" ></rect><rect id="2-14" x="1" y="13" width="1" height="1" shape-rendering="crispEdges" ></rect><rect id="7-14" x="6" y="13" width="1" height="1" shape-rendering="crispEdges" ></rect><rect id="8-14" x="7" y="13" width="1" height="1" shape-rendering="crispEdges" ></rect><rect id="9-14" x="8" y="13" width="1" height="1" shape-rendering="crispEdges" ></rect><rect id="10-14" x="9" y="13" width="1" height="1" shape-rendering="crispEdges" ></rect><rect id="11-14" x="10" y="13" width="1" height="1" shape-rendering="crispEdges" ></rect><rect id="12-14" x="11" y="13" width="1" height="1" shape-rendering="crispEdges" ></rect><rect id="13-14" x="12" y="13" width="1" height="1" shape-rendering="crispEdges" ></rect><rect id="14-14" x="13" y="13" width="1" height="1" shape-rendering="crispEdges" ></rect><rect id="31-14" x="30" y="13" width="1" height="1" shape-rendering="crispEdges" ></rect><rect id="32-14" x="31" y="13" width="1" height="1" shape-rendering="crispEdges" ></rect><rect id="1-15" x="0" y="14" width="1" height="1" shape-rendering="crispEdges" ></rect><rect id="2-15" x="1" y="14" width="1" height="1" shape-rendering="crispEdges" ></rect><rect id="7-15" x="6" y="14" width="1" height="1" shape-rendering="crispEdges" ></rect><rect id="8-15" x="7" y="14" width="1" height="1" shape-rendering="crispEdges" ></rect><rect id="9-15" x="8" y="14" width="1" height="1" shape-rendering="crispEdges" ></rect><rect id="10-15" x="9" y="14" width="1" height="1" shape-rendering="crispEdges" ></rect><rect id="11-15" x="10" y="14" width="1" height="1" shape-rendering="crispEdges" ></rect><rect id="12-15" x="11" y="14" width="1" height="1" shape-rendering="crispEdges" ></rect><rect id="13-15" x="12" y="14" width="1" height="1" shape-rendering="crispEdges" ></rect><rect id="14-15" x="13" y="14" width="1" height="1" shape-rendering="crispEdges" ></rect><rect id="21-15" x="20" y="14" width="1" height="1" shape-rendering="crispEdges" ></rect><rect id="22-15" x="21" y="14" width="1" height="1" shape-rendering="crispEdges" ></rect><rect id="23-15" x="22" y="14" width="1" height="1" shape-rendering="crispEdges" ></rect><rect id="24-15" x="23" y="14" width="1" height="1" shape-rendering="crispEdges" ></rect><rect id="31-15" x="30" y="14" width="1" height="1" shape-rendering="crispEdges" ></rect><rect id="32-15" x="31" y="14" width="1" height="1" shape-rendering="crispEdges" ></rect><rect id="1-16" x="0" y="15" width="1" height="1" shape-rendering="crispEdges" ></rect><rect id="2-16" x="1" y="15" width="1" height="1" shape-rendering="crispEdges" ></rect><rect id="7-16" x="6" y="15" width="1" height="1" shape-rendering="crispEdges" ></rect><rect id="8-16" x="7" y="15" width="1" height="1" shape-rendering="crispEdges" ></rect><rect id="9-16" x="8" y="15" width="1" height="1" shape-rendering="crispEdges" ></rect><rect id="10-16" x="9" y="15" width="1" height="1" shape-rendering="crispEdges" ></rect><rect id="11-16" x="10" y="15" width="1" height="1" shape-rendering="crispEdges" ></rect><rect id="12-16" x="11" y="15" width="1" height="1" shape-rendering="crispEdges" ></rect><rect id="13-16" x="12" y="15" width="1" height="1" shape-rendering="crispEdges" ></rect><rect id="14-16" x="13" y="15" width="1" height="1" shape-rendering="crispEdges" ></rect><rect id="21-16" x="20" y="15" width="1" height="1" shape-rendering="crispEdges" ></rect><rect id="22-16" x="21" y="15" width="1" height="1" shape-rendering="crispEdges" ></rect><rect id="23-16" x="22" y="15" width="1" height="1" shape-rendering="crispEdges" ></rect><rect id="24-16" x="23" y="15" width="1" height="1" shape-rendering="crispEdges" ></rect><rect id="31-16" x="30" y="15" width="1" height="1" shape-rendering="crispEdges" ></rect><rect id="32-16" x="31" y="15" width="1" height="1" shape-rendering="crispEdges" ></rect><rect id="1-17" x="0" y="16" width="1" height="1" shape-rendering="crispEdges" ></rect><rect id="2-17" x="1" y="16" width="1" height="1" shape-rendering="crispEdges" ></rect><rect id="9-17" x="8" y="16" width="1" height="1" shape-rendering="crispEdges" ></rect><rect id="10-17" x="9" y="16" width="1" height="1" shape-rendering="crispEdges" ></rect><rect id="11-17" x="10" y="16" width="1" height="1" shape-rendering="crispEdges" ></rect><rect id="12-17" x="11" y="16" width="1" height="1" shape-rendering="crispEdges" ></rect><rect id="19-17" x="18" y="16" width="1" height="1" shape-rendering="crispEdges" ></rect><rect id="20-17" x="19" y="16" width="1" height="1" shape-rendering="crispEdges" ></rect><rect id="25-17" x="24" y="16" width="1" height="1" shape-rendering="crispEdges" ></rect><rect id="26-17" x="25" y="16" width="1" height="1" shape-rendering="crispEdges" ></rect><rect id="31-17" x="30" y="16" width="1" height="1" shape-rendering="crispEdges" ></rect><rect id="32-17" x="31" y="16" width="1" height="1" shape-rendering="crispEdges" ></rect><rect id="1-18" x="0" y="17" width="1" height="1" shape-rendering="crispEdges" ></rect><rect id="2-18" x="1" y="17" width="1" height="1" shape-rendering="crispEdges" ></rect><rect id="9-18" x="8" y="17" width="1" height="1" shape-rendering="crispEdges" ></rect><rect id="10-18" x="9" y="17" width="1" height="1" shape-rendering="crispEdges" ></rect><rect id="11-18" x="10" y="17" width="1" height="1" shape-rendering="crispEdges" ></rect><rect id="12-18" x="11" y="17" width="1" height="1" shape-rendering="crispEdges" ></rect><rect id="19-18" x="18" y="17" width="1" height="1" shape-rendering="crispEdges" ></rect><rect id="20-18" x="19" y="17" width="1" height="1" shape-rendering="crispEdges" ></rect><rect id="25-18" x="24" y="17" width="1" height="1" shape-rendering="crispEdges" ></rect><rect id="26-18" x="25" y="17" width="1" height="1" shape-rendering="crispEdges" ></rect><rect id="31-18" x="30" y="17" width="1" height="1" shape-rendering="crispEdges" ></rect><rect id="32-18" x="31" y="17" width="1" height="1" shape-rendering="crispEdges" ></rect><rect id="1-19" x="0" y="18" width="1" height="1" shape-rendering="crispEdges" ></rect><rect id="2-19" x="1" y="18" width="1" height="1" shape-rendering="crispEdges" ></rect><rect id="17-19" x="16" y="18" width="1" height="1" shape-rendering="crispEdges" ></rect><rect id="18-19" x="17" y="18" width="1" height="1" shape-rendering="crispEdges" ></rect><rect id="27-19" x="26" y="18" width="1" height="1" shape-rendering="crispEdges" ></rect><rect id="28-19" x="27" y="18" width="1" height="1" shape-rendering="crispEdges" ></rect><rect id="31-19" x="30" y="18" width="1" height="1" shape-rendering="crispEdges" ></rect><rect id="32-19" x="31" y="18" width="1" height="1" shape-rendering="crispEdges" ></rect><rect id="1-20" x="0" y="19" width="1" height="1" shape-rendering="crispEdges" ></rect><rect id="2-20" x="1" y="19" width="1" height="1" shape-rendering="crispEdges" ></rect><rect id="17-20" x="16" y="19" width="1" height="1" shape-rendering="crispEdges" ></rect><rect id="18-20" x="17" y="19" width="1" height="1" shape-rendering="crispEdges" ></rect><rect id="27-20" x="26" y="19" width="1" height="1" shape-rendering="crispEdges" ></rect><rect id="28-20" x="27" y="19" width="1" height="1" shape-rendering="crispEdges" ></rect><rect id="31-20" x="30" y="19" width="1" height="1" shape-rendering="crispEdges" ></rect><rect id="32-20" x="31" y="19" width="1" height="1" shape-rendering="crispEdges" ></rect><rect id="1-21" x="0" y="20" width="1" height="1" shape-rendering="crispEdges" ></rect><rect id="2-21" x="1" y="20" width="1" height="1" shape-rendering="crispEdges" ></rect><rect id="15-21" x="14" y="20" width="1" height="1" shape-rendering="crispEdges" ></rect><rect id="16-21" x="15" y="20" width="1" height="1" shape-rendering="crispEdges" ></rect><rect id="29-21" x="28" y="20" width="1" height="1" shape-rendering="crispEdges" ></rect><rect id="30-21" x="29" y="20" width="1" height="1" shape-rendering="crispEdges" ></rect><rect id="31-21" x="30" y="20" width="1" height="1" shape-rendering="crispEdges" ></rect><rect id="32-21" x="31" y="20" width="1" height="1" shape-rendering="crispEdges" ></rect><rect id="1-22" x="0" y="21" width="1" height="1" shape-rendering="crispEdges" ></rect><rect id="2-22" x="1" y="21" width="1" height="1" shape-rendering="crispEdges" ></rect><rect id="15-22" x="14" y="21" width="1" height="1" shape-rendering="crispEdges" ></rect><rect id="16-22" x="15" y="21" width="1" height="1" shape-rendering="crispEdges" ></rect><rect id="29-22" x="28" y="21" width="1" height="1" shape-rendering="crispEdges" ></rect><rect id="30-22" x="29" y="21" width="1" height="1" shape-rendering="crispEdges" ></rect><rect id="31-22" x="30" y="21" width="1" height="1" shape-rendering="crispEdges" ></rect><rect id="32-22" x="31" y="21" width="1" height="1" shape-rendering="crispEdges" ></rect><rect id="1-23" x="0" y="22" width="1" height="1" shape-rendering="crispEdges" ></rect><rect id="2-23" x="1" y="22" width="1" height="1" shape-rendering="crispEdges" ></rect><rect id="13-23" x="12" y="22" width="1" height="1" shape-rendering="crispEdges" ></rect><rect id="14-23" x="13" y="22" width="1" height="1" shape-rendering="crispEdges" ></rect><rect id="31-23" x="30" y="22" width="1" height="1" shape-rendering="crispEdges" ></rect><rect id="32-23" x="31" y="22" width="1" height="1" shape-rendering="crispEdges" ></rect><rect id="1-24" x="0" y="23" width="1" height="1" shape-rendering="crispEdges" ></rect><rect id="2-24" x="1" y="23" width="1" height="1" shape-rendering="crispEdges" ></rect><rect id="13-24" x="12" y="23" width="1" height="1" shape-rendering="crispEdges" ></rect><rect id="14-24" x="13" y="23" width="1" height="1" shape-rendering="crispEdges" ></rect><rect id="31-24" x="30" y="23" width="1" height="1" shape-rendering="crispEdges" ></rect><rect id="32-24" x="31" y="23" width="1" height="1" shape-rendering="crispEdges" ></rect><rect id="3-25" x="2" y="24" width="1" height="1" shape-rendering="crispEdges" ></rect><rect id="4-25" x="3" y="24" width="1" height="1" shape-rendering="crispEdges" ></rect><rect id="11-25" x="10" y="24" width="1" height="1" shape-rendering="crispEdges" ></rect><rect id="12-25" x="11" y="24" width="1" height="1" shape-rendering="crispEdges" ></rect><rect id="29-25" x="28" y="24" width="1" height="1" shape-rendering="crispEdges" ></rect><rect id="30-25" x="29" y="24" width="1" height="1" shape-rendering="crispEdges" ></rect><rect id="3-26" x="2" y="25" width="1" height="1" shape-rendering="crispEdges" ></rect><rect id="4-26" x="3" y="25" width="1" height="1" shape-rendering="crispEdges" ></rect><rect id="11-26" x="10" y="25" width="1" height="1" shape-rendering="crispEdges" ></rect><rect id="12-26" x="11" y="25" width="1" height="1" shape-rendering="crispEdges" ></rect><rect id="29-26" x="28" y="25" width="1" height="1" shape-rendering="crispEdges" ></rect><rect id="30-26" x="29" y="25" width="1" height="1" shape-rendering="crispEdges" ></rect><rect id="5-27" x="4" y="26" width="1" height="1" shape-rendering="crispEdges" ></rect><rect id="6-27" x="5" y="26" width="1" height="1" shape-rendering="crispEdges" ></rect><rect id="7-27" x="6" y="26" width="1" height="1" shape-rendering="crispEdges" ></rect><rect id="8-27" x="7" y="26" width="1" height="1" shape-rendering="crispEdges" ></rect><rect id="9-27" x="8" y="26" width="1" height="1" shape-rendering="crispEdges" ></rect><rect id="10-27" x="9" y="26" width="1" height="1" shape-rendering="crispEdges" ></rect><rect id="11-27" x="10" y="26" width="1" height="1" shape-rendering="crispEdges" ></rect><rect id="12-27" x="11" y="26" width="1" height="1" shape-rendering="crispEdges" ></rect><rect id="13-27" x="12" y="26" width="1" height="1" shape-rendering="crispEdges" ></rect><rect id="14-27" x="13" y="26" width="1" height="1" shape-rendering="crispEdges" ></rect><rect id="15-27" x="14" y="26" width="1" height="1" shape-rendering="crispEdges" ></rect><rect id="16-27" x="15" y="26" width="1" height="1" shape-rendering="crispEdges" ></rect><rect id="17-27" x="16" y="26" width="1" height="1" shape-rendering="crispEdges" ></rect><rect id="18-27" x="17" y="26" width="1" height="1" shape-rendering="crispEdges" ></rect><rect id="19-27" x="18" y="26" width="1" height="1" shape-rendering="crispEdges" ></rect><rect id="20-27" x="19" y="26" width="1" height="1" shape-rendering="crispEdges" ></rect><rect id="21-27" x="20" y="26" width="1" height="1" shape-rendering="crispEdges" ></rect><rect id="22-27" x="21" y="26" width="1" height="1" shape-rendering="crispEdges" ></rect><rect id="23-27" x="22" y="26" width="1" height="1" shape-rendering="crispEdges" ></rect><rect id="24-27" x="23" y="26" width="1" height="1" shape-rendering="crispEdges" ></rect><rect id="25-27" x="24" y="26" width="1" height="1" shape-rendering="crispEdges" ></rect><rect id="26-27" x="25" y="26" width="1" height="1" shape-rendering="crispEdges" ></rect><rect id="27-27" x="26" y="26" width="1" height="1" shape-rendering="crispEdges" ></rect><rect id="28-27" x="27" y="26" width="1" height="1" shape-rendering="crispEdges" ></rect><rect id="5-28" x="4" y="27" width="1" height="1" shape-rendering="crispEdges" ></rect><rect id="6-28" x="5" y="27" width="1" height="1" shape-rendering="crispEdges" ></rect><rect id="7-28" x="6" y="27" width="1" height="1" shape-rendering="crispEdges" ></rect><rect id="8-28" x="7" y="27" width="1" height="1" shape-rendering="crispEdges" ></rect><rect id="9-28" x="8" y="27" width="1" height="1" shape-rendering="crispEdges" ></rect><rect id="10-28" x="9" y="27" width="1" height="1" shape-rendering="crispEdges" ></rect><rect id="11-28" x="10" y="27" width="1" height="1" shape-rendering="crispEdges" ></rect><rect id="12-28" x="11" y="27" width="1" height="1" shape-rendering="crispEdges" ></rect><rect id="13-28" x="12" y="27" width="1" height="1" shape-rendering="crispEdges" ></rect><rect id="14-28" x="13" y="27" width="1" height="1" shape-rendering="crispEdges" ></rect><rect id="15-28" x="14" y="27" width="1" height="1" shape-rendering="crispEdges" ></rect><rect id="16-28" x="15" y="27" width="1" height="1" shape-rendering="crispEdges" ></rect><rect id="17-28" x="16" y="27" width="1" height="1" shape-rendering="crispEdges" ></rect><rect id="18-28" x="17" y="27" width="1" height="1" shape-rendering="crispEdges" ></rect><rect id="19-28" x="18" y="27" width="1" height="1" shape-rendering="crispEdges" ></rect><rect id="20-28" x="19" y="27" width="1" height="1" shape-rendering="crispEdges" ></rect><rect id="21-28" x="20" y="27" width="1" height="1" shape-rendering="crispEdges" ></rect><rect id="22-28" x="21" y="27" width="1" height="1" shape-rendering="crispEdges" ></rect><rect id="23-28" x="22" y="27" width="1" height="1" shape-rendering="crispEdges" ></rect><rect id="24-28" x="23" y="27" width="1" height="1" shape-rendering="crispEdges" ></rect><rect id="25-28" x="24" y="27" width="1" height="1" shape-rendering="crispEdges" ></rect><rect id="26-28" x="25" y="27" width="1" height="1" shape-rendering="crispEdges" ></rect><rect id="27-28" x="26" y="27" width="1" height="1" shape-rendering="crispEdges" ></rect><rect id="28-28" x="27" y="27" width="1" height="1" shape-rendering="crispEdges" ></rect></svg>