<?xml version="1.0" encoding="UTF-8" standalone="no"?><svg xmlns="http://www.w3.org/2000/svg" id="ilmov2" width="32" height="32" viewBox="0 0 32 32" preserveAspectRatio="xMidYMid meet" rendering="crispEdges"><rect id="9-5" x="8" y="4" width="1" height="1" shape-rendering="crispEdges" ></rect><rect id="10-5" x="9" y="4" width="1" height="1" shape-rendering="crispEdges" ></rect><rect id="11-5" x="10" y="4" width="1" height="1" shape-rendering="crispEdges" ></rect><rect id="12-5" x="11" y="4" width="1" height="1" shape-rendering="crispEdges" ></rect><rect id="13-5" x="12" y="4" width="1" height="1" shape-rendering="crispEdges" ></rect><rect id="14-5" x="13" y="4" width="1" height="1" shape-rendering="crispEdges" ></rect><rect id="9-6" x="8" y="5" width="1" height="1" shape-rendering="crispEdges" ></rect><rect id="10-6" x="9" y="5" width="1" height="1" shape-rendering="crispEdges" ></rect><rect id="11-6" x="10" y="5" width="1" height="1" shape-rendering="crispEdges" ></rect><rect id="12-6" x="11" y="5" width="1" height="1" shape-rendering="crispEdges" ></rect><rect id="13-6" x="12" y="5" width="1" height="1" shape-rendering="crispEdges" ></rect><rect id="14-6" x="13" y="5" width="1" height="1" shape-rendering="crispEdges" ></rect><rect id="7-7" x="6" y="6" width="1" height="1" shape-rendering="crispEdges" ></rect><rect id="8-7" x="7" y="6" width="1" height="1" shape-rendering="crispEdges" ></rect><rect id="15-7" x="14" y="6" width="1" height="1" shape-rendering="crispEdges" ></rect><rect id="16-7" x="15" y="6" width="1" height="1" shape-rendering="crispEdges" ></rect><rect id="7-8" x="6" y="7" width="1" height="1" shape-rendering="crispEdges" ></rect><rect id="8-8" x="7" y="7" width="1" height="1" shape-rendering="crispEdges" ></rect><rect id="15-8" x="14" y="7" width="1" height="1" shape-rendering="crispEdges" ></rect><rect id="16-8" x="15" y="7" width="1" height="1" shape-rendering="crispEdges" ></rect><rect id="7-9" x="6" y="8" width="1" height="1" shape-rendering="crispEdges" ></rect><rect id="8-9" x="7" y="8" width="1" height="1" shape-rendering="crispEdges" ></rect><rect id="15-9" x="14" y="8" width="1" height="1" shape-rendering="crispEdges" ></rect><rect id="16-9" x="15" y="8" width="1" height="1" shape-rendering="crispEdges" ></rect><rect id="7-10" x="6" y="9" width="1" height="1" shape-rendering="crispEdges" ></rect><rect id="8-10" x="7" y="9" width="1" height="1" shape-rendering="crispEdges" ></rect><rect id="15-10" x="14" y="9" width="1" height="1" shape-rendering="crispEdges" ></rect><rect id="16-10" x="15" y="9" width="1" height="1" shape-rendering="crispEdges" ></rect><rect id="7-11" x="6" y="10" width="1" height="1" shape-rendering="crispEdges" ></rect><rect id="8-11" x="7" y="10" width="1" height="1" shape-rendering="crispEdges" ></rect><rect id="15-11" x="14" y="10" width="1" height="1" shape-rendering="crispEdges" ></rect><rect id="16-11" x="15" y="10" width="1" height="1" shape-rendering="crispEdges" ></rect><rect id="17-11" x="16" y="10" width="1" height="1" shape-rendering="crispEdges" ></rect><rect id="18-11" x="17" y="10" width="1" height="1" shape-rendering="crispEdges" ></rect><rect id="7-12" x="6" y="11" width="1" height="1" shape-rendering="crispEdges" ></rect><rect id="8-12" x="7" y="11" width="1" height="1" shape-rendering="crispEdges" ></rect><rect id="15-12" x="14" y="11" width="1" height="1" shape-rendering="crispEdges" ></rect><rect id="16-12" x="15" y="11" width="1" height="1" shape-rendering="crispEdges" ></rect><rect id="17-12" x="16" y="11" width="1" height="1" shape-rendering="crispEdges" ></rect><rect id="18-12" x="17" y="11" width="1" height="1" shape-rendering="crispEdges" ></rect><rect id="7-13" x="6" y="12" width="1" height="1" shape-rendering="crispEdges" ></rect><rect id="8-13" x="7" y="12" width="1" height="1" shape-rendering="crispEdges" ></rect><rect id="9-13" x="8" y="12" width="1" height="1" shape-rendering="crispEdges" ></rect><rect id="10-13" x="9" y="12" width="1" height="1" shape-rendering="crispEdges" ></rect><rect id="17-13" x="16" y="12" width="1" height="1" shape-rendering="crispEdges" ></rect><rect id="18-13" x="17" y="12" width="1" height="1" shape-rendering="crispEdges" ></rect><rect id="7-14" x="6" y="13" width="1" height="1" shape-rendering="crispEdges" ></rect><rect id="8-14" x="7" y="13" width="1" height="1" shape-rendering="crispEdges" ></rect><rect id="9-14" x="8" y="13" width="1" height="1" shape-rendering="crispEdges" ></rect><rect id="10-14" x="9" y="13" width="1" height="1" shape-rendering="crispEdges" ></rect><rect id="17-14" x="16" y="13" width="1" height="1" shape-rendering="crispEdges" ></rect><rect id="18-14" x="17" y="13" width="1" height="1" shape-rendering="crispEdges" ></rect><rect id="1-15" x="0" y="14" width="1" height="1" shape-rendering="crispEdges" ></rect><rect id="2-15" x="1" y="14" width="1" height="1" shape-rendering="crispEdges" ></rect><rect id="5-15" x="4" y="14" width="1" height="1" shape-rendering="crispEdges" ></rect><rect id="6-15" x="5" y="14" width="1" height="1" shape-rendering="crispEdges" ></rect><rect id="9-15" x="8" y="14" width="1" height="1" shape-rendering="crispEdges" ></rect><rect id="10-15" x="9" y="14" width="1" height="1" shape-rendering="crispEdges" ></rect><rect id="15-15" x="14" y="14" width="1" height="1" shape-rendering="crispEdges" ></rect><rect id="16-15" x="15" y="14" width="1" height="1" shape-rendering="crispEdges" ></rect><rect id="17-15" x="16" y="14" width="1" height="1" shape-rendering="crispEdges" ></rect><rect id="18-15" x="17" y="14" width="1" height="1" shape-rendering="crispEdges" ></rect><rect id="19-15" x="18" y="14" width="1" height="1" shape-rendering="crispEdges" ></rect><rect id="20-15" x="19" y="14" width="1" height="1" shape-rendering="crispEdges" ></rect><rect id="21-15" x="20" y="14" width="1" height="1" shape-rendering="crispEdges" ></rect><rect id="22-15" x="21" y="14" width="1" height="1" shape-rendering="crispEdges" ></rect><rect id="27-15" x="26" y="14" width="1" height="1" shape-rendering="crispEdges" ></rect><rect id="28-15" x="27" y="14" width="1" height="1" shape-rendering="crispEdges" ></rect><rect id="1-16" x="0" y="15" width="1" height="1" shape-rendering="crispEdges" ></rect><rect id="2-16" x="1" y="15" width="1" height="1" shape-rendering="crispEdges" ></rect><rect id="5-16" x="4" y="15" width="1" height="1" shape-rendering="crispEdges" ></rect><rect id="6-16" x="5" y="15" width="1" height="1" shape-rendering="crispEdges" ></rect><rect id="9-16" x="8" y="15" width="1" height="1" shape-rendering="crispEdges" ></rect><rect id="10-16" x="9" y="15" width="1" height="1" shape-rendering="crispEdges" ></rect><rect id="15-16" x="14" y="15" width="1" height="1" shape-rendering="crispEdges" ></rect><rect id="16-16" x="15" y="15" width="1" height="1" shape-rendering="crispEdges" ></rect><rect id="17-16" x="16" y="15" width="1" height="1" shape-rendering="crispEdges" ></rect><rect id="18-16" x="17" y="15" width="1" height="1" shape-rendering="crispEdges" ></rect><rect id="19-16" x="18" y="15" width="1" height="1" shape-rendering="crispEdges" ></rect><rect id="20-16" x="19" y="15" width="1" height="1" shape-rendering="crispEdges" ></rect><rect id="21-16" x="20" y="15" width="1" height="1" shape-rendering="crispEdges" ></rect><rect id="22-16" x="21" y="15" width="1" height="1" shape-rendering="crispEdges" ></rect><rect id="27-16" x="26" y="15" width="1" height="1" shape-rendering="crispEdges" ></rect><rect id="28-16" x="27" y="15" width="1" height="1" shape-rendering="crispEdges" ></rect><rect id="3-17" x="2" y="16" width="1" height="1" shape-rendering="crispEdges" ></rect><rect id="4-17" x="3" y="16" width="1" height="1" shape-rendering="crispEdges" ></rect><rect id="13-17" x="12" y="16" width="1" height="1" shape-rendering="crispEdges" ></rect><rect id="14-17" x="13" y="16" width="1" height="1" shape-rendering="crispEdges" ></rect><rect id="17-17" x="16" y="16" width="1" height="1" shape-rendering="crispEdges" ></rect><rect id="18-17" x="17" y="16" width="1" height="1" shape-rendering="crispEdges" ></rect><rect id="21-17" x="20" y="16" width="1" height="1" shape-rendering="crispEdges" ></rect><rect id="22-17" x="21" y="16" width="1" height="1" shape-rendering="crispEdges" ></rect><rect id="25-17" x="24" y="16" width="1" height="1" shape-rendering="crispEdges" ></rect><rect id="26-17" x="25" y="16" width="1" height="1" shape-rendering="crispEdges" ></rect><rect id="29-17" x="28" y="16" width="1" height="1" shape-rendering="crispEdges" ></rect><rect id="30-17" x="29" y="16" width="1" height="1" shape-rendering="crispEdges" ></rect><rect id="3-18" x="2" y="17" width="1" height="1" shape-rendering="crispEdges" ></rect><rect id="4-18" x="3" y="17" width="1" height="1" shape-rendering="crispEdges" ></rect><rect id="13-18" x="12" y="17" width="1" height="1" shape-rendering="crispEdges" ></rect><rect id="14-18" x="13" y="17" width="1" height="1" shape-rendering="crispEdges" ></rect><rect id="17-18" x="16" y="17" width="1" height="1" shape-rendering="crispEdges" ></rect><rect id="18-18" x="17" y="17" width="1" height="1" shape-rendering="crispEdges" ></rect><rect id="21-18" x="20" y="17" width="1" height="1" shape-rendering="crispEdges" ></rect><rect id="22-18" x="21" y="17" width="1" height="1" shape-rendering="crispEdges" ></rect><rect id="25-18" x="24" y="17" width="1" height="1" shape-rendering="crispEdges" ></rect><rect id="26-18" x="25" y="17" width="1" height="1" shape-rendering="crispEdges" ></rect><rect id="29-18" x="28" y="17" width="1" height="1" shape-rendering="crispEdges" ></rect><rect id="30-18" x="29" y="17" width="1" height="1" shape-rendering="crispEdges" ></rect><rect id="1-19" x="0" y="18" width="1" height="1" shape-rendering="crispEdges" ></rect><rect id="2-19" x="1" y="18" width="1" height="1" shape-rendering="crispEdges" ></rect><rect id="5-19" x="4" y="18" width="1" height="1" shape-rendering="crispEdges" ></rect><rect id="6-19" x="5" y="18" width="1" height="1" shape-rendering="crispEdges" ></rect><rect id="11-19" x="10" y="18" width="1" height="1" shape-rendering="crispEdges" ></rect><rect id="12-19" x="11" y="18" width="1" height="1" shape-rendering="crispEdges" ></rect><rect id="17-19" x="16" y="18" width="1" height="1" shape-rendering="crispEdges" ></rect><rect id="18-19" x="17" y="18" width="1" height="1" shape-rendering="crispEdges" ></rect><rect id="21-19" x="20" y="18" width="1" height="1" shape-rendering="crispEdges" ></rect><rect id="22-19" x="21" y="18" width="1" height="1" shape-rendering="crispEdges" ></rect><rect id="23-19" x="22" y="18" width="1" height="1" shape-rendering="crispEdges" ></rect><rect id="24-19" x="23" y="18" width="1" height="1" shape-rendering="crispEdges" ></rect><rect id="29-19" x="28" y="18" width="1" height="1" shape-rendering="crispEdges" ></rect><rect id="30-19" x="29" y="18" width="1" height="1" shape-rendering="crispEdges" ></rect><rect id="1-20" x="0" y="19" width="1" height="1" shape-rendering="crispEdges" ></rect><rect id="2-20" x="1" y="19" width="1" height="1" shape-rendering="crispEdges" ></rect><rect id="5-20" x="4" y="19" width="1" height="1" shape-rendering="crispEdges" ></rect><rect id="6-20" x="5" y="19" width="1" height="1" shape-rendering="crispEdges" ></rect><rect id="11-20" x="10" y="19" width="1" height="1" shape-rendering="crispEdges" ></rect><rect id="12-20" x="11" y="19" width="1" height="1" shape-rendering="crispEdges" ></rect><rect id="17-20" x="16" y="19" width="1" height="1" shape-rendering="crispEdges" ></rect><rect id="18-20" x="17" y="19" width="1" height="1" shape-rendering="crispEdges" ></rect><rect id="21-20" x="20" y="19" width="1" height="1" shape-rendering="crispEdges" ></rect><rect id="22-20" x="21" y="19" width="1" height="1" shape-rendering="crispEdges" ></rect><rect id="23-20" x="22" y="19" width="1" height="1" shape-rendering="crispEdges" ></rect><rect id="24-20" x="23" y="19" width="1" height="1" shape-rendering="crispEdges" ></rect><rect id="29-20" x="28" y="19" width="1" height="1" shape-rendering="crispEdges" ></rect><rect id="30-20" x="29" y="19" width="1" height="1" shape-rendering="crispEdges" ></rect><rect id="9-21" x="8" y="20" width="1" height="1" shape-rendering="crispEdges" ></rect><rect id="10-21" x="9" y="20" width="1" height="1" shape-rendering="crispEdges" ></rect><rect id="17-21" x="16" y="20" width="1" height="1" shape-rendering="crispEdges" ></rect><rect id="18-21" x="17" y="20" width="1" height="1" shape-rendering="crispEdges" ></rect><rect id="9-22" x="8" y="21" width="1" height="1" shape-rendering="crispEdges" ></rect><rect id="10-22" x="9" y="21" width="1" height="1" shape-rendering="crispEdges" ></rect><rect id="17-22" x="16" y="21" width="1" height="1" shape-rendering="crispEdges" ></rect><rect id="18-22" x="17" y="21" width="1" height="1" shape-rendering="crispEdges" ></rect><rect id="1-23" x="0" y="22" width="1" height="1" shape-rendering="crispEdges" ></rect><rect id="2-23" x="1" y="22" width="1" height="1" shape-rendering="crispEdges" ></rect><rect id="3-23" x="2" y="22" width="1" height="1" shape-rendering="crispEdges" ></rect><rect id="4-23" x="3" y="22" width="1" height="1" shape-rendering="crispEdges" ></rect><rect id="5-23" x="4" y="22" width="1" height="1" shape-rendering="crispEdges" ></rect><rect id="6-23" x="5" y="22" width="1" height="1" shape-rendering="crispEdges" ></rect><rect id="7-23" x="6" y="22" width="1" height="1" shape-rendering="crispEdges" ></rect><rect id="8-23" x="7" y="22" width="1" height="1" shape-rendering="crispEdges" ></rect><rect id="9-23" x="8" y="22" width="1" height="1" shape-rendering="crispEdges" ></rect><rect id="10-23" x="9" y="22" width="1" height="1" shape-rendering="crispEdges" ></rect><rect id="11-23" x="10" y="22" width="1" height="1" shape-rendering="crispEdges" ></rect><rect id="12-23" x="11" y="22" width="1" height="1" shape-rendering="crispEdges" ></rect><rect id="13-23" x="12" y="22" width="1" height="1" shape-rendering="crispEdges" ></rect><rect id="14-23" x="13" y="22" width="1" height="1" shape-rendering="crispEdges" ></rect><rect id="15-23" x="14" y="22" width="1" height="1" shape-rendering="crispEdges" ></rect><rect id="16-23" x="15" y="22" width="1" height="1" shape-rendering="crispEdges" ></rect><rect id="17-23" x="16" y="22" width="1" height="1" shape-rendering="crispEdges" ></rect><rect id="18-23" x="17" y="22" width="1" height="1" shape-rendering="crispEdges" ></rect><rect id="19-23" x="18" y="22" width="1" height="1" shape-rendering="crispEdges" ></rect><rect id="20-23" x="19" y="22" width="1" height="1" shape-rendering="crispEdges" ></rect><rect id="21-23" x="20" y="22" width="1" height="1" shape-rendering="crispEdges" ></rect><rect id="22-23" x="21" y="22" width="1" height="1" shape-rendering="crispEdges" ></rect><rect id="23-23" x="22" y="22" width="1" height="1" shape-rendering="crispEdges" ></rect><rect id="24-23" x="23" y="22" width="1" height="1" shape-rendering="crispEdges" ></rect><rect id="25-23" x="24" y="22" width="1" height="1" shape-rendering="crispEdges" ></rect><rect id="26-23" x="25" y="22" width="1" height="1" shape-rendering="crispEdges" ></rect><rect id="27-23" x="26" y="22" width="1" height="1" shape-rendering="crispEdges" ></rect><rect id="28-23" x="27" y="22" width="1" height="1" shape-rendering="crispEdges" ></rect><rect id="29-23" x="28" y="22" width="1" height="1" shape-rendering="crispEdges" ></rect><rect id="30-23" x="29" y="22" width="1" height="1" shape-rendering="crispEdges" ></rect><rect id="31-23" x="30" y="22" width="1" height="1" shape-rendering="crispEdges" ></rect><rect id="32-23" x="31" y="22" width="1" height="1" shape-rendering="crispEdges" ></rect><rect id="1-24" x="0" y="23" width="1" height="1" shape-rendering="crispEdges" ></rect><rect id="2-24" x="1" y="23" width="1" height="1" shape-rendering="crispEdges" ></rect><rect id="3-24" x="2" y="23" width="1" height="1" shape-rendering="crispEdges" ></rect><rect id="4-24" x="3" y="23" width="1" height="1" shape-rendering="crispEdges" ></rect><rect id="5-24" x="4" y="23" width="1" height="1" shape-rendering="crispEdges" ></rect><rect id="6-24" x="5" y="23" width="1" height="1" shape-rendering="crispEdges" ></rect><rect id="7-24" x="6" y="23" width="1" height="1" shape-rendering="crispEdges" ></rect><rect id="8-24" x="7" y="23" width="1" height="1" shape-rendering="crispEdges" ></rect><rect id="9-24" x="8" y="23" width="1" height="1" shape-rendering="crispEdges" ></rect><rect id="10-24" x="9" y="23" width="1" height="1" shape-rendering="crispEdges" ></rect><rect id="11-24" x="10" y="23" width="1" height="1" shape-rendering="crispEdges" ></rect><rect id="12-24" x="11" y="23" width="1" height="1" shape-rendering="crispEdges" ></rect><rect id="13-24" x="12" y="23" width="1" height="1" shape-rendering="crispEdges" ></rect><rect id="14-24" x="13" y="23" width="1" height="1" shape-rendering="crispEdges" ></rect><rect id="15-24" x="14" y="23" width="1" height="1" shape-rendering="crispEdges" ></rect><rect id="16-24" x="15" y="23" width="1" height="1" shape-rendering="crispEdges" ></rect><rect id="17-24" x="16" y="23" width="1" height="1" shape-rendering="crispEdges" ></rect><rect id="18-24" x="17" y="23" width="1" height="1" shape-rendering="crispEdges" ></rect><rect id="19-24" x="18" y="23" width="1" height="1" shape-rendering="crispEdges" ></rect><rect id="20-24" x="19" y="23" width="1" height="1" shape-rendering="crispEdges" ></rect><rect id="21-24" x="20" y="23" width="1" height="1" shape-rendering="crispEdges" ></rect><rect id="22-24" x="21" y="23" width="1" height="1" shape-rendering="crispEdges" ></rect><rect id="23-24" x="22" y="23" width="1" height="1" shape-rendering="crispEdges" ></rect><rect id="24-24" x="23" y="23" width="1" height="1" shape-rendering="crispEdges" ></rect><rect id="25-24" x="24" y="23" width="1" height="1" shape-rendering="crispEdges" ></rect><rect id="26-24" x="25" y="23" width="1" height="1" shape-rendering="crispEdges" ></rect><rect id="27-24" x="26" y="23" width="1" height="1" shape-rendering="crispEdges" ></rect><rect id="28-24" x="27" y="23" width="1" height="1" shape-rendering="crispEdges" ></rect><rect id="29-24" x="28" y="23" width="1" height="1" shape-rendering="crispEdges" ></rect><rect id="30-24" x="29" y="23" width="1" height="1" shape-rendering="crispEdges" ></rect><rect id="31-24" x="30" y="23" width="1" height="1" shape-rendering="crispEdges" ></rect><rect id="32-24" x="31" y="23" width="1" height="1" shape-rendering="crispEdges" ></rect><rect id="9-25" x="8" y="24" width="1" height="1" shape-rendering="crispEdges" ></rect><rect id="10-25" x="9" y="24" width="1" height="1" shape-rendering="crispEdges" ></rect><rect id="15-25" x="14" y="24" width="1" height="1" shape-rendering="crispEdges" ></rect><rect id="16-25" x="15" y="24" width="1" height="1" shape-rendering="crispEdges" ></rect><rect id="9-26" x="8" y="25" width="1" height="1" shape-rendering="crispEdges" ></rect><rect id="10-26" x="9" y="25" width="1" height="1" shape-rendering="crispEdges" ></rect><rect id="15-26" x="14" y="25" width="1" height="1" shape-rendering="crispEdges" ></rect><rect id="16-26" x="15" y="25" width="1" height="1" shape-rendering="crispEdges" ></rect><rect id="11-27" x="10" y="26" width="1" height="1" shape-rendering="crispEdges" ></rect><rect id="12-27" x="11" y="26" width="1" height="1" shape-rendering="crispEdges" ></rect><rect id="13-27" x="12" y="26" width="1" height="1" shape-rendering="crispEdges" ></rect><rect id="14-27" x="13" y="26" width="1" height="1" shape-rendering="crispEdges" ></rect><rect id="11-28" x="10" y="27" width="1" height="1" shape-rendering="crispEdges" ></rect><rect id="12-28" x="11" y="27" width="1" height="1" shape-rendering="crispEdges" ></rect><rect id="13-28" x="12" y="27" width="1" height="1" shape-rendering="crispEdges" ></rect><rect id="14-28" x="13" y="27" width="1" height="1" shape-rendering="crispEdges" ></rect></svg>