<?xml version="1.0" encoding="UTF-8"?>
<svg version="1.1" xmlns="http://www.w3.org/2000/svg" width="32" height="32">
<path d="M0 0 C5.94 0 11.88 0 18 0 C18 2.97 18 5.94 18 9 C18.66 9 19.32 9 20 9 C20 10.98 20 12.96 20 15 C19.34 15 18.68 15 18 15 C18 17.97 18 20.94 18 24 C19.32 24 20.64 24 22 24 C22 24.66 22 25.32 22 26 C13.42 26 4.84 26 -4 26 C-4 25.34 -4 24.68 -4 24 C-2.68 24 -1.36 24 0 24 C0 21.03 0 18.06 0 15 C-0.66 15 -1.32 15 -2 15 C-2 13.02 -2 11.04 -2 9 C-1.34 9 -0.68 9 0 9 C0 6.03 0 3.06 0 0 Z M2 2 C2 4.97 2 7.94 2 11 C1.34 11 0.68 11 0 11 C0 11.66 0 12.32 0 13 C5.94 13 11.88 13 18 13 C18 12.34 18 11.68 18 11 C17.34 11 16.68 11 16 11 C16 8.03 16 5.06 16 2 C11.38 2 6.76 2 2 2 Z M2 15 C2 17.97 2 20.94 2 24 C6.62 24 11.24 24 16 24 C16 21.03 16 18.06 16 15 C11.38 15 6.76 15 2 15 Z " fill="#000000" transform="translate(7,3)"/>
</svg>
