<?xml version="1.0" encoding="UTF-8" standalone="no"?><svg xmlns="http://www.w3.org/2000/svg" id="kimble" width="32" height="32" viewBox="0 0 32 32" preserveAspectRatio="xMidYMid meet" rendering="crispEdges"><rect id="13-5" x="12" y="4" width="1" height="1" shape-rendering="crispEdges" ></rect><rect id="14-5" x="13" y="4" width="1" height="1" shape-rendering="crispEdges" ></rect><rect id="15-5" x="14" y="4" width="1" height="1" shape-rendering="crispEdges" ></rect><rect id="16-5" x="15" y="4" width="1" height="1" shape-rendering="crispEdges" ></rect><rect id="17-5" x="16" y="4" width="1" height="1" shape-rendering="crispEdges" ></rect><rect id="18-5" x="17" y="4" width="1" height="1" shape-rendering="crispEdges" ></rect><rect id="19-5" x="18" y="4" width="1" height="1" shape-rendering="crispEdges" ></rect><rect id="20-5" x="19" y="4" width="1" height="1" shape-rendering="crispEdges" ></rect><rect id="13-6" x="12" y="5" width="1" height="1" shape-rendering="crispEdges" ></rect><rect id="14-6" x="13" y="5" width="1" height="1" shape-rendering="crispEdges" ></rect><rect id="15-6" x="14" y="5" width="1" height="1" shape-rendering="crispEdges" ></rect><rect id="16-6" x="15" y="5" width="1" height="1" shape-rendering="crispEdges" ></rect><rect id="17-6" x="16" y="5" width="1" height="1" shape-rendering="crispEdges" ></rect><rect id="18-6" x="17" y="5" width="1" height="1" shape-rendering="crispEdges" ></rect><rect id="19-6" x="18" y="5" width="1" height="1" shape-rendering="crispEdges" ></rect><rect id="20-6" x="19" y="5" width="1" height="1" shape-rendering="crispEdges" ></rect><rect id="9-7" x="8" y="6" width="1" height="1" shape-rendering="crispEdges" ></rect><rect id="10-7" x="9" y="6" width="1" height="1" shape-rendering="crispEdges" ></rect><rect id="11-7" x="10" y="6" width="1" height="1" shape-rendering="crispEdges" ></rect><rect id="12-7" x="11" y="6" width="1" height="1" shape-rendering="crispEdges" ></rect><rect id="21-7" x="20" y="6" width="1" height="1" shape-rendering="crispEdges" ></rect><rect id="22-7" x="21" y="6" width="1" height="1" shape-rendering="crispEdges" ></rect><rect id="23-7" x="22" y="6" width="1" height="1" shape-rendering="crispEdges" ></rect><rect id="24-7" x="23" y="6" width="1" height="1" shape-rendering="crispEdges" ></rect><rect id="9-8" x="8" y="7" width="1" height="1" shape-rendering="crispEdges" ></rect><rect id="10-8" x="9" y="7" width="1" height="1" shape-rendering="crispEdges" ></rect><rect id="11-8" x="10" y="7" width="1" height="1" shape-rendering="crispEdges" ></rect><rect id="12-8" x="11" y="7" width="1" height="1" shape-rendering="crispEdges" ></rect><rect id="21-8" x="20" y="7" width="1" height="1" shape-rendering="crispEdges" ></rect><rect id="22-8" x="21" y="7" width="1" height="1" shape-rendering="crispEdges" ></rect><rect id="23-8" x="22" y="7" width="1" height="1" shape-rendering="crispEdges" ></rect><rect id="24-8" x="23" y="7" width="1" height="1" shape-rendering="crispEdges" ></rect><rect id="7-9" x="6" y="8" width="1" height="1" shape-rendering="crispEdges" ></rect><rect id="8-9" x="7" y="8" width="1" height="1" shape-rendering="crispEdges" ></rect><rect id="25-9" x="24" y="8" width="1" height="1" shape-rendering="crispEdges" ></rect><rect id="26-9" x="25" y="8" width="1" height="1" shape-rendering="crispEdges" ></rect><rect id="7-10" x="6" y="9" width="1" height="1" shape-rendering="crispEdges" ></rect><rect id="8-10" x="7" y="9" width="1" height="1" shape-rendering="crispEdges" ></rect><rect id="25-10" x="24" y="9" width="1" height="1" shape-rendering="crispEdges" ></rect><rect id="26-10" x="25" y="9" width="1" height="1" shape-rendering="crispEdges" ></rect><rect id="5-11" x="4" y="10" width="1" height="1" shape-rendering="crispEdges" ></rect><rect id="6-11" x="5" y="10" width="1" height="1" shape-rendering="crispEdges" ></rect><rect id="13-11" x="12" y="10" width="1" height="1" shape-rendering="crispEdges" ></rect><rect id="14-11" x="13" y="10" width="1" height="1" shape-rendering="crispEdges" ></rect><rect id="15-11" x="14" y="10" width="1" height="1" shape-rendering="crispEdges" ></rect><rect id="16-11" x="15" y="10" width="1" height="1" shape-rendering="crispEdges" ></rect><rect id="17-11" x="16" y="10" width="1" height="1" shape-rendering="crispEdges" ></rect><rect id="18-11" x="17" y="10" width="1" height="1" shape-rendering="crispEdges" ></rect><rect id="27-11" x="26" y="10" width="1" height="1" shape-rendering="crispEdges" ></rect><rect id="28-11" x="27" y="10" width="1" height="1" shape-rendering="crispEdges" ></rect><rect id="5-12" x="4" y="11" width="1" height="1" shape-rendering="crispEdges" ></rect><rect id="6-12" x="5" y="11" width="1" height="1" shape-rendering="crispEdges" ></rect><rect id="13-12" x="12" y="11" width="1" height="1" shape-rendering="crispEdges" ></rect><rect id="14-12" x="13" y="11" width="1" height="1" shape-rendering="crispEdges" ></rect><rect id="15-12" x="14" y="11" width="1" height="1" shape-rendering="crispEdges" ></rect><rect id="16-12" x="15" y="11" width="1" height="1" shape-rendering="crispEdges" ></rect><rect id="17-12" x="16" y="11" width="1" height="1" shape-rendering="crispEdges" ></rect><rect id="18-12" x="17" y="11" width="1" height="1" shape-rendering="crispEdges" ></rect><rect id="27-12" x="26" y="11" width="1" height="1" shape-rendering="crispEdges" ></rect><rect id="28-12" x="27" y="11" width="1" height="1" shape-rendering="crispEdges" ></rect><rect id="3-13" x="2" y="12" width="1" height="1" shape-rendering="crispEdges" ></rect><rect id="4-13" x="3" y="12" width="1" height="1" shape-rendering="crispEdges" ></rect><rect id="11-13" x="10" y="12" width="1" height="1" shape-rendering="crispEdges" ></rect><rect id="12-13" x="11" y="12" width="1" height="1" shape-rendering="crispEdges" ></rect><rect id="19-13" x="18" y="12" width="1" height="1" shape-rendering="crispEdges" ></rect><rect id="20-13" x="19" y="12" width="1" height="1" shape-rendering="crispEdges" ></rect><rect id="29-13" x="28" y="12" width="1" height="1" shape-rendering="crispEdges" ></rect><rect id="30-13" x="29" y="12" width="1" height="1" shape-rendering="crispEdges" ></rect><rect id="3-14" x="2" y="13" width="1" height="1" shape-rendering="crispEdges" ></rect><rect id="4-14" x="3" y="13" width="1" height="1" shape-rendering="crispEdges" ></rect><rect id="11-14" x="10" y="13" width="1" height="1" shape-rendering="crispEdges" ></rect><rect id="12-14" x="11" y="13" width="1" height="1" shape-rendering="crispEdges" ></rect><rect id="19-14" x="18" y="13" width="1" height="1" shape-rendering="crispEdges" ></rect><rect id="20-14" x="19" y="13" width="1" height="1" shape-rendering="crispEdges" ></rect><rect id="29-14" x="28" y="13" width="1" height="1" shape-rendering="crispEdges" ></rect><rect id="30-14" x="29" y="13" width="1" height="1" shape-rendering="crispEdges" ></rect><rect id="3-15" x="2" y="14" width="1" height="1" shape-rendering="crispEdges" ></rect><rect id="4-15" x="3" y="14" width="1" height="1" shape-rendering="crispEdges" ></rect><rect id="9-15" x="8" y="14" width="1" height="1" shape-rendering="crispEdges" ></rect><rect id="10-15" x="9" y="14" width="1" height="1" shape-rendering="crispEdges" ></rect><rect id="13-15" x="12" y="14" width="1" height="1" shape-rendering="crispEdges" ></rect><rect id="14-15" x="13" y="14" width="1" height="1" shape-rendering="crispEdges" ></rect><rect id="17-15" x="16" y="14" width="1" height="1" shape-rendering="crispEdges" ></rect><rect id="18-15" x="17" y="14" width="1" height="1" shape-rendering="crispEdges" ></rect><rect id="21-15" x="20" y="14" width="1" height="1" shape-rendering="crispEdges" ></rect><rect id="22-15" x="21" y="14" width="1" height="1" shape-rendering="crispEdges" ></rect><rect id="29-15" x="28" y="14" width="1" height="1" shape-rendering="crispEdges" ></rect><rect id="30-15" x="29" y="14" width="1" height="1" shape-rendering="crispEdges" ></rect><rect id="3-16" x="2" y="15" width="1" height="1" shape-rendering="crispEdges" ></rect><rect id="4-16" x="3" y="15" width="1" height="1" shape-rendering="crispEdges" ></rect><rect id="9-16" x="8" y="15" width="1" height="1" shape-rendering="crispEdges" ></rect><rect id="10-16" x="9" y="15" width="1" height="1" shape-rendering="crispEdges" ></rect><rect id="13-16" x="12" y="15" width="1" height="1" shape-rendering="crispEdges" ></rect><rect id="14-16" x="13" y="15" width="1" height="1" shape-rendering="crispEdges" ></rect><rect id="17-16" x="16" y="15" width="1" height="1" shape-rendering="crispEdges" ></rect><rect id="18-16" x="17" y="15" width="1" height="1" shape-rendering="crispEdges" ></rect><rect id="21-16" x="20" y="15" width="1" height="1" shape-rendering="crispEdges" ></rect><rect id="22-16" x="21" y="15" width="1" height="1" shape-rendering="crispEdges" ></rect><rect id="29-16" x="28" y="15" width="1" height="1" shape-rendering="crispEdges" ></rect><rect id="30-16" x="29" y="15" width="1" height="1" shape-rendering="crispEdges" ></rect><rect id="1-17" x="0" y="16" width="1" height="1" shape-rendering="crispEdges" ></rect><rect id="2-17" x="1" y="16" width="1" height="1" shape-rendering="crispEdges" ></rect><rect id="9-17" x="8" y="16" width="1" height="1" shape-rendering="crispEdges" ></rect><rect id="10-17" x="9" y="16" width="1" height="1" shape-rendering="crispEdges" ></rect><rect id="15-17" x="14" y="16" width="1" height="1" shape-rendering="crispEdges" ></rect><rect id="16-17" x="15" y="16" width="1" height="1" shape-rendering="crispEdges" ></rect><rect id="21-17" x="20" y="16" width="1" height="1" shape-rendering="crispEdges" ></rect><rect id="22-17" x="21" y="16" width="1" height="1" shape-rendering="crispEdges" ></rect><rect id="31-17" x="30" y="16" width="1" height="1" shape-rendering="crispEdges" ></rect><rect id="32-17" x="31" y="16" width="1" height="1" shape-rendering="crispEdges" ></rect><rect id="1-18" x="0" y="17" width="1" height="1" shape-rendering="crispEdges" ></rect><rect id="2-18" x="1" y="17" width="1" height="1" shape-rendering="crispEdges" ></rect><rect id="9-18" x="8" y="17" width="1" height="1" shape-rendering="crispEdges" ></rect><rect id="10-18" x="9" y="17" width="1" height="1" shape-rendering="crispEdges" ></rect><rect id="15-18" x="14" y="17" width="1" height="1" shape-rendering="crispEdges" ></rect><rect id="16-18" x="15" y="17" width="1" height="1" shape-rendering="crispEdges" ></rect><rect id="21-18" x="20" y="17" width="1" height="1" shape-rendering="crispEdges" ></rect><rect id="22-18" x="21" y="17" width="1" height="1" shape-rendering="crispEdges" ></rect><rect id="31-18" x="30" y="17" width="1" height="1" shape-rendering="crispEdges" ></rect><rect id="32-18" x="31" y="17" width="1" height="1" shape-rendering="crispEdges" ></rect><rect id="1-19" x="0" y="18" width="1" height="1" shape-rendering="crispEdges" ></rect><rect id="2-19" x="1" y="18" width="1" height="1" shape-rendering="crispEdges" ></rect><rect id="5-19" x="4" y="18" width="1" height="1" shape-rendering="crispEdges" ></rect><rect id="6-19" x="5" y="18" width="1" height="1" shape-rendering="crispEdges" ></rect><rect id="9-19" x="8" y="18" width="1" height="1" shape-rendering="crispEdges" ></rect><rect id="10-19" x="9" y="18" width="1" height="1" shape-rendering="crispEdges" ></rect><rect id="15-19" x="14" y="18" width="1" height="1" shape-rendering="crispEdges" ></rect><rect id="16-19" x="15" y="18" width="1" height="1" shape-rendering="crispEdges" ></rect><rect id="21-19" x="20" y="18" width="1" height="1" shape-rendering="crispEdges" ></rect><rect id="22-19" x="21" y="18" width="1" height="1" shape-rendering="crispEdges" ></rect><rect id="25-19" x="24" y="18" width="1" height="1" shape-rendering="crispEdges" ></rect><rect id="26-19" x="25" y="18" width="1" height="1" shape-rendering="crispEdges" ></rect><rect id="27-19" x="26" y="18" width="1" height="1" shape-rendering="crispEdges" ></rect><rect id="28-19" x="27" y="18" width="1" height="1" shape-rendering="crispEdges" ></rect><rect id="31-19" x="30" y="18" width="1" height="1" shape-rendering="crispEdges" ></rect><rect id="32-19" x="31" y="18" width="1" height="1" shape-rendering="crispEdges" ></rect><rect id="1-20" x="0" y="19" width="1" height="1" shape-rendering="crispEdges" ></rect><rect id="2-20" x="1" y="19" width="1" height="1" shape-rendering="crispEdges" ></rect><rect id="5-20" x="4" y="19" width="1" height="1" shape-rendering="crispEdges" ></rect><rect id="6-20" x="5" y="19" width="1" height="1" shape-rendering="crispEdges" ></rect><rect id="9-20" x="8" y="19" width="1" height="1" shape-rendering="crispEdges" ></rect><rect id="10-20" x="9" y="19" width="1" height="1" shape-rendering="crispEdges" ></rect><rect id="15-20" x="14" y="19" width="1" height="1" shape-rendering="crispEdges" ></rect><rect id="16-20" x="15" y="19" width="1" height="1" shape-rendering="crispEdges" ></rect><rect id="21-20" x="20" y="19" width="1" height="1" shape-rendering="crispEdges" ></rect><rect id="22-20" x="21" y="19" width="1" height="1" shape-rendering="crispEdges" ></rect><rect id="25-20" x="24" y="19" width="1" height="1" shape-rendering="crispEdges" ></rect><rect id="26-20" x="25" y="19" width="1" height="1" shape-rendering="crispEdges" ></rect><rect id="27-20" x="26" y="19" width="1" height="1" shape-rendering="crispEdges" ></rect><rect id="28-20" x="27" y="19" width="1" height="1" shape-rendering="crispEdges" ></rect><rect id="31-20" x="30" y="19" width="1" height="1" shape-rendering="crispEdges" ></rect><rect id="32-20" x="31" y="19" width="1" height="1" shape-rendering="crispEdges" ></rect><rect id="3-21" x="2" y="20" width="1" height="1" shape-rendering="crispEdges" ></rect><rect id="4-21" x="3" y="20" width="1" height="1" shape-rendering="crispEdges" ></rect><rect id="11-21" x="10" y="20" width="1" height="1" shape-rendering="crispEdges" ></rect><rect id="12-21" x="11" y="20" width="1" height="1" shape-rendering="crispEdges" ></rect><rect id="15-21" x="14" y="20" width="1" height="1" shape-rendering="crispEdges" ></rect><rect id="16-21" x="15" y="20" width="1" height="1" shape-rendering="crispEdges" ></rect><rect id="19-21" x="18" y="20" width="1" height="1" shape-rendering="crispEdges" ></rect><rect id="20-21" x="19" y="20" width="1" height="1" shape-rendering="crispEdges" ></rect><rect id="29-21" x="28" y="20" width="1" height="1" shape-rendering="crispEdges" ></rect><rect id="30-21" x="29" y="20" width="1" height="1" shape-rendering="crispEdges" ></rect><rect id="3-22" x="2" y="21" width="1" height="1" shape-rendering="crispEdges" ></rect><rect id="4-22" x="3" y="21" width="1" height="1" shape-rendering="crispEdges" ></rect><rect id="11-22" x="10" y="21" width="1" height="1" shape-rendering="crispEdges" ></rect><rect id="12-22" x="11" y="21" width="1" height="1" shape-rendering="crispEdges" ></rect><rect id="15-22" x="14" y="21" width="1" height="1" shape-rendering="crispEdges" ></rect><rect id="16-22" x="15" y="21" width="1" height="1" shape-rendering="crispEdges" ></rect><rect id="19-22" x="18" y="21" width="1" height="1" shape-rendering="crispEdges" ></rect><rect id="20-22" x="19" y="21" width="1" height="1" shape-rendering="crispEdges" ></rect><rect id="29-22" x="28" y="21" width="1" height="1" shape-rendering="crispEdges" ></rect><rect id="30-22" x="29" y="21" width="1" height="1" shape-rendering="crispEdges" ></rect><rect id="3-23" x="2" y="22" width="1" height="1" shape-rendering="crispEdges" ></rect><rect id="4-23" x="3" y="22" width="1" height="1" shape-rendering="crispEdges" ></rect><rect id="5-23" x="4" y="22" width="1" height="1" shape-rendering="crispEdges" ></rect><rect id="6-23" x="5" y="22" width="1" height="1" shape-rendering="crispEdges" ></rect><rect id="13-23" x="12" y="22" width="1" height="1" shape-rendering="crispEdges" ></rect><rect id="14-23" x="13" y="22" width="1" height="1" shape-rendering="crispEdges" ></rect><rect id="15-23" x="14" y="22" width="1" height="1" shape-rendering="crispEdges" ></rect><rect id="16-23" x="15" y="22" width="1" height="1" shape-rendering="crispEdges" ></rect><rect id="17-23" x="16" y="22" width="1" height="1" shape-rendering="crispEdges" ></rect><rect id="18-23" x="17" y="22" width="1" height="1" shape-rendering="crispEdges" ></rect><rect id="27-23" x="26" y="22" width="1" height="1" shape-rendering="crispEdges" ></rect><rect id="28-23" x="27" y="22" width="1" height="1" shape-rendering="crispEdges" ></rect><rect id="29-23" x="28" y="22" width="1" height="1" shape-rendering="crispEdges" ></rect><rect id="30-23" x="29" y="22" width="1" height="1" shape-rendering="crispEdges" ></rect><rect id="3-24" x="2" y="23" width="1" height="1" shape-rendering="crispEdges" ></rect><rect id="4-24" x="3" y="23" width="1" height="1" shape-rendering="crispEdges" ></rect><rect id="5-24" x="4" y="23" width="1" height="1" shape-rendering="crispEdges" ></rect><rect id="6-24" x="5" y="23" width="1" height="1" shape-rendering="crispEdges" ></rect><rect id="13-24" x="12" y="23" width="1" height="1" shape-rendering="crispEdges" ></rect><rect id="14-24" x="13" y="23" width="1" height="1" shape-rendering="crispEdges" ></rect><rect id="15-24" x="14" y="23" width="1" height="1" shape-rendering="crispEdges" ></rect><rect id="16-24" x="15" y="23" width="1" height="1" shape-rendering="crispEdges" ></rect><rect id="17-24" x="16" y="23" width="1" height="1" shape-rendering="crispEdges" ></rect><rect id="18-24" x="17" y="23" width="1" height="1" shape-rendering="crispEdges" ></rect><rect id="27-24" x="26" y="23" width="1" height="1" shape-rendering="crispEdges" ></rect><rect id="28-24" x="27" y="23" width="1" height="1" shape-rendering="crispEdges" ></rect><rect id="29-24" x="28" y="23" width="1" height="1" shape-rendering="crispEdges" ></rect><rect id="30-24" x="29" y="23" width="1" height="1" shape-rendering="crispEdges" ></rect><rect id="7-25" x="6" y="24" width="1" height="1" shape-rendering="crispEdges" ></rect><rect id="8-25" x="7" y="24" width="1" height="1" shape-rendering="crispEdges" ></rect><rect id="9-25" x="8" y="24" width="1" height="1" shape-rendering="crispEdges" ></rect><rect id="10-25" x="9" y="24" width="1" height="1" shape-rendering="crispEdges" ></rect><rect id="23-25" x="22" y="24" width="1" height="1" shape-rendering="crispEdges" ></rect><rect id="24-25" x="23" y="24" width="1" height="1" shape-rendering="crispEdges" ></rect><rect id="25-25" x="24" y="24" width="1" height="1" shape-rendering="crispEdges" ></rect><rect id="26-25" x="25" y="24" width="1" height="1" shape-rendering="crispEdges" ></rect><rect id="7-26" x="6" y="25" width="1" height="1" shape-rendering="crispEdges" ></rect><rect id="8-26" x="7" y="25" width="1" height="1" shape-rendering="crispEdges" ></rect><rect id="9-26" x="8" y="25" width="1" height="1" shape-rendering="crispEdges" ></rect><rect id="10-26" x="9" y="25" width="1" height="1" shape-rendering="crispEdges" ></rect><rect id="23-26" x="22" y="25" width="1" height="1" shape-rendering="crispEdges" ></rect><rect id="24-26" x="23" y="25" width="1" height="1" shape-rendering="crispEdges" ></rect><rect id="25-26" x="24" y="25" width="1" height="1" shape-rendering="crispEdges" ></rect><rect id="26-26" x="25" y="25" width="1" height="1" shape-rendering="crispEdges" ></rect><rect id="11-27" x="10" y="26" width="1" height="1" shape-rendering="crispEdges" ></rect><rect id="12-27" x="11" y="26" width="1" height="1" shape-rendering="crispEdges" ></rect><rect id="13-27" x="12" y="26" width="1" height="1" shape-rendering="crispEdges" ></rect><rect id="14-27" x="13" y="26" width="1" height="1" shape-rendering="crispEdges" ></rect><rect id="15-27" x="14" y="26" width="1" height="1" shape-rendering="crispEdges" ></rect><rect id="16-27" x="15" y="26" width="1" height="1" shape-rendering="crispEdges" ></rect><rect id="17-27" x="16" y="26" width="1" height="1" shape-rendering="crispEdges" ></rect><rect id="18-27" x="17" y="26" width="1" height="1" shape-rendering="crispEdges" ></rect><rect id="19-27" x="18" y="26" width="1" height="1" shape-rendering="crispEdges" ></rect><rect id="20-27" x="19" y="26" width="1" height="1" shape-rendering="crispEdges" ></rect><rect id="21-27" x="20" y="26" width="1" height="1" shape-rendering="crispEdges" ></rect><rect id="22-27" x="21" y="26" width="1" height="1" shape-rendering="crispEdges" ></rect><rect id="11-28" x="10" y="27" width="1" height="1" shape-rendering="crispEdges" ></rect><rect id="12-28" x="11" y="27" width="1" height="1" shape-rendering="crispEdges" ></rect><rect id="13-28" x="12" y="27" width="1" height="1" shape-rendering="crispEdges" ></rect><rect id="14-28" x="13" y="27" width="1" height="1" shape-rendering="crispEdges" ></rect><rect id="15-28" x="14" y="27" width="1" height="1" shape-rendering="crispEdges" ></rect><rect id="16-28" x="15" y="27" width="1" height="1" shape-rendering="crispEdges" ></rect><rect id="17-28" x="16" y="27" width="1" height="1" shape-rendering="crispEdges" ></rect><rect id="18-28" x="17" y="27" width="1" height="1" shape-rendering="crispEdges" ></rect><rect id="19-28" x="18" y="27" width="1" height="1" shape-rendering="crispEdges" ></rect><rect id="20-28" x="19" y="27" width="1" height="1" shape-rendering="crispEdges" ></rect><rect id="21-28" x="20" y="27" width="1" height="1" shape-rendering="crispEdges" ></rect><rect id="22-28" x="21" y="27" width="1" height="1" shape-rendering="crispEdges" ></rect></svg>