<?xml version="1.0" encoding="UTF-8"?><svg id="Layer_1" xmlns="http://www.w3.org/2000/svg" xmlns:xlink="http://www.w3.org/1999/xlink" viewBox="0 0 1080 1080"><defs><style>.cls-1{fill:none;}.cls-2{clip-path:url(#clippath);}.cls-3{fill:#010101;}</style><clipPath id="clippath"><rect class="cls-1" x=".66" width="1078.68" height="1080"/></clipPath></defs><path class="cls-3" d="M882.04,485.74v106.78c0,7.84-5.3,14.69-12.89,16.67l-6.5,1.69c-16.48,4.32-29.93,14.11-39.29,26.79,0,.1-.05,.14-.14,.19-1.57,2.09-2.99,4.28-4.28,6.51-.62,.9-1.24,1.76-1.76,2.61-.14,.19-.24,.33-.38,.48-2.09,2.9-4.23,5.75-6.51,8.55-1.09,1.38-2.28,2.75-3.42,4.13-1.19,1.38-2.38,2.71-3.56,4.04-1.19,1.33-2.42,2.66-3.71,3.94-1.23,1.33-2.52,2.61-3.8,3.85-1.28,1.28-2.57,2.52-3.89,3.71-1.33,1.24-2.66,2.42-3.99,3.61-.19,.19-.33,.33-.52,.48-3.89,3.37-7.98,6.6-12.16,9.64-4.37,3.23-8.84,6.22-13.49,8.98-3.09,1.85-6.22,3.61-9.45,5.32-5.04,2.66-10.21,5.08-15.49,7.22-1.47,.62-2.95,1.19-4.42,1.76-1.71,.67-3.42,1.28-5.18,1.9-1.61,.57-3.23,1.09-4.85,1.62-1.95,.62-3.89,1.24-5.89,1.76-1.71,.47-3.42,.95-5.13,1.38-5.51,1.38-11.12,2.52-16.82,3.37-3.61,.57-7.27,1-10.93,1.33-1.52,.14-3.04,.28-4.56,.38-.81,.05-1.61,.1-2.47,.14-1.47,.1-2.95,.14-4.42,.19-1.9,.05-3.85,.1-5.75,.1h-.1c-2.61,0-5.18-.05-7.74-.19-.43,0-.85,0-1.28-.05-2.14-.1-4.23-.24-6.32-.38-.43-.05-.9-.1-1.33-.14-1.66-.14-3.33-.28-4.99-.52-.29,0-.52-.05-.81-.1-.95-.1-1.85-.24-2.8-.38-1.9-.24-3.75-.52-5.61-.85-.24,0-.47-.05-.71-.1-1.38-.24-2.75-.47-4.13-.81-1.43-.24-2.8-.52-4.23-.86-3.04-.67-6.03-1.38-9.03-2.23-1.24-.33-2.47-.66-3.71-1.04-1.8-.52-3.61-1.09-5.41-1.71-2.14-.71-4.28-1.42-6.37-2.23-.19-.05-.38-.14-.52-.19-1.71-.67-3.42-1.33-5.08-2-2.33-.95-4.61-1.95-6.89-2.99-2.52-1.19-5.04-2.38-7.51-3.66-.24-.1-.43-.24-.62-.33-2.42-1.24-4.75-2.52-7.08-3.9-2.47-1.42-4.89-2.9-7.32-4.42-2.38-1.52-4.75-3.13-7.03-4.75-2.33-1.66-4.61-3.33-6.84-5.08-2.23-1.76-4.42-3.56-6.6-5.37-2.14-1.85-4.23-3.75-6.32-5.7-1.14-1.04-2.23-2.14-3.33-3.18-1.19-1.14-2.33-2.33-3.47-3.52-3.85-3.99-7.51-8.12-10.97-12.45-3.47-4.28-6.75-8.74-9.83-13.35-2.04-3.09-4.04-6.22-5.89-9.41v-.05c-2.47-4.23-4.8-8.65-6.98-13.11-2.14-4.47-4.09-9.07-5.89-13.73-1.66-4.42-3.18-8.88-4.56-13.44-.9-3.04-1.71-6.08-2.47-9.17-.33-1.38-.62-2.71-.95-4.09-.43-2.04-.86-4.13-1.24-6.18-.81-4.7-1.47-9.45-1.99-14.2-.14-1.61-.29-3.18-.43-4.8-.1-1.43-.19-2.85-.29-4.28-.14-3.28-.24-6.6-.24-9.93,0-6.94-.95-13.63-2.8-20-1.8-6.37-4.47-12.4-7.84-17.91-3.04-5.04-6.7-9.64-10.83-13.78-13.21-13.25-31.5-21.42-51.64-21.42s-38.48,8.17-51.69,21.42c-3.32,3.33-6.32,6.94-8.93,10.83-1.95,2.9-3.75,5.99-5.27,9.17-1.14,2.38-2.19,4.85-3.09,7.36-.48,1.28-.86,2.57-1.24,3.85-1.95,6.51-2.95,13.4-2.95,20.47h-.47c0,8.08,.47,16.01,1.38,23.8,4.56,39.57,20.43,75.68,44.32,105.13,32.97,40.95,81.52,68.98,136.72,75.06,7.51,.86,15.11,1.24,22.8,1.24,18.42,0,36.24-2.42,53.23-6.99,2.86-.77,5.82-.69,8.64,.22,20.63,6.7,42.38,10.19,64.55,10.19,46.41,0,89.37-15.21,124.06-40.98,8.08-6,18.96-3.97,24.25,4.6l8.64,14c3.15,5.1,2.38,11.7-1.86,15.94l-77.7,77.7c-5.57,5.57-14.28,6.16-20.74,1.64-12.65-8.85-26.86-12.94-40.84-12.94-9.03,0-17.96,1.66-26.32,4.85-.14,.05-.24,.1-.33,.14-1.38,.47-2.71,1.04-4.04,1.62-.1,.05-.14,.1-.24,.1-20.72,9.45-37.22,28.22-41.7,53.08-1.4,7.8-7.84,13.67-15.77,13.67h-107.68c-7.93,0-14.37-5.87-15.77-13.67-4.47-24.86-20.97-43.62-41.69-53.08-.1,0-.14-.05-.24-.1-1.33-.57-2.66-1.14-4.04-1.62-.1-.05-.19-.1-.33-.14-8.36-3.18-17.29-4.85-26.32-4.85-13.98,0-28.19,4.09-40.83,12.94-6.46,4.52-15.17,3.93-20.74-1.64l-76.09-76.09c-5.57-5.57-6.16-14.28-1.64-20.74,8.85-12.65,12.94-26.86,12.94-40.83,0-7.89-1.23-15.58-3.7-22.99-.38-1.24-.86-2.47-1.28-3.71-.1-.19-.19-.38-.24-.62-8.03-20.62-25.18-37.62-48.36-43.94-2.06-.54-4.17-1-6.33-1.38-7.69-1.35-13.53-7.62-13.53-15.43v-106.63c0-7.82,5.26-14.67,12.82-16.68l6.65-1.77c15.96-4.18,29.07-13.49,38.39-25.61,.1-.14,.19-.29,.29-.38,.14-.14,.19-.29,.29-.43,1.8-2.42,3.47-4.94,4.99-7.6,.1-.14,.19-.29,.24-.38,.43-.57,.81-1.14,1.24-1.71,.14-.19,.29-.38,.38-.57,2.47-3.42,5.04-6.79,7.74-10.02,.9-1.14,1.9-2.28,2.85-3.37,1-1.14,1.99-2.28,2.94-3.37,1.05-1.09,2.04-2.19,3.04-3.23,1.05-1.04,2.04-2.09,3.09-3.14,1.05-1.05,2.09-2.09,3.18-3.09,3.18-3.09,6.51-6.03,9.93-8.84,1.14-.95,2.33-1.85,3.47-2.8,2.38-1.85,4.75-3.66,7.22-5.37,1.19-.86,2.38-1.66,3.56-2.47,1.23-.86,2.47-1.66,3.7-2.47,2.52-1.57,5.04-3.14,7.65-4.61,1.28-.76,2.57-1.47,3.89-2.19,1.28-.71,2.61-1.43,3.94-2.09,1.33-.67,2.66-1.33,3.99-2,2.71-1.28,5.46-2.52,8.22-3.71,1.38-.62,2.76-1.14,4.18-1.71,1.38-.57,2.8-1.09,4.23-1.62,2.61-.95,5.27-1.85,7.93-2.71,.29-.09,.57-.19,.86-.29,2.85-.86,5.7-1.66,8.55-2.38,1.43-.38,2.85-.71,4.28-1.04,1.14-.29,2.28-.52,3.42-.76,1.14-.29,2.33-.52,3.52-.71,5.79-1.14,11.73-2,17.72-2.52,1.47-.14,2.94-.29,4.42-.38,.95-.05,1.95-.1,2.9-.14,1.38-.1,2.71-.14,4.13-.19,1.9-.05,3.8-.1,5.7-.1h.14c2.66,0,5.32,.05,7.94,.19,.38,0,.81,0,1.19,.05,4.51,.19,9.03,.57,13.44,1.14h.05c.95,.1,1.9,.24,2.85,.38,1.85,.24,3.7,.52,5.56,.86,.24,0,.48,.05,.71,.1,4.85,.86,9.6,1.85,14.3,3.09,1.9,.47,3.8,1,5.7,1.57,2.14,.62,4.23,1.28,6.37,1.95,3.8,1.28,7.6,2.66,11.31,4.18,2.57,1.04,5.08,2.14,7.55,3.28,2.28,1,4.51,2.09,6.75,3.28,1.09,.52,2.23,1.09,3.28,1.71,1.09,.52,2.14,1.09,3.18,1.76,1.24,.67,2.47,1.33,3.66,2.09,4.13,2.38,8.13,4.94,11.97,7.7,1.28,.86,2.52,1.76,3.75,2.71,.76,.52,1.57,1.09,2.33,1.76,1.23,.9,2.42,1.81,3.61,2.8,.67,.48,1.28,1,1.9,1.57,1.38,1.09,2.75,2.23,4.08,3.42,1.66,1.43,3.32,2.9,4.94,4.42,1.09,1.04,2.19,2.09,3.28,3.18,11.73,11.54,21.95,24.61,30.21,38.91,2.23,3.9,4.37,7.89,6.37,11.92,1.47,3.04,2.9,6.13,4.23,9.31,1,2.38,1.95,4.75,2.85,7.13,6.22,16.86,10.07,34.87,11.21,53.63v.05c.19,3.56,.29,7.17,.29,10.78,0,6.94,.95,13.63,2.8,20,1.81,6.37,4.47,12.35,7.84,17.86,3.04,5.04,6.7,9.64,10.83,13.78,13.21,13.25,31.5,21.43,51.69,21.43s38.43-8.17,51.64-21.43c3.33-3.33,6.32-6.94,8.93-10.83,1.95-2.9,3.75-5.99,5.27-9.17,1.14-2.38,2.19-4.85,3.09-7.36,.43-1.28,.85-2.57,1.23-3.85,1.95-6.51,2.95-13.35,2.95-20.43h.48c0-8.03-.48-15.91-1.38-23.71-4.56-39.62-20.43-75.87-44.32-105.32-33.06-40.95-81.52-68.88-136.72-74.96h-.1c-7.41-.86-15.01-1.23-22.71-1.23-18.42,0-36.28,2.42-53.28,7-2.86,.77-5.82,.69-8.63-.22-20.59-6.7-42.34-10.14-64.45-10.14-46.44,0-89.39,15.27-124.07,41.02-8.08,6-18.96,3.96-24.24-4.6l-8.68-14.08c-3.15-5.1-2.38-11.7,1.86-15.94l77.69-77.69c5.57-5.57,14.28-6.16,20.74-1.64,12.65,8.85,26.86,12.94,40.83,12.94,9.03,0,17.96-1.66,26.32-4.85,.14-.05,.24-.09,.33-.14,1.62-.57,3.18-1.24,4.75-1.95,20.5-9.48,36.78-28.15,41.22-52.83,1.4-7.81,7.84-13.68,15.78-13.68h107.67c7.93,0,14.37,5.88,15.78,13.68,4.44,24.68,20.72,43.34,41.22,52.83,1.57,.71,3.14,1.38,4.75,1.95,.1,.05,.19,.09,.33,.14,8.36,3.18,17.29,4.85,26.32,4.85,13.98,0,28.19-4.09,40.83-12.94,6.46-4.52,15.17-3.93,20.74,1.64l75.97,75.97c5.63,5.63,6.22,14.43,1.66,20.97-13.72,19.69-15.79,43.19-9.14,63.72,.38,1.24,.85,2.47,1.28,3.66,.19,.52,.43,1,.62,1.52,8.22,20.33,25.18,36.96,48.07,43.09,2.06,.57,4.17,1.05,6.33,1.43,7.63,1.34,13.44,7.54,13.44,15.29Z"/><g class="cls-2"><path class="cls-3" d="M65.3,736.09l25.29-21.39,7.72,18.72-33.02,2.67Zm66.8-5.52l-17.8,1.45-11.44-27.71,13.64-11.53-7.38-17.88-70.9,62.96,6.63,16.08,94.67-5.37-7.43-18Zm-32.28,123.06l13.15-8.1-12.94-20.99,63.09-38.88-9.53-15.47-63.09,38.88-12.94-20.99-13.15,8.1,35.41,57.46Zm32.85,39.69l11.75,13.86,68.32-57.91-36.09-42.57-11.68,9.9,24.34,28.71-56.63,48.01Zm37.12,38.71l13.4,12.27,60.46-66.07-13.41-12.27-60.46,66.07Zm85.96-41.81l-3.27,62.49-43.08,14.32,17.75,12.21,45.23-15.84-21.92,31.87,14.97,10.3,50.74-73.8-14.97-10.29-13.46,19.57-16.71,5.52,2.58-44.07-17.86-12.28Zm103.85,158l17.58-53.38,15.71,64.34,14.3,4.71,28.01-85.06-16.4-5.4-17.33,52.64-15.83-63.56-14.42-4.75-28.01,85.06,16.4,5.4Zm120.72,1.65l-6.1-32.56,20.09,2.53-13.99,30.03Zm28.2-60.81l-7.53,16.19-29.75-3.75-3.28-17.55-19.19-2.42,19.71,92.75,17.26,2.17,42.1-84.96-19.32-2.43Zm26.74,2.08l36.74,50.65-24.5,38.23,21.48-1.67,25.22-40.75,2.99,38.56,18.12-1.41-6.94-89.29-18.12,1.41,1.84,23.68-9.53,14.8-25.7-35.89-21.61,1.68Zm116.41,76.2l17.73-3.99-19.66-87.37-17.73,3.99,19.66,87.37Zm50.55-13.28l17.26-5.68-28.01-85.06-17.26,5.68,28.01,85.06Zm67.87-26.46l-25.22-50.23,56.53,34.5,13.45-6.76-40.18-80.04-15.43,7.75,24.87,49.53-56.07-33.87-13.57,6.81,40.18,80.04,15.43-7.75Zm17.89-111.04l58.66,21.78,.81,45.4,16.95-13.3-1.61-47.9,23.88,30.43,14.3-11.22-55.28-70.46-14.3,11.22,14.66,18.69,.28,17.6-41.29-15.61-17.05,13.38Zm174.08-40.27l-66.83-59.62-37.15,41.65,11.43,10.2,25.06-28.09,17.43,15.55-22.47,25.18,11.43,10.2,22.46-25.18,15.01,13.39-25.06,28.09,11.53,10.28,37.15-41.65Zm54.03-80.84l-13.05-8.27-13.2,20.83-62.6-39.67-9.72,15.35,62.6,39.67-13.2,20.83,13.05,8.27,36.12-57.01Zm11.66-26.24l7.55-16.53-81.47-37.19-7.55,16.53,81.47,37.19Zm40.18-118.1l4.33-16.44-86.6-22.81-4.4,16.69,53.34,14.05-42.67,8.63-2.81,10.67,33.2,28.88-53.72-14.15-4.43,16.82,86.6,22.81,4.4-16.69-40.85-36.53,53.6-11.92Zm11.43-108.2l-89.43-4.8-2.99,55.73,15.29,.82,2.02-37.58,23.33,1.25-1.81,33.7,15.29,.82,1.81-33.7,20.09,1.08-2.02,37.59,15.42,.83,2.99-55.73Zm-6.41-87.26l-89.1,9.07,5.65,55.52,15.24-1.55-3.81-37.45,23.24-2.37,3.42,33.57,15.24-1.55-3.42-33.57,20.01-2.04,3.81,37.45,15.37-1.56-5.65-55.52Zm-23.44-94.78l-14.89,4.11,6.57,23.77-71.43,19.74,4.84,17.51,71.43-19.74,6.57,23.77,14.89-4.11-17.98-65.05Zm-22.07-18.96c6.21-9.96,5.96-21.75-.13-34.66-9.08-19.25-23.04-23-35.84-16.97-13.38,6.31-17.25,17.89-13.95,35.85,2.8,14.75,1.23,19.65-4.4,22.31-4.93,2.32-10.53,1.09-14.96-8.3-3.93-8.34-3.55-14.54-.2-21.43l-14.61-8.47c-6.01,11.59-5.24,23.28,1.46,37.48,8.97,19.02,23.5,23.07,36.77,16.81,14.32-6.75,17.06-17.37,13.32-36.27-2.39-12.07-2.01-18.57,4.33-21.56,5.52-2.6,10.81-.22,14.29,7.18,3.87,8.22,3.17,13.72-.69,19.84l14.62,8.18Zm-70.17-145.13l-27.16,53.34-29.9,21.12,10.48,14.84,29.9-21.12,59.35-7.76-12.06-17.07-36.53,6.1,18.04-32.28-12.13-17.17Zm-27.35-9.98c2.4-11.49-1.89-22.47-12.04-32.51-15.15-14.96-29.55-13.67-39.49-3.6-10.4,10.53-10.04,22.73-.77,38.46,7.7,12.89,7.92,18.03,3.54,22.46-3.83,3.88-9.52,4.65-16.9-2.65-6.56-6.48-8.34-12.43-7.56-20.05l-16.63-2.92c-1.66,12.95,3.09,23.66,14.26,34.69,14.96,14.77,30,13.58,40.31,3.14,11.12-11.27,10.05-22.18,.03-38.64-6.4-10.51-8.27-16.74-3.35-21.73,4.29-4.34,10.07-3.92,15.89,1.83,6.47,6.38,7.69,11.79,6.18,18.87l16.54,2.65Zm-140.09-95.15l-6.72,32.44-17.62-9.97,24.34-22.47Zm-49.18,45.54l13.12-12.11,26.09,14.76-3.63,17.48,16.83,9.52,16.99-93.29-15.14-8.56-71.21,62.61,16.94,9.59Zm-78.98-43.89c2.82,10.24,10.18,17.82,22.28,22.14,17.73,6.32,31.88,1.03,40.55-23.3l18.52-51.96-17.12-6.1-18.52,51.96c-5.23,14.67-11.2,17.5-19.39,14.58-4.64-1.66-7.97-5.46-9.31-10.21l-17.01,2.89Zm-78.58-31.28l33.35,4.2,1.82-14.42-33.35-4.2-1.82,14.42Zm-70.35-22.14c-.31-17.13,5.15-24.37,15.66-24.56,10.51-.19,16.35,6.85,16.66,23.98l.23,12.72c.31,17.13-5.28,24.37-15.79,24.56-10.51,.19-16.22-6.85-16.53-23.98l-.23-12.72Zm50.71,11.81l-.23-12.72c-.49-27.64-14.85-39.33-35.1-38.97-20.11,.36-34.05,12.55-33.55,40.19l.23,12.72c.49,27.38,14.85,39.33,34.97,38.97,20.24-.36,34.17-12.81,33.68-40.2M459.88,6.93l-17.94,2.92,14.38,88.4,17.94-2.92-14.38-88.4Zm-110.39,27.47l4.47,14.78,23.6-7.14,21.46,70.94,17.39-5.26-21.46-70.94,23.6-7.14-4.47-14.78-64.6,19.55Zm-39.62,46.58l23.2,23.64-18.1,9.09-5.1-32.73Zm10.44,66.21l-2.76-17.64,26.79-13.45,12.5,12.75,17.28-8.68-68.02-66.06-15.54,7.8,12.34,94.01,17.4-8.74Zm-93.75-13.87l27.2,18.91-16.09,12.3-11.11-31.21Zm22.59,63.11l-5.99-16.82,23.82-18.21,14.66,10.2,15.36-11.74-79.14-52.23-13.82,10.56,29.64,90.07,15.47-11.82Zm-137.3,14.85l-11,12.97,68.32,57.91,11.16-13.17-42.08-35.67,42.22,10.61,7.13-8.42-17.51-40.36,42.38,35.92,11.25-13.27-68.32-57.91-11.16,13.17,21.11,50.57-53.51-12.35Zm-22.18,108.76c-15.12-8.06-18.79-16.35-13.84-25.62,4.95-9.28,13.93-10.95,29.05-2.89l11.22,5.99c15.12,8.06,18.73,16.46,13.78,25.74-4.95,9.28-13.87,10.84-28.99,2.78l-11.22-5.99Zm34.99-38.56l-11.22-5.99c-24.39-13.01-41.59-6.15-51.12,11.71-9.47,17.75-5.59,35.85,18.8,48.87l11.22,5.99c24.16,12.89,41.59,6.15,51.06-11.6,9.53-17.86,5.42-36.09-18.74-48.98M16,407.07l14.67,4.83,7.71-23.42,70.39,23.18,5.68-17.26-70.39-23.18,7.71-23.42-14.67-4.83-21.11,64.11Zm-9.01,49.81l52.93,6.67c15.2,1.91,21.26,7.78,19.86,18.85-1.4,11.07-8.73,15.25-23.92,13.34l-52.93-6.67-2.27,18.03,52.93,6.67c26.14,3.29,38.9-9.75,41.39-29.45,2.48-19.7-6.65-35.5-32.92-38.81l-52.8-6.65-2.27,18.03Zm20.74,118.79l30.81-12.17,1.33,20.2-32.14-8.03Zm65.06,16.15l-17.32-4.33-1.96-29.92,16.61-6.55-1.27-19.3L1.51,568.68l1.14,17.35,91.41,25.21-1.28-19.43Z"/></g></svg>